<svg xmlns="http://www.w3.org/2000/svg" width="140.101" height="140.101" viewBox="0 0 140.101 140.101"><defs><style>.a{fill:#fff;}.b{fill:#af5c2c;}.c{fill:#f29e6a;}</style></defs><g transform="translate(-525 -2714.313)"><ellipse class="a" cx="70.05" cy="70.051" rx="70.05" ry="70.051" transform="translate(525 2714.313)"/><g transform="translate(595.241 2718.563)"><path class="b" d="M440.81,3991.576c14.671-21.047,13.279-46.086-3.385-60.889a33.727,33.727,0,0,0-29.32-7.769v15.435a17.773,17.773,0,0,1,15.33,4.116,21.578,21.578,0,0,1,1.8,30.426,26.11,26.11,0,0,1-17.13,8.655v28.188C422.316,4007.676,434,4001.349,440.81,3991.576Z" transform="translate(-408.105 -3900.722)"/><path class="b" d="M421.034,3978.316a15.952,15.952,0,0,0-1.331-22.493,12.178,12.178,0,0,0-11.6-2.541V3971.5a6.767,6.767,0,0,0,4.746-2.261,4.874,4.874,0,0,0-.408-6.871,2.81,2.81,0,0,1,3.732-4.2,10.5,10.5,0,0,1,.877,14.8,12.357,12.357,0,0,1-8.947,4.144v7.943A20.507,20.507,0,0,0,421.034,3978.316Z" transform="translate(-408.105 -3909.875)"/><path class="b" d="M473.719,3957.337a65.877,65.877,0,0,0-65.614-65.8v16.472a39.333,39.333,0,0,1,33.052,9.292c18.862,16.756,20.615,44.843,4.262,68.3-7.842,11.251-21.2,18.467-37.314,20.627v16.907A65.877,65.877,0,0,0,473.719,3957.337Z" transform="translate(-408.105 -3891.536)"/></g><g transform="translate(529.246 2718.559)"><path class="c" d="M399.117,3957.063a9.2,9.2,0,0,0,.768,12.967,6.752,6.752,0,0,0,4.836,1.694V3953.5A12.092,12.092,0,0,0,399.117,3957.063Z" transform="translate(-338.725 -3910.091)"/><path class="c" d="M379,3933.815a26.5,26.5,0,0,0,2.212,37.374,20.551,20.551,0,0,0,16.178,5.022v-7.942a12.355,12.355,0,0,1-8.567-3.108,14.822,14.822,0,0,1-1.238-20.9,17.684,17.684,0,0,1,9.8-5.6v-15.436A33.571,33.571,0,0,0,379,3933.815Z" transform="translate(-331.395 -3901.021)"/><path class="c" d="M384.436,4066.883c.064,0,.127-.005.191-.005v-16.907a78.3,78.3,0,0,1-10.41.7q-3.505,0-7.123-.3c-14.4-1.189-27.672-5.905-37.38-12.791A65.791,65.791,0,0,0,384.436,4066.883Z" transform="translate(-318.631 -3935.272)"/><path class="c" d="M313.892,3957.335a65.587,65.587,0,0,0,2.878,19.248c6.272,12.872,24.727,22.685,46.047,24.444a75.637,75.637,0,0,0,17.07-.476v-28.189a26.142,26.142,0,0,1-19.909-6.463,32.13,32.13,0,0,1-2.682-45.307,39.2,39.2,0,0,1,22.592-12.586v-16.472c-.064,0-.127,0-.191,0A65.88,65.88,0,0,0,313.892,3957.335Z" transform="translate(-313.892 -3891.529)"/></g></g></svg>