<svg xmlns="http://www.w3.org/2000/svg" width="496.408" height="415.446" viewBox="0 0 496.408 415.446"><defs><style>.a{fill:#6e2901;}</style></defs><path class="a" d="M4072.289,2567.125a2.274,2.274,0,0,0-1.184-1.453,8.372,8.372,0,0,0-5.12-.174,17.521,17.521,0,0,0-4.008,1.847,50.081,50.081,0,0,0-7.846,5.141c-4.568,3.5-7.91,2.836-7.91,2.836l.209-.62s1.65-5.082,2.094-6.476c.469-1.477-.211-4.318-.365-4.923a1.536,1.536,0,0,1-.043-.255s-1.556-17.568-1.561-17.616c-.089-1.006-1.184-1.523-2.148-1.571a2.108,2.108,0,0,0-1.206.371c.185-.186.346-.579-.239-1.341-1.167-1.522-2.914.058-4.746,1.155-1.781,1.065-8.615,9.792-10.6,11.5-.55.471-3.306,3.177-6.1,3.218s-4.273.264-9.044,2.294c-4.613,1.962-4.779,5.207-6.541,5.976s-4.206-.378-9.375-1.484-19.868-8.558-25.92-13.064-11.692-8.873-20.217-16.355c-3.909-3.429-9.541-4.5-13.244-8.161-3.266-3.227-4.723-9.047-6.263-13.294-1.98-5.457.005-1.379-2.845-14.085-2.859-12.744-7.361-22.621-6.477-35.91.943-14.179-1.192-29.251-8-41.88-3.927-7.289-9.75-13.855-17.55-17.061-8.577-3.525-18.462-2.108-27.054-5.38-5.3-2.021-7.48-5.408-10.629-7.386s-10.293-13.9-10.391-15.455q-.281-4.451-.556-8.9-.132-2.177-.262-4.353c-.063-1.087-.451-2.57.426-3.44,1.4-1.468,4.248-2.959,5.954-5.639,3.386-5.321,3.876-11.511,5.43-12.075s2.964-3.971,4.584-8.467a38.028,38.028,0,0,0,1.844-13.249c-.02-1.38-.427-3.2-1.616-3.756a2.215,2.215,0,0,1-1.425-1.994c.209-11.309.073-21.867-2.458-33.133-4.024-17.917-28.908-20.869-42.732-18.491-12.938,2.226-23.434,10.341-26.93,23.013a53.2,53.2,0,0,0-1.522,16.916c.063,1.177,1.713,15.833,2.305,15.639a19.054,19.054,0,0,0-2.55.735c-1.156.571-.968,1.424-1,2.6-.069,2.558-.075,5.121.1,7.675.381,5.515,1.4,12.2,6.076,15.529,1.624,1.157,1.378,3.663,1.88,5.4a14.776,14.776,0,0,0,3.585,6.16c3.762,3.894,3.251,2.03,3.71,3.843s.671,14.073-.173,18.622-8.274,12.85-12.479,16.714a47.228,47.228,0,0,1-7.978,5.892,1.838,1.838,0,0,1-.672.233c-1.35.2-6.211.907-7.582,1.022-8.767.734-18.216-1.145-24.572,6.39-4.68,5.548-9.132,11.437-12.037,18.133-2.985,6.879-3.554,14.434-3.981,21.829a115.365,115.365,0,0,0,.368,15.536c.2,2.578.433,5.154.639,7.731.658,8.238-3.646,15.45-5.33,23.465-1.9,9.028-1.646,15.72-3.252,20.685-1.433,4.43-1.611,9.568-4.111,13.574-2.518,4.033-6.97,6.551-10.662,9.358a182.608,182.608,0,0,1-17.637,11.842l-18.088,10.705a1.8,1.8,0,0,1-.185.1c-1.377.628-17.983,8.2-18.908,8.164a19,19,0,0,0-3.443.619,4.63,4.63,0,0,1-1.373.091l-4.2-.161a2.069,2.069,0,0,1-1.489-.756c-6.5-7.662-18.71-6.143-24.062-14.2-.309-.486-10.513-10.827-10.513-10.827-1.406-1.053-4.379-.248-4.994.317-2.159,1.988-2.341,8.819-2.558,11.476-.22,2.7-1.723,7.955-.81,10.548.068.173,1.627,7.456,1.627,7.456l-2.173-.781a4.227,4.227,0,0,0-1.521-.247l-2.975.063a1.115,1.115,0,0,1-.61-.164l-.683-.418-10.786-4.819a2.045,2.045,0,0,0-.81-.177l-4.814-.057a3.749,3.749,0,0,0-3.5,2.307,10.892,10.892,0,0,0-.532,1.445.5.5,0,0,0,0,.1,1.96,1.96,0,0,0,1.912,1.656l3.5.114a2.061,2.061,0,0,1,.923.246,3.939,3.939,0,0,0,.889.4c.336.053,4.235,1.671,4.235,1.671l.151,1.139s-2.875,1.308-2.959,2.886.719,1.5.719,1.5l2.532.527c3.95.822,10.139.84,13.261,4.152a3.574,3.574,0,0,0,1.556,1.034c1.414.421,3.983,1.126,5.076,1.424a2.017,2.017,0,0,1,.9.522l1.094,1.09c1.663,1.656,1.835,4.523,5.087,4.3,2.5-.175,4.913-1.252,7.47-1.925a38.917,38.917,0,0,1,7.4-1.211,2.057,2.057,0,0,1,1.948,2.986c-2.226,4.333-4.512,8.452-5.416,13.436-.974,5.37,4.129,18.012,8.07,21.477a175.883,175.883,0,0,0,16.218,12,20.266,20.266,0,0,0,6.526,3.252,1.8,1.8,0,0,1,.91.519c1.412,1.45,6.564,6.532,17.189,14.809,12.033,9.374,29.27,12.968,31.1,13.33a1.828,1.828,0,0,0,.334.034l14.447.328,187.536,3.739a2.183,2.183,0,0,0,.4-.03c17.3-2.9,33.6-7.241,49.71-14.3a1.881,1.881,0,0,0,.409-.243c1.415-1.1,10.505-8.125,13.369-9.323s6.975-7.253,7.619-8.221a1.89,1.89,0,0,1,.205-.257l2.695-2.869c.029-.03.058-.06.088-.088l5.949-5.6a2.04,2.04,0,0,1,.283-.223l11.258-7.359c9.128-4.07,17.6-17.072,14.587-27.259l-.537-1.813a2.056,2.056,0,0,0-.217-.489l-6.188-10.1a2.045,2.045,0,0,1,2.215-3.058l7.093,1.677a2.043,2.043,0,0,1,.987.555l8,8.119a2.634,2.634,0,0,0,1.307.8l10.028,1.959s2.646.479,3.364-.142c.354-.306.831-.825.831-.825s.48-1.584-2.337-2.336c-1.958-.523-3.9-.914-4.866-1.1a2.017,2.017,0,0,1-1.076-.584l-2.834-2.923,4.769.392c.044,0,.088.009.13.015l6.126.9a3.359,3.359,0,0,0,1.131.1l3.772-.3s17.773-1.045,18.834-1.325,1.325-1.6,1.149-2.893-2.476-2-2.888-2.131c-.376-.119-15.865-.424-18.618-.478a1.4,1.4,0,0,1-.765-.244s-.547-.206-.547-.371c0-.379,1.263-.84,1.263-.84s7.436-3.567,7.928-3.643,2.75-2.5,6.952-5.561,7.082-5.483,7.524-5.817,1.855-.381,3.073-.971S4072.6,2568.214,4072.289,2567.125Zm-452.043,5.41c-.195,1.461-.725,4.846-1.56,5.727-1.073,1.134-4.619-.569-4.619-.569l-.827-.279-2.035-9.32-.434-12.831,9.172,14.174A10.132,10.132,0,0,1,3620.246,2572.536Zm156.249-18.933c-4.343,5.908-15.058,19.589-16.666,37.607,0,0-.089,6.6-1.632,7.9-2.147,1.809-9.986.33-11.226-.089s-22.373-2.567-22.373-2.567l-23.953-4.229-8.689-.447-15.288-6.265s37.824-6.755,49.165-14.163c5.957-3.89,12.984-5.749,19.138-9.28,2.485-1.426,4.659-3.023,5.885-5.8,1.085-2.472.809-6.032,1.485-8.557,1.568-5.851,6.4-11.008,8.41-16.981,1.076-3.2,1.97-6.456,2.741-9.74.515-2.195,6.489-27.1,6.363-32.053-.075-.467-.12-.744-.12-.745a1.862,1.862,0,0,1,.12.745c.926,5.732,7.089,44.172,8.6,57.208A10.515,10.515,0,0,1,3776.495,2553.6Zm202.019,28.361c-5.1.257-24.041,9.842-36.457,10.072s-18.646,5.861-30.93,7.655c-3.528.515-11.484,1.585-15.014,2.058a1.8,1.8,0,0,1-2.019-1.5c-.7-4.37-2.54-15.733-3.418-19.293-3.391-13.761-14.861-19.117-15.8-26.671s14.037-64.254,14.037-64.254,3.369,21.257,5.4,30.921,8.494,15.482,11.237,19.907c1.71,2.758,1.721,6.4,3.244,8.987,1.609,2.737,4.415,3.391,7.191,4.595,7.436,3.225,12.79,10.232,23.945,14.965S3983.618,2581.708,3978.514,2581.964Zm61.776-11.562c-.277,1.2-.467,2.17-.595,2.909-.186,1.069-1.967,2.3-1.967,2.3s-.417.316-.577.294c-1.183-.167-2.653-2.477-3.231-3.523-2.889-2.183-2.171-7.959-.843-9.574.248-.3,1.719-3.1,1.719-3.1s3.772-4.179,6.507-7.363l.291,1.577.992,11.385A14.458,14.458,0,0,0,4040.289,2570.4Z" transform="translate(-3575.957 -2263.299)"/></svg>