<svg xmlns="http://www.w3.org/2000/svg" width="74.241" height="39.546" viewBox="0 0 74.241 39.546"><g transform="translate(-1090 -3681.537)"><rect width="74.241" height="39.546" transform="translate(1090 3681.537)" fill="#af5c2c"/><path d="M810.132,452.267v9.968H808.62V455.4l-1.41,6.837h-1.054l-1.41-6.837v6.837h-1.479v-9.968H805.4l1.309,6.367,1.253-6.367Z" transform="translate(298.144 3235.848)" fill="#fff"/><path d="M809.988,460.028h-1.625l-.327,2.208h-1.509l1.652-9.968H810.2l1.652,9.968h-1.538Zm-.2-1.452-.613-4.172-.613,4.172Z" transform="translate(302.908 3235.848)" fill="#fff"/><path d="M809.162,452.267h2.365a2.224,2.224,0,0,1,2.363,2.38v5.211a2.224,2.224,0,0,1-2.363,2.378h-2.365Zm2.294,8.546a.847.847,0,0,0,.925-.925v-5.27a.847.847,0,0,0-.925-.925h-.785v7.121Z" transform="translate(306.758 3235.848)" fill="#fff"/><path d="M811.7,452.267h4.285v1.425H813.2v2.776h2.208v1.425H813.2v2.919h2.776v1.422H811.7Z" transform="translate(310.46 3235.848)" fill="#fff"/><path d="M822.775,452.267l-1.467,9.968h-1.667l-.8-6.564-.8,6.564h-1.666l-1.467-9.968h1.524l.827,6.737.824-6.737h1.538l.827,6.737.827-6.737Z" transform="translate(315.164 3235.848)" fill="#fff"/><path d="M818.585,452.267h1.509v9.968h-1.509Z" transform="translate(320.528 3235.848)" fill="#fff"/><path d="M819.671,452.267h4.814v1.425h-1.651v8.543h-1.509v-8.543h-1.654Z" transform="translate(322.115 3235.848)" fill="#fff"/><path d="M822.1,462.235v-9.968h1.509v4.2h1.8v-4.2h1.509v9.968H825.4v-4.342h-1.8v4.342Z" transform="translate(325.663 3235.848)" fill="#fff"/><path d="M803.917,462.071v-.842a.914.914,0,1,0-1.824,0v5.44a.915.915,0,1,0,1.824,0V464.9h-.911v-1.423h2.419v3.187a2.421,2.421,0,0,1-4.841,0v-5.44a2.421,2.421,0,0,1,4.841,0v.842Z" transform="translate(294.223 3245.426)" fill="#fff"/><path d="M803.145,458.881h1.509v9.968h-1.509Z" transform="translate(297.966 3245.513)" fill="#fff"/><path d="M807.817,468.849l-1.1-4.115h-.785v4.115h-1.509v-9.968h2.365a2.224,2.224,0,0,1,2.363,2.378v1.1a2.254,2.254,0,0,1-1.041,2.033l1.27,4.46Zm-1.88-5.54h.785a.848.848,0,0,0,.926-.928v-1.152a.847.847,0,0,0-.926-.925h-.785Z" transform="translate(299.84 3245.513)" fill="#fff"/><path d="M808.046,466.713V461.19a2.364,2.364,0,1,1,4.728,0v1.167h-1.479V461.19a.872.872,0,1,0-1.738,0v5.523a.872.872,0,1,0,1.738,0V465.29h1.479v1.423a2.364,2.364,0,1,1-4.728,0Z" transform="translate(305.127 3245.426)" fill="#fff"/><path d="M810.5,466.669v-5.44a2.422,2.422,0,0,1,4.844,0v5.44a2.422,2.422,0,0,1-4.844,0Zm3.335,0v-5.44a.914.914,0,1,0-1.824,0v5.44a.915.915,0,1,0,1.824,0Z" transform="translate(308.709 3245.426)" fill="#fff"/><path d="M820.748,458.881l-1.467,9.968h-1.669l-.8-6.567-.8,6.567h-1.666l-1.47-9.968h1.524l.827,6.737.827-6.737H817.6l.824,6.737.827-6.737Z" transform="translate(312.197 3245.513)" fill="#fff"/><path d="M820.994,462.071v-.842a.914.914,0,1,0-1.824,0v5.44a.914.914,0,1,0,1.824,0V464.9h-.913v-1.423H822.5v3.187a2.422,2.422,0,0,1-4.844,0v-5.44a2.422,2.422,0,0,1,4.844,0v.842Z" transform="translate(319.175 3245.426)" fill="#fff"/><path d="M820.22,468.849v-9.968h1.511v4.2h1.794v-4.2h1.509v9.968h-1.509v-4.344h-1.794v4.344Z" transform="translate(322.917 3245.513)" fill="#fff"/><path d="M822.845,458.881h4.285V460.3h-2.776v2.779h2.208v1.423h-2.208v2.922h2.776v1.423h-4.285Z" transform="translate(326.753 3245.513)" fill="#fff"/><path d="M825.1,458.881h4.288V460.3H826.61v2.779h2.208v1.423H826.61v2.922h2.776v1.423H825.1Z" transform="translate(330.047 3245.513)" fill="#fff"/></g></svg>