<svg xmlns="http://www.w3.org/2000/svg" width="75.887" height="75.887" viewBox="0 0 75.887 75.887"><path d="M1465.642,4927.588q-4.661,4.417-4.661,9.866t4.661,9.866q4.663-4.417,4.663-9.866T1465.642,4927.588Z" transform="translate(-1427.59 -4917.832)" fill="#af5c2c"/><path d="M1472.244,4954.924q-3.724,3.723-2.9,10.576a14.469,14.469,0,0,0,13.481-13.48Q1475.966,4951.2,1472.244,4954.924Z" transform="translate(-1430.595 -4926.72)" fill="#af5c2c"/><path d="M1472.244,4975.1q-3.724,3.723-2.9,10.575a14.466,14.466,0,0,0,13.481-13.479Q1475.966,4971.378,1472.244,4975.1Z" transform="translate(-1430.595 -4934.103)" fill="#af5c2c"/><path d="M1472.244,4994.935q-3.724,3.723-2.9,10.577a14.468,14.468,0,0,0,13.481-13.481Q1475.966,4991.212,1472.244,4994.935Z" transform="translate(-1430.595 -4941.361)" fill="#af5c2c"/><path d="M1446.169,4952.021a14.467,14.467,0,0,0,13.48,13.48q.817-6.853-2.905-10.576T1446.169,4952.021Z" transform="translate(-1422.17 -4926.72)" fill="#af5c2c"/><path d="M1446.169,4972.2a14.464,14.464,0,0,0,13.48,13.479q.817-6.853-2.905-10.575T1446.169,4972.2Z" transform="translate(-1422.17 -4934.103)" fill="#af5c2c"/><path d="M1446.169,4992.03a14.467,14.467,0,0,0,13.48,13.481q.817-6.855-2.905-10.577T1446.169,4992.03Z" transform="translate(-1422.17 -4941.361)" fill="#af5c2c"/><path d="M1446.26,4912.2a37.944,37.944,0,1,0,37.944,37.943A37.944,37.944,0,0,0,1446.26,4912.2Zm0,71.55a33.468,33.468,0,0,1-21.7-7.955l7.033-7.034a17.391,17.391,0,0,1-1.334-4.8l-8.826,8.825a33.606,33.606,0,0,1,47.476-47.477l-9.889,9.889q.87.036,1.78.145l2.085.249-.178,2.053,9.208-9.208a33.6,33.6,0,0,1-25.652,55.309Z" transform="translate(-1408.317 -4912.2)" fill="#af5c2c"/></svg>