<svg xmlns="http://www.w3.org/2000/svg" width="42.49" height="68.217" viewBox="0 0 42.49 68.217"><path d="M1201.23,5050.557a21.245,21.245,0,0,0,21.245-21.245c0-15.513-12.757-24.119-20.546-46.125-.4-1.129-1-1.129-1.4,0-7.788,22.006-20.546,30.612-20.546,46.125A21.245,21.245,0,0,0,1201.23,5050.557Zm-15.55-30.613c.621-1.556.886-1.453.649.2a27.722,27.722,0,0,0-.281,3.957,19.647,19.647,0,0,0,23.8,19.187c1.636-.356,1.891.049.462.923a17.451,17.451,0,0,1-26.54-14.9A24.752,24.752,0,0,1,1185.681,5019.943Z" transform="translate(-1179.985 -4982.339)" fill="#af5c2c"/></svg>