<svg xmlns="http://www.w3.org/2000/svg" width="62.114" height="60.852" viewBox="0 0 62.114 60.852"><path d="M710.1,5067.9a33.277,33.277,0,0,1-21.943,0v6.605H710.1Z" transform="translate(-668.068 -5013.651)" fill="#af5c2c"/><path d="M705.69,5007.758a11.714,11.714,0,0,0,1.984-6.446,11.833,11.833,0,0,0-5.41-10.02,11.834,11.834,0,0,0-5.581,9.925.967.967,0,0,1-.12.458,13.719,13.719,0,0,1,3.539,6.084Z" transform="translate(-671.146 -4985.616)" fill="#af5c2c"/><path d="M686.173,5006.867a11.828,11.828,0,0,0-11.245-1.785,11.765,11.765,0,0,0,1.773,7.468h13.449A11.806,11.806,0,0,0,686.173,5006.867Z" transform="translate(-663.207 -4990.408)" fill="#af5c2c"/><path d="M739.351,4983.841a1.886,1.886,0,0,0-1.165-1.132l-.784-.267a1.887,1.887,0,0,0-2.149.689l-15.394,21.351H728.1l11.112-19.021A1.889,1.889,0,0,0,739.351,4983.841Z" transform="translate(-679.671 -4982.34)" fill="#af5c2c"/><path d="M665.56,5041.313a31.072,31.072,0,0,0,53.028-21.006H656.474A30.855,30.855,0,0,0,665.56,5041.313Z" transform="translate(-656.474 -4996.235)" fill="#af5c2c"/></svg>