<svg xmlns="http://www.w3.org/2000/svg" width="68.554" height="62.714" viewBox="0 0 68.554 62.714"><path d="M937.883,5080.4c-3.554,0-8.379,3.277-9.925,4.409-1.546-1.131-6.371-4.409-9.925-4.409a13.811,13.811,0,0,0-13.8,13.8c0,3.163,3.924,9.787,11.634,19.689,5.678,7.294,11.449,13.78,11.494,13.849a.862.862,0,0,0,.6.277.745.745,0,0,0,.6-.277c.046-.069,5.817-6.555,11.495-13.849,7.71-9.9,11.633-16.526,11.633-19.689A13.826,13.826,0,0,0,937.883,5080.4Z" transform="translate(-904.229 -5069.879)" fill="#af5c2c"/><path d="M999.851,5069.367h-2.723v-2.724a2.839,2.839,0,1,0-5.678,0v2.724h-2.724a2.839,2.839,0,1,0,0,5.678h2.7v2.724a2.839,2.839,0,0,0,5.678,0v-2.724h2.724a2.839,2.839,0,0,0,.023-5.678Z" transform="translate(-934.113 -5063.804)" fill="#af5c2c"/><path d="M983.047,5133.617h-4.294v-4.294a3.739,3.739,0,0,0-7.478,0v4.294h-4.293a3.739,3.739,0,1,0,0,7.479h4.293v4.293a3.739,3.739,0,1,0,7.478,0V5141.1h4.294a3.739,3.739,0,0,0,0-7.479Z" transform="translate(-925.826 -5086.414)" fill="#af5c2c"/></svg>