<svg xmlns="http://www.w3.org/2000/svg" width="63.996" height="67.093" viewBox="0 0 63.996 67.093"><path d="M466.619,4941.983c-2.827-2.827-9.029-2.064-15.8,1.943a.842.842,0,0,1-1.266-.646c-.611-6.508-2.307-12.431-4.778-16.676-2.407-4.136-5.4-6.413-8.435-6.413s-6.028,2.277-8.435,6.413c-2.47,4.245-4.167,10.168-4.777,16.676a.844.844,0,0,1-1.267.646c-6.773-4.006-12.974-4.769-15.8-1.943-2.026,2.025-2.27,5.665-.684,10.245a40.139,40.139,0,0,0,9.666,14.515c6.475,6.476,14.031,10.563,19.612,10.689v-7.162l-14.827-11.533a.841.841,0,1,1,1.033-1.328l13.793,10.728v-7.968l-8.334-6.482a.842.842,0,0,1,1.033-1.33l7.3,5.678v-6.285l-4-3.114a.842.842,0,1,1,1.033-1.329l2.97,2.311v-6.7a.842.842,0,0,1,1.684,0v6.7l2.971-2.311a.842.842,0,1,1,1.033,1.329l-4,3.114v6.285l7.3-5.678a.842.842,0,0,1,1.034,1.33l-8.334,6.482v7.968l13.795-10.728a.841.841,0,1,1,1.033,1.328l-14.828,11.533v6.65h-1.683v9.523a.842.842,0,0,0,1.684,0v-9.007c8.39,0,15.535-4.931,21.3-10.692a40.152,40.152,0,0,0,9.666-14.515C468.887,4947.647,468.644,4944.008,466.619,4941.983Z" transform="translate(-404.341 -4920.191)" fill="#af5c2c" fill-rule="evenodd"/></svg>