<svg xmlns="http://www.w3.org/2000/svg" width="1956.639" height="335.284" viewBox="0 0 1956.639 335.284"><defs><style>.a{opacity:0.29;}.b{fill:#6f7d62;}.c{fill:#f7f2e9;}.d{fill:#78876a;}.e{fill:#6a785e;}.f{fill:#637058;}.g{fill:#f0e0cc;}.h{fill:#e6ccaa;}.i{fill:#e0caac;}.j{fill:#c79854;}.k{fill:#2a2a30;}</style></defs><g class="a" transform="translate(0 0)"><g transform="translate(258.918 110.436) rotate(90)"><path class="b" d="M106.554,26.608c-6.351,5.277-14.819,6.022-23.01,6.743-6.024.529-12.252,1.077-17.736,3.388l-.438.185a.486.486,0,0,0-.292.478.481.481,0,0,0,.36.43l.461.118c7.088,1.816,14.351.9,21.375.016,7.3-.92,14.211-1.79,20.772.218-3.036,3.476-6.032,7.071-8.934,10.554-3.327,3.992-6.7,8.04-10.186,11.966H0V0C7.686,2.753,15.475,5.585,23.32,8.555q4.746,1.8,9.512,3.66l1.117.431.318.122.8.308.371.141.764.291.329.125.812.307.3.115.838.315.324.121.814.3.359.133.8.294.341.126.812.3.349.127.812.295.343.123.822.3.342.122.823.291.349.123.826.29.344.119.831.287.341.117.843.287.336.113.842.283.347.116.836.276.354.116.833.271.356.114.838.267.353.111.84.263.358.111.836.256.367.111.831.25.371.11.832.244.372.108.833.239.372.105.838.234.37.1.835.228.376.1.839.222.371.1.837.215.378.1.838.208.375.093.842.2.373.089.844.2.374.086.848.189.368.081c.285.062.571.122.856.183l.362.077.864.176.355.072q.441.087.882.172l.337.065q.452.085.9.166l.317.058c.308.055.615.109.923.161l.3.052q.481.082.963.158l.257.042q.518.083,1.037.159l.183.028q2.452.362,4.9.614l.19.018c.341.034.682.067,1.023.1l.356.03c.286.024.572.049.858.071l.425.031c.263.019.526.039.788.055l.469.028c.248.015.5.03.743.043l.5.023c.237.011.475.023.713.031.172.007.345.012.517.017.231.008.463.016.694.022l.533.01c.225,0,.45.009.674.011.183,0,.366,0,.549,0q.329,0,.658,0c.185,0,.37,0,.554,0,.218,0,.436,0,.653-.008l.556-.013c.217-.005.433-.01.649-.017l.562-.021c.213-.008.427-.016.64-.027l.566-.03.636-.037c.189-.012.378-.025.567-.039.211-.015.422-.03.632-.047l.567-.047.63-.056.567-.057.628-.067.565-.066.629-.078.56-.075.63-.089.558-.084c.21-.032.42-.065.63-.1q.278-.045.555-.094l.63-.111.551-.1q.316-.06.631-.124.273-.054.546-.112l.295-.061A15.182,15.182,0,0,1,106.554,26.608Z" transform="translate(0 198.214)"/><path class="c" d="M0,1.406Q2.372,2.479,4.717,3.545C16.833,9.05,28.278,14.25,40.654,18.43a.588.588,0,0,0,.128.024c7.09.653,15.125,1.393,19.483,8.239a5.178,5.178,0,0,1,.548,3.259c-.854,4.785-9.6,8.24-15.268,7.228A186.045,186.045,0,0,1,0,23.709v1.4A186.9,186.9,0,0,0,45.333,38.443c6.459,1.153,15.738-2.649,16.741-8.267a6.459,6.459,0,0,0-.683-4.095.4.4,0,0,0-.023-.041c-4.689-7.391-13.025-8.177-20.393-8.855C28.7,13.036,17.308,7.859,5.235,2.373Q2.638,1.193,0,0Z" transform="translate(0 210.082)"/><path class="d" d="M13.566,16.178c.325.061.6.114.831.155a192.151,192.151,0,0,1,21.8,5.743c9.974,3.051,20.283,6.2,30.883,6.813,2.727.156,5.331.188,7.849.219,6.143.075,11.936.146,18.434,1.975A131.592,131.592,0,0,0,111.8,35.29c.991-4.229,1.984-7.868,3.1-11.363l-.6-.039-.826-.054q-.525-.036-1.05-.075l-.813-.061q-.534-.042-1.067-.086l-.8-.066-1.085-.1-.777-.07-1.11-.105-.746-.072-1.153-.115-.7-.07-1.277-.131-.557-.057-1.805-.189c-2.494-.261-5.014-.524-7.553-.758a150.98,150.98,0,0,0-16.968-.766,34.408,34.408,0,0,1-13.962-1.722c-.094-.033-.186-.071-.28-.1q-1.337-.486-2.63-1.1c-.92-.433-1.827-.908-2.716-1.436q-3.513-1.912-6.911-3.6C30.2,3.528,13.657-.817,0,.126v14.6A65.52,65.52,0,0,1,13.566,16.178Z" transform="translate(0 140.323)"/><path class="d" d="M113.159,30.465l-1.488-.3-1.451-.29-1.338-.264-1.626-.32-1.033-.2-1.921-.373-.6-.114c-2.913-.561-5.817-1.113-8.693-1.657l-2.274-.43c-9.321-1.762-18.715-3.537-28.076-5.541l-.031-.007q-.894-.191-1.788-.386l-.093-.02q-.863-.188-1.725-.378l-.157-.035q-.843-.187-1.686-.376l-.191-.043q-.826-.186-1.651-.375l-.226-.051q-.8-.184-1.6-.372l-.272-.063q-.788-.184-1.576-.372l-.3-.07q-.773-.184-1.544-.372l-.329-.079q-.761-.185-1.521-.374l-.346-.085q-.744-.185-1.486-.373l-.384-.1q-.732-.186-1.464-.375l-.4-.1q-.723-.187-1.445-.379l-.417-.11q-.717-.19-1.433-.384l-.423-.114q-.7-.191-1.406-.386l-.453-.125q-.69-.192-1.379-.387l-.474-.134q-.679-.193-1.356-.39l-.493-.143q-.669-.2-1.336-.394l-.51-.151q-.662-.2-1.322-.4l-.516-.157q-.657-.2-1.313-.406L31.1,12.35q-.646-.2-1.291-.41l-.545-.174q-.635-.2-1.268-.413l-.559-.183q-.629-.208-1.256-.419l-.566-.19q-.623-.211-1.244-.426l-.574-.2q-.615-.214-1.228-.432L21.982,9.3q-.608-.217-1.215-.438l-.594-.216q-.6-.219-1.2-.443l-.609-.227q-.591-.222-1.181-.449l-.614-.236q-.584-.226-1.167-.456l-.627-.247q-.576-.229-1.15-.461L13,5.868q-.57-.232-1.138-.469l-.641-.267q-.561-.235-1.12-.474l-.654-.279Q8.889,4.141,8.337,3.9l-.657-.288q-.548-.242-1.093-.488l-.668-.3q-.538-.244-1.075-.493l-.678-.314q-.531-.248-1.061-.5L2.42,1.186Q1.9.934,1.374.678L.683.34,0,0V8.521Q1.153,9,2.309,9.479c7.4,3.053,14.893,6,22.544,9C36.09,22.9,47.7,27.458,59.435,32.562q1.508.651,3.031,1.272c.338.138.681.268,1.021.4.679.271,1.358.545,2.042.807.408.156.82.3,1.23.457.621.232,1.239.467,1.864.692.446.16.9.311,1.344.468.594.208,1.187.42,1.785.621.468.157.941.306,1.412.459.583.19,1.164.384,1.751.568.486.152.977.3,1.465.444.578.176,1.154.355,1.736.524.5.145,1,.281,1.5.421.579.163,1.156.33,1.739.487.51.138,1.026.266,1.539.4.579.15,1.156.3,1.739.449.52.129,1.046.25,1.569.375.583.139,1.163.282,1.75.415.532.121,1.07.234,1.606.35.585.128,1.167.258,1.755.381.545.113,1.1.218,1.646.326.586.116,1.169.236,1.759.346.556.1,1.119.2,1.679.3.59.105,1.178.214,1.772.314.567.1,1.141.184,1.713.275.594.095,1.186.193,1.785.283.579.087,1.165.166,1.748.248.6.085,1.195.172,1.8.252s1.188.148,1.783.222,1.2.152,1.813.222,1.211.131,1.818.2c.53.056,1.058.114,1.591.167a80.07,80.07,0,0,0,3.066-12.228l.014-.069q.238-1.2.481-2.41l-1.266-.259Z" transform="translate(0 170.505)"/><path class="b" d="M108.5,36.691c-.631-.073-1.256-.152-1.883-.23-.574-.071-1.149-.141-1.719-.217-.633-.084-1.261-.175-1.889-.265-.555-.079-1.113-.156-1.665-.239-.636-.1-1.266-.2-1.9-.3-.536-.086-1.075-.17-1.608-.26-.64-.109-1.274-.225-1.91-.339-.517-.093-1.037-.183-1.551-.28-.642-.121-1.277-.25-1.915-.377-.5-.1-1-.2-1.5-.3-.644-.134-1.283-.276-1.922-.417-.484-.106-.97-.209-1.451-.319-.646-.148-1.287-.3-1.928-.458-.468-.112-.939-.221-1.405-.337-.647-.161-1.287-.33-1.929-.5-.454-.118-.911-.234-1.364-.355-.648-.175-1.29-.36-1.934-.542-.44-.125-.883-.244-1.32-.372-.649-.189-1.293-.388-1.937-.585-.426-.13-.855-.255-1.28-.388-.653-.2-1.3-.42-1.947-.632-.41-.134-.824-.264-1.232-.4-.663-.223-1.32-.456-1.979-.688-.388-.136-.779-.268-1.166-.407-.683-.246-1.361-.5-2.039-.757-.357-.134-.717-.263-1.072-.4-.735-.282-1.465-.575-2.194-.867-.294-.118-.591-.23-.885-.35q-1.531-.624-3.048-1.279C47.215,18.736,35.611,14.178,24.39,9.769,16.1,6.513,8,3.328,0,0V16.442c10.936,3.913,22.078,7.979,33.3,12.383,8.912,3.443,18.339,6.9,27.951,9.566l.025.007q.582.161,1.164.318l.04.011q.557.151,1.116.3l.094.025q.542.142,1.084.28l.126.032q.522.133,1.045.261l.167.042q.519.128,1.038.251l.172.041q.506.12,1.011.236l.2.047q.492.112.986.221l.229.051q.481.106.963.207l.253.055c.31.065.62.128.931.192l.287.059q.456.092.912.179l.3.06c.3.057.6.113.9.168l.314.058q.444.08.887.157l.33.058c.29.05.58.1.869.145l.349.057c.281.045.561.088.842.131l.378.058c.274.041.549.08.823.119l.394.056c.273.038.545.073.818.109l.4.053c.268.034.535.066.8.1l.416.05c.261.03.523.058.785.086l.433.047c.257.027.513.051.77.076l.446.043c.253.023.506.044.76.065l.456.039c.25.02.5.037.75.055l.464.033c.246.016.492.03.738.045L88,43.1c.242.013.484.024.727.034.162.008.324.016.485.022.238.01.475.017.712.024l.5.016c.232.006.464.01.7.014.171,0,.342.007.513.009.231,0,.461,0,.692,0,.172,0,.343,0,.515,0,.23,0,.459,0,.688-.006l.517-.006c.226,0,.452-.01.679-.016.175,0,.351-.008.526-.014.223-.007.446-.016.669-.026.178-.007.356-.013.533-.022.222-.01.444-.024.665-.036.178-.01.355-.019.533-.031.221-.014.441-.03.661-.046.179-.013.358-.025.536-.039.217-.017.434-.037.651-.056.181-.016.363-.031.544-.048.216-.021.432-.044.647-.067.181-.019.362-.037.543-.057.216-.024.432-.051.648-.078l.541-.066c.214-.028.428-.059.642-.088l.543-.076c.213-.032.427-.066.64-.1l.542-.086c.213-.035.426-.073.638-.111.18-.031.36-.062.54-.1.213-.039.425-.081.637-.122.179-.035.359-.069.537-.105.212-.043.424-.089.636-.134.179-.039.358-.076.536-.115.212-.047.424-.1.635-.147l.431-.1a22.094,22.094,0,0,0,2.34-4.289c-.485-.049-.963-.106-1.446-.157C109.684,36.821,109.088,36.759,108.5,36.691Z" transform="translate(0 180.411)"/><path class="b" d="M19.063,35.312a.512.512,0,0,1-.063.035l-.043.02a.474.474,0,0,1-.066.025l-5.18,1.529c-2.834,2.016-4.316,5.2-5.75,8.288C6.187,49.021,4.347,52.953,0,55.045v1.778q.842-.7,1.718-1.355c.071-.053.144-.1.216-.154.2-.144.4-.289.6-.428.174-.121.351-.237.527-.354.1-.067.2-.137.3-.2q1.251-.815,2.558-1.5c.508-.29,1.024-.576,1.543-.86,6.416-3.513,13.653-6.641,20.671-9.672q2.315-1,4.635-2.01l.315-.137.481-.211.514-.225.348-.153.651-.287.237-.105.752-.334.219-.1.77-.345.188-.085.8-.361.162-.074.823-.376.138-.064L40,37.038l.145-.068.833-.389.118-.056.854-.4.11-.053.855-.411.118-.058q.423-.2.844-.411L44,35.13q.422-.208.842-.417l.109-.055q.422-.212.843-.425l.1-.053q.422-.215.841-.432l.105-.055q.418-.216.833-.435l.109-.058q.413-.219.825-.439l.1-.055q.412-.222.821-.446l.112-.062q.4-.222.8-.447l.114-.065q.4-.224.794-.45l.119-.069q.392-.226.782-.454l.119-.07q.388-.228.773-.46l.12-.073q.382-.231.762-.464l.126-.078q.375-.232.746-.466l.133-.084q.367-.233.73-.468l.137-.09q.359-.235.715-.471l.143-.1q.351-.236.7-.474l.144-.1q.345-.238.686-.479l.15-.107q.336-.238.668-.48l.156-.114q.328-.24.653-.483l.155-.118q.321-.243.639-.489l.16-.126q.313-.245.622-.492l.164-.133q.3-.245.6-.493l.17-.143q.3-.247.587-.5l.169-.147q.287-.249.571-.5l.177-.159q.277-.249.551-.5l.179-.167q.269-.251.534-.5l.182-.176q.26-.252.517-.507l.184-.185q.251-.252.5-.508l.188-.2q.241-.253.479-.509l.19-.208q.232-.254.461-.511l.192-.219q.223-.255.443-.513l.193-.23q.214-.255.425-.514c.065-.08.129-.161.194-.242q.2-.256.406-.515c.065-.084.13-.169.194-.254q.2-.257.388-.516c.066-.089.13-.178.2-.268q.186-.256.369-.516c.066-.094.131-.189.2-.283q.177-.256.35-.514c.066-.1.131-.2.2-.3q.167-.255.33-.512c.066-.1.131-.21.2-.315q.158-.255.312-.511c.066-.11.13-.22.194-.33.1-.17.2-.34.295-.512.065-.114.128-.23.192-.346q.14-.253.277-.51c.064-.121.127-.243.19-.364q.131-.252.258-.506c.063-.127.125-.254.187-.382q.122-.251.241-.505.093-.2.183-.4.113-.25.224-.5c.061-.14.12-.281.18-.422q.1-.247.206-.5.089-.219.175-.44.1-.245.189-.493.086-.231.17-.463c.058-.162.116-.324.173-.488s.11-.322.163-.484.106-.322.157-.484.1-.336.156-.505.1-.318.141-.479q.076-.264.148-.529c.023-.086.046-.173.069-.259A21.236,21.236,0,0,0,67.463,0C55.551,2.069,45.749,11.486,36.269,20.593,30.78,25.865,25.107,31.314,19.063,35.312Z" transform="translate(0 26.582)"/><path class="d" d="M22.055,1.311,21.62,1.7l-.4.365-.431.4-.383.358q-.214.2-.425.4l-.366.351-.424.413-.346.34q-.213.212-.422.423c-.11.11-.22.221-.329.332-.14.143-.279.286-.417.429-.1.109-.21.217-.313.325-.14.146-.277.292-.414.438-.1.106-.2.211-.3.317-.138.149-.275.3-.41.447l-.281.308c-.137.152-.272.305-.407.457-.088.1-.178.2-.265.3-.136.155-.269.311-.4.466-.084.1-.168.195-.251.292-.135.16-.268.319-.4.479-.077.093-.156.186-.233.279-.137.167-.272.334-.406.5-.07.087-.141.173-.21.259-.145.181-.286.363-.427.545-.056.073-.114.145-.17.217q-.294.381-.579.764c-.412.553-.8,1.117-1.181,1.686A56.037,56.037,0,0,0,5.8,23.78C4.7,26.5,3.732,29.25,2.782,31.967,1.9,34.49,1,37.046,0,39.575V53.9c.088-.141.175-.284.256-.433.006-.011.013-.023.02-.034a72.077,72.077,0,0,0,3.576-6.313,51.18,51.18,0,0,1,5.967-9.572c.009-.011.019-.022.03-.032,3.471-3.458,7.737-5.189,11.862-6.863,4.467-1.812,8.686-3.524,11.46-7.247.725-.869,1.439-1.737,2.164-2.621a129.788,129.788,0,0,1,8.8-9.986C37.756,9.738,32.813,7.933,29.043,5.3a29.271,29.271,0,0,1-5.5-5.3l-.2.174-.433.378L22.47.941Z" transform="translate(0 9.477)"/><path class="e" d="M0,45.447c.54-1.477,1.059-2.956,1.571-4.422,1.974-5.648,4-11.449,7.2-16.788a43.041,43.041,0,0,1,2.412-3.615q.291-.391.592-.78c.048-.063.1-.125.147-.188.153-.2.306-.393.463-.59.063-.079.128-.157.191-.236.144-.18.289-.359.437-.539l.218-.261c.142-.171.284-.342.429-.512.078-.092.159-.185.238-.277.142-.165.283-.33.427-.495.084-.1.17-.192.255-.288.143-.161.285-.322.431-.483.088-.1.179-.2.268-.294.145-.159.29-.318.437-.476l.282-.3c.147-.156.293-.312.442-.468.1-.1.2-.208.3-.312.147-.152.293-.3.442-.455l.318-.321c.148-.149.3-.3.448-.448l.333-.328c.149-.146.3-.292.45-.439l.356-.341q.223-.213.449-.426l.374-.35.453-.419.393-.359.455-.411.412-.367.459-.4.429-.375.222-.193c-.393-.484-.78-.969-1.161-1.448C17.174,1.523,13.7-2.833,7.232,2.259A28.072,28.072,0,0,0,0,11.147Z" transform="translate(0 0)"/><path class="b" d="M161.953,1.385q-1.432.375-2.867.743c-.846.219-1.692.441-2.539.658-.753.193-1.508.383-2.263.575q-1.588.4-3.176.806l-1.217.3c-23.008,5.757-46.24,10.86-68.859,15.827-16.458,3.614-33.476,7.35-50.2,11.294l-.846.2a.467.467,0,0,1-.126.03c-1.745.412-3.37.8-4.9,1.165q-3.278.786-6.548,1.583Q9.4,36.7,0,38.82v9.687a63.5,63.5,0,0,1,13.747.659q1.772.268,3.6.627c11.751,2.319,25.09,7.515,39.716,15.474a31.6,31.6,0,0,0,18.9,4.193q.788-.016,1.575-.021a209.961,209.961,0,0,1,23.136,1.55c1.659.173,3.338.349,5.025.515l.463.046,1.147.11.732.07,1.029.092.853.076c.322.027.643.053.965.079.3.025.61.05.915.074s.611.045.917.068c.321.023.642.047.963.069.293.02.586.037.879.055l.755.045c1.184-3.566,2.513-7,4.058-10.488a28.944,28.944,0,0,1,2.43-4.361l-.066-.012c-.13-.023-.26-.043-.39-.065-.222-.037-.445-.075-.668-.11l-.429-.063c-.211-.031-.422-.063-.634-.092l-.452-.059c-.2-.027-.409-.054-.613-.078l-.462-.054c-.2-.023-.4-.046-.6-.067l-.465-.047q-.3-.03-.592-.058l-.462-.042-.584-.05-.455-.036-.579-.043-.437-.03-.58-.037-.413-.025-.586-.032-.381-.02-.592-.027-.344-.016-.611-.024-.288-.011-.635-.022-.23-.008-.667-.02-.155,0-.733-.019h-.04l-.509-.013-.227-.005c-3.88-.16-7.969-.029-12.292.114l-.27.009c-7.858.261-15.981.531-23.289-.941q-1.567-.315-3.024-.729a30.078,30.078,0,0,1-7.474-3.2,24.547,24.547,0,0,1-7.857-7.6l-.013-.017q-.12-.14-.225-.28c-.022-.03-.042-.059-.063-.089-.05-.071-.1-.142-.143-.213-.02-.032-.039-.064-.057-.1Q52.148,43.1,52.1,43c-.016-.031-.031-.063-.046-.094-.033-.072-.063-.145-.09-.217-.011-.028-.022-.056-.032-.084-.028-.083-.051-.166-.071-.248,0-.017-.01-.035-.014-.052A2.5,2.5,0,0,1,51.8,42c0-.026,0-.052,0-.078,0-.059-.009-.118-.008-.177,0-.01,0-.02,0-.03a2.321,2.321,0,0,1,.033-.353s0-.008,0-.013a2.36,2.36,0,0,1,.072-.287c.017-.053.038-.1.058-.153s.032-.086.051-.128c.029-.063.062-.124.1-.184.015-.027.028-.054.044-.08.04-.067.084-.131.13-.194.013-.019.026-.037.04-.056.05-.067.1-.131.16-.194l.04-.045c.058-.063.118-.124.181-.184l.05-.047c.061-.055.123-.11.188-.163l.081-.064c.056-.044.113-.087.172-.129s.094-.066.142-.1l.121-.079c.079-.05.16-.1.243-.146l.029-.017a13.317,13.317,0,0,1,4.953-1.4l.041,0,.2-.018.241-.021h.015a10.955,10.955,0,0,1,2.566.063c2.555.112,5.114.33,7.608.552l.77.068,1.7.15.235.02.585.05.326.028.5.041.363.029.476.038.356.027.485.036.348.025.491.033.339.022.517.031.306.018.608.032.211.011q.833.04,1.661.064l.146,0q.337.009.674.015l.222,0q.3,0,.6.006H81.5l.574,0,.259,0q.282,0,.564-.01L83.154,39q.286-.008.572-.019l.242-.01q.3-.013.6-.03l.216-.012q.323-.019.645-.044l.165-.012q.386-.03.772-.067l.036,0q.833-.08,1.664-.195l.052-.008q.375-.053.749-.112l.178-.03q.312-.051.624-.107l.23-.043c.191-.036.381-.073.572-.113l.257-.054q.273-.058.546-.121l.271-.063c.178-.042.356-.087.533-.132l.277-.072c.177-.047.354-.1.531-.146l.275-.078c.182-.053.364-.109.546-.165l.256-.079c.2-.064.4-.131.6-.2l.2-.067.041-.015-.021-.275a.48.48,0,0,1,.443-.516c.64-.049,1.306-.115,2.093-.207l.065-.028c.067-.028.131-.056.194-.085,1.966-.814,3.931-1.69,5.889-2.6q1.174-.544,2.344-1.1,2.251-1.074,4.481-2.183c1.735-.861,3.46-1.728,5.167-2.588l.616-.31c3.885-1.957,7.83-3.934,11.821-5.769l.247-.114c.393-.18.787-.357,1.18-.534l.433-.2c.355-.159.711-.314,1.067-.469.183-.08.366-.162.55-.241.321-.139.643-.274.964-.41.22-.093.439-.188.658-.28.289-.121.58-.238.87-.357.252-.1.5-.209.757-.31.27-.109.542-.213.812-.32s.544-.216.816-.321.521-.2.782-.294c.284-.106.567-.215.851-.319.26-.095.52-.185.78-.278.285-.1.569-.2.854-.3.265-.091.531-.178.8-.267s.538-.183.807-.271c.878-.537,1.688-1.026,2.455-1.484l.365-.217.355-.211.14-.146c.1-.11.211-.222.326-.335,4-3.906,8.706-6.2,13.26-8.428a70.129,70.129,0,0,0,9.305-5.15L167.183,0c-.977.262-1.957.519-2.936.778C163.482.98,162.719,1.185,161.953,1.385Z" transform="translate(0 90.699)"/><path class="d" d="M1.311,15.483c.152-.037.3-.076.455-.114q.384-.1.767-.2l.477-.13q.371-.1.74-.21l.477-.14q.371-.111.741-.228l.46-.144c.262-.084.523-.171.783-.258.134-.045.269-.089.4-.135q.5-.171,1-.351l.178-.063q.584-.212,1.163-.435l.363-.142c.266-.1.531-.207.8-.314l.45-.184c.234-.1.467-.193.7-.291q.24-.1.479-.2.335-.144.67-.291l.481-.213q.334-.149.668-.3c.157-.072.313-.143.469-.216q.346-.16.69-.325c.146-.069.292-.137.437-.207q.4-.191.792-.386l.324-.159q.549-.272,1.094-.551c.12-.061.238-.123.357-.185.249-.129.5-.257.746-.387l.454-.24q.325-.172.648-.346l.475-.257.623-.341.479-.265.619-.346.471-.265.639-.364.44-.252.706-.41.37-.215q.525-.307,1.047-.618l.328-.2.742-.444.445-.269.614-.372.491-.3.571-.349.5-.306.555-.342L30.2,1.9l.512-.317.551-.342.4-.247,1.6-1-.24.094q-1.1.438-2.2.9l-.242.1q-1.03.434-2.057.886l-.453.2q-1.1.488-2.2.993l-.359.166Q24.5,3.8,23.5,4.281l-.34.161q-1.108.528-2.211,1.066l-.412.2q-1.041.509-2.078,1.023l-.161.08q-1.134.563-2.262,1.13L15.6,8.16,13.47,9.232l-1.976.994-.45.226-1.638.82-.524.261Q6.839,12.55,4.774,13.549l-.529.253q-.782.375-1.566.744l-.579.272q-.974.455-1.95.9l-.112.051L0,15.786l.082-.017c.126-.028.251-.058.376-.086C.743,15.618,1.028,15.552,1.311,15.483Z" transform="translate(102.569 110.037)"/><path class="d" d="M104.4,16.292c-2.264.277-4.392.537-6.511.686-8.552.6-16.781.194-27.287-.661-8.511-.692-15.744-2.9-23.4-5.247-2.1-.642-4.251-1.3-6.461-1.937A69.643,69.643,0,0,0,26.353,7.052,72.389,72.389,0,0,1,12.266,5.071,84.119,84.119,0,0,1,0,0V2.392c.327.165.655.331.983.494l.5.245c.41.2.82.4,1.231.6.161.078.323.154.485.231q.626.3,1.253.6l.479.222q.632.294,1.266.585c.157.072.315.142.473.213q.639.29,1.279.576l.463.2q.648.286,1.3.568l.438.187q.664.285,1.329.566l.421.175q.675.283,1.352.561l.409.165q.685.279,1.372.553l.389.154q.7.276,1.4.549l.381.146c.47.181.94.362,1.411.54l.366.137q.716.269,1.433.534l.346.126q.727.265,1.455.527l.357.126q.726.258,1.453.513l.337.116q.737.256,1.476.508l.344.116q.737.249,1.474.495l.343.112q.739.243,1.48.484l.343.11q.742.238,1.486.474l.322.1q.755.236,1.512.469l.312.095q.762.233,1.526.463l.3.089q.769.23,1.539.456l.32.092q.761.222,1.524.44l.347.1q.75.213,1.5.423l.372.1q.739.205,1.479.407l.383.1q.737.2,1.475.4l.357.094q.749.2,1.5.394l.411.106q.727.188,1.454.374l.366.092q.748.19,1.5.376l.4.1q.735.182,1.47.362l.361.087q.752.183,1.5.363l.437.1q.718.171,1.436.339l.421.1q.724.169,1.449.336l.491.111,1.386.315.485.109,1.388.31.579.127,1.3.286.591.127,1.287.278.713.151,1.162.247.757.159,1.13.236.671.139,1.205.249.789.161,1.1.223.764.154,1.115.225,1.382.275.489.1,1.37.27.52.1,1.076.21.812.158,1.54.3.331.064,1.553.3.332.064q3.06.587,6.114,1.163l3.276.62.057.01,1.734.328c3.125.591,6.286,1.19,9.456,1.8l.306.059,2.048.4.919.179,1.728.34,1.231.243,1.534.306,1.415.284,1.416.288,1.217.248c1.188-5.663,2.807-12.022,6.582-17.135C116.877,14.765,110.536,15.541,104.4,16.292Z" transform="translate(0 166.677)"/><path class="d" d="M87.339.726l-1.047.648-.252.156-.581.361L83.551,3.077l-.069.043C78.26,6.373,72.961,9.675,67.42,12.506l-.057.029q-.564.288-1.132.57l-.136.067q-.528.26-1.059.515l-.258.122c-.315.149-.629.3-.946.444-.112.052-.224.1-.336.152-.292.133-.583.266-.877.4-.135.059-.27.117-.405.176-.272.118-.543.238-.816.353-.156.066-.314.13-.471.2-.253.105-.506.212-.76.314-.176.071-.352.139-.528.208-.237.094-.473.188-.711.279-.191.073-.384.143-.576.215-.225.084-.45.17-.676.251-.2.073-.4.141-.6.212-.219.077-.438.156-.658.231s-.424.14-.636.21-.423.141-.636.209-.436.134-.654.2-.418.13-.628.192-.445.126-.667.189-.417.12-.627.177-.447.117-.671.174-.423.111-.636.164-.446.1-.669.157-.432.1-.649.152-.44.093-.66.139-.447.1-.673.141-.433.08-.65.12-.462.088-.694.127c-.213.037-.429.068-.643.1-.238.038-.475.078-.715.113-.208.03-.417.055-.626.083-.231.031-.461.064-.694.092-.144.063-.288.122-.433.183s-.26.112-.39.165c-.149.061-.3.118-.447.176s-.273.109-.41.16-.288.1-.432.157-.283.1-.425.153-.279.093-.419.14-.291.1-.436.144-.275.084-.413.126-.294.091-.441.134-.273.075-.409.113-.3.083-.445.122-.272.067-.408.1-.3.075-.447.111-.274.061-.412.092-.294.067-.442.1-.284.056-.426.084-.285.058-.428.084-.294.051-.44.077-.276.049-.414.071-.3.045-.449.068-.271.042-.406.061c-.155.021-.31.04-.465.06-.13.017-.259.035-.389.05-.162.019-.325.035-.487.053-.123.013-.246.028-.369.039-.166.016-.333.03-.5.044-.119.01-.239.022-.358.031-.178.014-.355.025-.533.037l-.323.023c-.188.011-.377.02-.565.029l-.294.015c-.194.008-.389.014-.583.02l-.277.01c-.211.006-.422.009-.633.012l-.227,0c-.221,0-.442,0-.664,0h-.2c-.236,0-.473,0-.71-.006h-.154Q27.1,23.015,26.7,23h-.078q-.424-.012-.848-.028h-.02c-2.9-.11-5.835-.372-8.82-.637-2.061-.184-4.165-.371-6.27-.506q-1.052-.067-2.105-.115a.474.474,0,0,1-.063-.007l-.022,0a13.485,13.485,0,0,0-5.13.433c-1.787.489-3.02,1.25-3.289,2.018a1.1,1.1,0,0,0-.041.156A1.9,1.9,0,0,0,.645,25.82a.531.531,0,0,1,.04.053,24.852,24.852,0,0,0,1.687,2.283C11.244,38.809,26.48,38.3,41.246,37.813c2.286-.076,4.5-.149,6.665-.18,2.046-.03,4.039-.023,5.984.057,1.192.028,2.638.063,4.239.132l.059,0q.444.019.9.042l.163.009.828.045.258.016c.252.015.5.031.762.048l.326.024.719.053.377.031.684.059.42.04c.219.021.438.042.658.065l.448.048c.213.024.426.047.64.072l.468.058c.208.026.417.052.626.08l.481.067c.205.029.41.058.615.089l.484.076c.2.032.407.065.61.1l.48.086c.129.023.259.044.387.069,1.2-1.684,2.522-3.3,3.8-4.86,3.253-3.972,6.618-8.079,8.051-13.467.58-2.179,1.017-4.149,1.441-6.053C84.052,9.1,85.042,4.644,88.521,0L87.491.632Z" transform="translate(53.066 107.98)"/><path class="e" d="M59.771,1.734c-.167.164-.335.326-.5.491-.252.25-.5.5-.75.751l-.472.473-.55.558-.6.609c-1.034,1.053-2.088,2.126-3.178,3.191-3.071,3.017-6.131,6.126-9.147,9.225-1.69,1.737-3.366,3.472-5.022,5.185q-1.858,1.923-3.729,3.855l-.076.079-1.13,1.163-.221.227-.988,1.014-.321.328-.9.916-.38.387-.848.862-.415.42-.819.827-.437.44-.809.812-.443.442-.8.8-.457.454-.807.8-.446.439q-.42.412-.841.822l-.42.409q-.448.436-.9.869L23,38.933q-.56.539-1.123,1.074l-.144.138q-.639.608-1.282,1.211l-.286.267q-.491.46-.984.917c-.16.149-.321.3-.482.444q-.4.367-.8.732l-.543.493q-.371.337-.743.673l-.574.514q-.359.32-.718.64l-.6.527-.7.613q-.308.269-.618.535-.343.3-.688.592l-.628.535q-.343.291-.688.58l-.634.53q-.345.287-.691.571l-.637.522q-.347.283-.7.562-.32.258-.641.515-.351.28-.7.557c-.213.168-.425.336-.639.5q-.358.279-.718.555c-.211.162-.421.325-.632.486-.248.188-.5.374-.745.561-.2.154-.409.309-.615.461-.268.2-.538.4-.808.593-.186.136-.372.274-.558.409q-.574.415-1.151.821l-.554.389q-.491.343-.984.683c15.672-3.659,31.4-7.113,46.74-10.48v0l.038-.008v0c17.677-3.88,35.729-7.843,53.75-12.136l.818-.2q2.225-.531,4.448-1.069l1.457-.355q1.921-.467,3.84-.939l1.848-.458q1.728-.428,3.454-.86,1.065-.267,2.127-.538,1.592-.4,3.184-.809,1.148-.293,2.295-.592,1.511-.39,3.021-.783,1.2-.313,2.39-.63l2.093-.555c-4.642-2.036-10.127-.811-15.908.48-7.907,1.765-16.082,3.591-23.46-2.323-2.944-2.36-5.719-4.905-8.4-7.366l-.913-.836c-.208.061-.415.125-.621.188-.25.076-.5.152-.749.232s-.526.173-.789.261c-.246.082-.492.163-.737.248-.265.092-.529.188-.793.284-.242.088-.485.174-.727.264-.265.1-.53.2-.794.3-.24.093-.48.184-.72.279-.265.106-.53.215-.8.324-.238.1-.477.194-.715.294-.266.112-.533.228-.8.343-.236.1-.472.2-.707.305-.268.118-.535.24-.8.361-.235.106-.469.21-.7.317-.267.123-.535.249-.8.374-.234.11-.468.218-.7.33-.269.128-.538.26-.807.39-.232.113-.465.224-.7.338-.269.132-.537.267-.806.4-.234.116-.468.232-.7.35-.266.134-.533.272-.8.408-.237.121-.473.24-.71.362-.27.139-.541.281-.811.422l-.7.365c-.286.15-.573.3-.859.453l-.658.347-.988.527-.535.286q-1.53.82-3.077,1.658c-4.354,2.352-8.846,4.778-13.441,6.939a3.8,3.8,0,0,1-4.16.086,3.757,3.757,0,0,1-1.445-3.079,3.977,3.977,0,0,1,.061-.65,3.73,3.73,0,0,1,.086-.369,2.911,2.911,0,0,1,1.57-1.9c1.289-.848,2.642-1.719,3.951-2.562l.878-.566q1.222-.788,2.446-1.583l.174-.114.666-.435.21-.137.649-.428.226-.149.6-.4.277-.184.575-.386.294-.2.558-.379.308-.21.529-.364.334-.23.515-.359.339-.237.5-.358.343-.244.488-.353.354-.257.472-.348.36-.266c.155-.115.308-.232.462-.347l.361-.273.449-.345.365-.282.434-.342.369-.293.42-.339.37-.3c.136-.112.272-.225.407-.338s.248-.207.371-.31.266-.226.4-.34.245-.21.366-.316l.386-.339c.122-.108.245-.217.366-.326s.249-.225.373-.338l.363-.334.36-.339q.181-.172.361-.344t.347-.338q.179-.176.356-.352t.336-.34q.176-.18.351-.362t.323-.34q.174-.184.344-.37t.312-.342q.17-.189.338-.379.15-.171.3-.343.167-.193.33-.388.145-.173.288-.346.161-.2.32-.4.139-.174.277-.35.157-.2.31-.4.133-.176.265-.352.151-.2.3-.412.128-.178.254-.358l.116-.169-.963-.821-.25-.214C66.45,3.864,63.954,1.733,61.587,0q-.275.255-.547.512c-.177.167-.354.333-.53.5C60.262,1.253,60.016,1.493,59.771,1.734Z" transform="translate(34.031 62.084)"/><path class="f" d="M76.424,4.067c-.059.149-.12.3-.18.445-.069.169-.138.338-.209.506-.062.146-.127.292-.191.437-.073.166-.145.332-.22.5-.066.145-.134.288-.2.431-.076.162-.152.324-.23.485-.069.143-.141.283-.212.425-.08.159-.159.318-.241.476-.072.139-.147.277-.22.416-.084.157-.167.314-.253.469-.075.137-.152.272-.229.407-.087.154-.175.308-.264.461-.079.135-.159.268-.24.4-.09.15-.181.3-.273.45-.082.132-.165.264-.249.395-.094.148-.188.3-.284.442-.085.13-.172.26-.258.389-.1.145-.194.289-.292.433s-.178.256-.268.383-.2.284-.3.424-.184.252-.276.377-.206.279-.311.417-.189.247-.285.37-.212.273-.32.408-.2.244-.295.366-.217.267-.328.4-.2.24-.3.36-.223.261-.335.391-.208.237-.313.355-.228.257-.344.384-.213.232-.32.348-.234.252-.352.376-.218.229-.328.343-.239.247-.36.369-.223.225-.336.337-.244.242-.368.363-.229.222-.344.332-.248.237-.374.354l-.353.329q-.189.175-.38.347l-.36.323q-.193.172-.388.342l-.365.316-.4.336-.373.312q-.2.165-.4.329l-.38.307-.408.324-.386.3-.414.319-.392.3q-.209.157-.419.312t-.4.293q-.212.155-.427.308l-.4.287-.434.3-.407.282-.441.3q-.205.139-.411.277l-.446.3-.418.274q-.225.146-.451.291l-.42.268c-.153.1-.307.193-.461.289l-.42.261L54.3,28l-.426.259-.469.28-.431.255-.477.278-.432.249-.484.275-.435.246-.488.271-.437.242-.495.269-.438.237-.5.268-.439.233-.506.265-.442.23-.507.26-.447.229-.517.261-.439.22-.535.266-.428.212-.552.269-.416.2-.566.272-.41.2-.569.27-.41.194-.574.269-.41.192-.593.274-.391.18-.6.277-.389.178-.612.277-.378.171-.69.31-.3.133-.754.335-.243.108-.774.342-.227.1-.875.384-.119.052q-2.513,1.1-5.028,2.181l-1.538.664A213.35,213.35,0,0,0,6.533,50.954a32.016,32.016,0,0,0-4.479,2.874c-.7.537-1.387,1.109-2.054,1.7V97.649c.106.05.211.1.318.147s.2.086.3.128.228.1.343.141.21.079.315.118l.265.1c5.395-1.22,10.966-2.51,16.562-3.834,2.029-.5,4.171-1.014,6.527-1.578q2.9-.694,5.8-1.376c.17-.109.339-.221.509-.331.3-.193.6-.386.893-.582.194-.129.387-.26.58-.39.282-.189.564-.377.845-.569.2-.139.4-.281.607-.421.27-.187.54-.372.809-.562.215-.151.428-.306.642-.459.254-.182.51-.362.763-.546.231-.168.462-.339.692-.508s.47-.344.7-.518.487-.367.73-.55c.219-.166.44-.33.659-.5.259-.2.516-.4.773-.6.2-.156.4-.311.606-.468.276-.216.551-.436.826-.654.182-.144.364-.287.545-.432.293-.235.585-.473.877-.71.162-.132.325-.262.486-.394.307-.252.613-.506.919-.761.146-.121.292-.24.437-.361q.493-.413.983-.83c.121-.1.243-.2.364-.307q.514-.438,1.026-.883l.316-.272q.529-.46,1.056-.926l.278-.244q.568-.5,1.132-1.009l.194-.173q.582-.523,1.161-1.052L51,75.34q.611-.558,1.219-1.121l.094-.087q1.3-1.2,2.583-2.425l.027-.026C61,65.911,66.872,59.83,72.661,53.838c4.616-4.777,9.387-9.714,14.195-14.437.682-.667,1.352-1.34,2.013-2.009.38-.385.76-.77,1.131-1.148q.583-.594,1.177-1.195l.313-.314q.437-.441.879-.88c.156-.155.314-.309.471-.463q.373-.367.751-.732c.175-.168.351-.335.527-.5.144-.136.286-.275.431-.41a18.953,18.953,0,0,0-4.567-2.48c-10.336-3.4-24.652,12.514-38.5,27.9-12.343,13.719-24,26.676-33.026,26.461a9.028,9.028,0,0,1-6.922-3.65A10.876,10.876,0,0,1,8.9,70.973C11.168,58.237,37.423,46.762,46.215,44.24c13.265-3.8,28.3-8.115,34.331-21.568a31.061,31.061,0,0,0,2.236-7.119,22.938,22.938,0,0,0,.366-3.774,14.658,14.658,0,0,0-2.883-9.4A11.833,11.833,0,0,0,77.782,0c-.008.031-.018.06-.026.09-.045.16-.092.317-.138.476-.053.182-.106.365-.161.546-.048.157-.1.311-.148.467-.057.179-.114.359-.173.536-.052.155-.106.308-.16.461-.061.175-.121.35-.185.523-.055.152-.113.3-.171.454C76.556,3.725,76.491,3.9,76.424,4.067Z" transform="translate(0 29.576)"/><path class="d" d="M28.405,2.021c-.111.138-.222.277-.335.414-.1.117-.193.232-.29.348-.113.134-.225.267-.34.4-.1.116-.2.232-.3.348s-.229.26-.346.389-.211.232-.317.348-.233.252-.35.377-.221.234-.333.35-.234.244-.353.365-.23.233-.346.35-.238.238-.358.356-.239.233-.359.349l-.359.343q-.187.177-.376.353t-.359.331q-.194.177-.389.354l-.359.321-.4.356-.358.31q-.208.179-.418.357-.179.152-.358.3l-.429.356-.362.3q-.218.177-.438.354l-.361.287-.453.356-.356.276-.466.359-.355.269c-.159.12-.318.24-.478.359l-.35.26-.492.362-.345.251-.5.364-.341.243-.518.368-.33.231-.533.372-.322.222-.549.378-.311.212L12.14,16l-.305.205-.578.388-.265.176-.617.41-.242.16-.642.423-.2.134-.685.448-.109.071q-1.706,1.111-3.412,2.206l-.119.076-1.234.8c-.891.575-1.777,1.148-2.645,1.717a.476.476,0,0,1-.07.038A1.6,1.6,0,0,0,.15,24.2a2.346,2.346,0,0,0-.108.4A2.653,2.653,0,0,0,0,25.038,2.493,2.493,0,0,0,.913,27.06a1.985,1.985,0,0,0,1.612.279,4.448,4.448,0,0,0,1.219-.468c3.589-1.689,7.1-3.534,10.535-5.374q1.443-.775,2.866-1.544,1.559-.842,3.1-1.669l.2-.106q.653-.35,1.3-.7l.41-.217q.552-.292,1.1-.582l.473-.246q.517-.269,1.033-.537l.524-.268q.489-.25.977-.5l.56-.28q.47-.235.939-.467l.583-.284q.458-.223.917-.443c.2-.1.4-.189.6-.283q.449-.212.9-.42l.617-.281q.44-.2.881-.395L32.895,12q.434-.188.869-.372.323-.136.646-.27.428-.177.858-.349l.661-.262q.424-.165.848-.325.337-.127.675-.251.419-.153.841-.3c.229-.081.458-.161.688-.239.279-.095.558-.186.838-.277.232-.076.465-.152.7-.224.085-.027.169-.056.255-.082-2.455-2.234-5.277-4.734-8.3-7-.839-.629-1.8-1.417-2.55-2.048-.028.04-.057.079-.085.119-.08.114-.162.228-.244.341-.107.148-.213.3-.322.443-.086.115-.173.23-.26.344-.109.143-.218.287-.329.428C28.589,1.792,28.5,1.906,28.405,2.021Z" transform="translate(74.974 69.706)"/><path class="d" d="M.141,34.986v0A9.624,9.624,0,0,0,2.51,42.96a7.7,7.7,0,0,0,5.96,3.179c8.436.2,19.9-12.543,32.043-26.036C47.045,12.842,53.68,5.467,60.028,0,52.881,4.579,44.164,7.079,36.55,9.263,27.955,11.727,2.308,22.844.141,34.986Z" transform="translate(10.019 65.785)"/></g><path class="g" d="M1075.351,3959.669c-11.892,6.208-24.446,10.911-35.363,18.365-14.765,10.081-29.015,21.64-44.083,30.715-18.443,11.107-41.781,17.78-62.569,22.507-32.016,7.282-65.071,19.285-97.995,17.576-21.44-1.113-44.007-21.73-57.514-37.084-9.276-10.545-18.213-31.514-30.409-41.675-5.794-2.175-10.827-5.463-14.2-10.4Z" transform="translate(-179.96 -3848.673)"/><path class="h" d="M2138.556,4009.675a13.878,13.878,0,0,1-5.269-10.18c-.509-1.389-.1-3.087.829-4.817a10.54,10.54,0,0,1,4.626-5.717,18.974,18.974,0,0,1,4.572-3.283c7.819-3.472,16.2-4.878,24.134-8.107,6.278-2.553,13.553-3.561,19.578-6.638,3.785-1.933,13.716-12.886,18.334-9.739C2218.653,3970.254,2163.85,4028.125,2138.556,4009.675Z" transform="translate(-1367.185 -3813.105)"/><path class="i" d="M224.289,0,146.681,13.006c-.335.153-.669.308-1,.47C130.83,20.86,119.43,29.842,111.094,40.3c-1.37,1.68-1.966,3.593-3.454,5.656C100.912,53.978,97.427,62,93.7,70.78c-3.127,6.87-5.54,13.258-8.28,20.245-2.591,6.055-5.748,11.661-8.636,17.766-1.7,4.092-3.187,7.968-6.254,11.927-10.152,14.937-23.518,27.513-38.4,40.886C15.581,176.707,3.4,192.709.481,210.243A4.234,4.234,0,0,1,0,211.871a34.186,34.186,0,0,1,4.586.585c.684.067,1.7-.465,2.38-.4a13.706,13.706,0,0,0,6.666.333c.3-.05,1.249.516,1.547.466a9.433,9.433,0,0,1,3.838-.1c1.071.183,2.38-.4,3.66-.432.982.017,1.755.25,2.737.267,1.577-.083,3.184-.715,4.762-.8,5.921-.448,11.9-.182,17.824-.63,10.742-.531,20.472-.53,30.976-.3,1.279-.033,2.291-.565,3.571-.6,2.559-.066,5.385.367,7.766-.032,3.065-.332,5.832-.615,8.689-.731,2.559-.066,4.762-.8,7.231-1.03.982.017,1.755.25,2.738.267,3.652-.5,7.238-1.127,10.819-1.762,2.6.24,5.174.666,7.749.1a6.49,6.49,0,0,1,1.547.466c2.172-.183,3.988-1.031,6.041-.831s4.255-.532,6.308-.332a13.949,13.949,0,0,0,3.838-.1c.3-.05.862.4,1.547.466.982.017,1.7-.466,2.38-.4a7.127,7.127,0,0,0,3.928.067c.3-.05.863.4,1.547.466a10.91,10.91,0,0,0,2.381-.4c.982.017,1.755.25,2.738.267a37.588,37.588,0,0,1,6.219-.5c2.053.2,3.869-.648,6.041-.831a6.443,6.443,0,0,0,1.547.466c1.577-.083,3.184-.715,4.85-.632,15.184.05,29.747.041,44.925.705l.912-.389Z" transform="translate(1717.14 335.284) rotate(-90)"/><path class="j" d="M18.966,177.077C-4.767,160.625-5.3,126.309,12.214,105.336,21.1,94.7,31.574,86.408,37.661,73.566,42.574,63.2,43.9,52.274,44.992,41.14,46.039,30.47,53.544,7.327,66.45,0V189.036A69.836,69.836,0,0,1,18.966,177.077Z" transform="translate(1613.977 177.445) rotate(-90)"/><path class="k" d="M159.518,1.78q-2.462-.715-4.955-1.2C121.411-4.448,95.275,24.564,67.549,41.508,57.88,47.832,47.619,53.013,37.9,58.731c-8.761,5.578-14.67,15.662-18.542,26.679C11.869,104.948-1.3,121.007.1,141.714,2.013,169.7,9.6,198.23,23.18,221.255H29.2c-7.444-10.276-11.923-23.454-15.955-36.7-1.927-6.835-4.283-13.607-5.354-20.566-2.569-13.856-6-27.587-1.99-40.756,8.062-25.8,20.177-50,39.856-62.706C69.948,44.974,93.962,32.183,117.58,15.07a47.325,47.325,0,0,1,41.938-7.951Z" transform="matrix(0.259, -0.966, 0.966, 0.259, 1701.636, 265.078)"/><path class="k" d="M159.518,1.78q-2.462-.715-4.955-1.2C121.411-4.448,95.275,24.564,67.549,41.508,57.88,47.832,47.619,53.013,37.9,58.731c-8.761,5.578-14.67,15.662-18.542,26.679C11.869,104.948-1.3,121.007.1,141.714,2.013,169.7,9.6,198.23,23.18,221.255H29.2c-7.444-10.276-11.923-23.454-15.955-36.7-1.927-6.835-4.283-13.607-5.354-20.566-2.569-13.856-6-27.587-1.99-40.756,8.062-25.8,20.177-50,39.856-62.706C69.949,44.974,93.962,32.183,117.58,15.07a47.325,47.325,0,0,1,41.938-7.951Z" transform="translate(1121.39 250.688) rotate(-121)"/></g></svg>