<svg xmlns="http://www.w3.org/2000/svg" width="1956.639" height="335.284" viewBox="0 0 1956.639 335.284"><defs><style>.a{fill:#6f7d62;}.b{fill:#f7f2e9;}.c{fill:#78876a;}.d{fill:#6a785e;}.e{fill:#637058;}.f{fill:#f0e0cc;}.g{fill:#e6ccaa;}.h{fill:#e0caac;}.i{fill:#c79854;}.j{fill:#2a2a30;}</style></defs><g transform="translate(0 -485.916)"><g transform="translate(0 710.765) rotate(-90)"><path class="a" d="M105.972,33.909C99.656,28.661,91.234,27.92,83.087,27.2,77.1,26.677,70.9,26.133,65.449,23.834l-.436-.184a.483.483,0,0,1-.291-.475.478.478,0,0,1,.358-.427l.458-.118c7.049-1.806,14.273-.9,21.258-.016,7.261.914,14.133,1.78,20.658-.217-3.02-3.457-6-7.033-8.885-10.5C95.261,7.93,91.9,3.9,88.438,0H0V60.372c7.644-2.738,15.391-5.554,23.193-8.509q4.72-1.787,9.46-3.64l1.111-.429.316-.121.8-.306.369-.141.76-.289.327-.124.807-.306.3-.114.833-.313.322-.12.81-.3.357-.132.792-.293.34-.125.808-.3.347-.126.808-.293.341-.122.818-.294.34-.121.818-.29.347-.122.822-.288.342-.119.826-.286.339-.116.838-.286.334-.113.838-.281.345-.115.832-.274.352-.115.829-.27.354-.114.834-.266.351-.111.835-.262.356-.11.831-.255.365-.111.826-.248.369-.109.827-.243.37-.108.828-.238.37-.1.833-.233.368-.1.831-.226.373-.1.834-.221.369-.1.833-.214.376-.1.833-.207.373-.092.838-.2.371-.088.84-.194.371-.086.843-.187.366-.081c.284-.062.568-.122.852-.182l.36-.076.859-.175.353-.072q.438-.087.877-.171l.335-.065q.449-.085.9-.166l.315-.058c.306-.055.612-.108.918-.16l.3-.051q.479-.081.958-.157l.256-.042q.515-.082,1.031-.158l.182-.028q2.439-.36,4.876-.611l.189-.018c.339-.034.678-.067,1.018-.1l.354-.03c.285-.024.569-.049.853-.071l.423-.031c.261-.019.523-.038.784-.055l.466-.028c.247-.014.493-.029.739-.043l.5-.023c.236-.011.473-.022.709-.031.171-.007.343-.012.514-.017.23-.007.46-.015.69-.022l.53-.01c.224,0,.447-.009.671-.011.182,0,.364,0,.546,0q.327,0,.655,0c.184,0,.368,0,.551,0,.217,0,.433,0,.65.007l.553.013c.215.005.431.01.646.017l.559.021c.212.008.424.016.636.027l.563.029.632.036c.188.012.376.025.563.038.21.014.419.029.629.046l.564.047.626.056.564.057.625.066.562.065.626.078.557.074.627.088.555.084c.209.032.418.065.626.1q.276.045.552.093l.627.111.548.1q.314.06.628.123.272.054.543.111l.293.06A15.1,15.1,0,0,0,105.972,33.909Z"/><path class="b" d="M0,37.04q2.359-1.067,4.691-2.127c12.05-5.475,23.432-10.647,35.74-14.8a.585.585,0,0,1,.127-.024C47.61,19.436,55.6,18.7,59.936,11.891A5.15,5.15,0,0,0,60.48,8.65C59.631,3.892,50.936.455,45.3,1.462A185.028,185.028,0,0,0,0,14.859V13.468A185.875,185.875,0,0,1,45.085.205C51.51-.942,60.737,2.839,61.735,8.427a6.424,6.424,0,0,1-.68,4.072.4.4,0,0,1-.023.041c-4.663,7.351-12.954,8.132-20.282,8.806-12.2,4.127-23.536,9.277-35.544,14.733Q2.624,37.252,0,38.439Z" transform="translate(0 10.131)"/><path class="c" d="M13.491,19.007c.323-.061.6-.113.827-.154A191.1,191.1,0,0,0,36,13.141c9.92-3.035,20.172-6.171,30.714-6.775,2.713-.155,5.3-.187,7.807-.217C80.632,6.074,86.394,6,92.856,4.184A130.874,130.874,0,0,1,111.187,0c.985,4.206,1.973,7.825,3.085,11.3l-.6.039-.821.053q-.522.036-1.044.075l-.809.061q-.531.041-1.061.086l-.792.066-1.079.1-.773.07-1.1.1-.742.071-1.146.114-.7.07-1.27.131-.554.057-1.8.187c-2.48.259-4.987.521-7.511.754A150.155,150.155,0,0,1,75.6,14.1a34.22,34.22,0,0,0-13.886,1.713c-.094.033-.185.071-.279.1Q60.1,16.4,58.818,17c-.915.431-1.817.9-2.7,1.428q-3.494,1.9-6.874,3.585C30.034,31.588,13.582,35.909,0,34.972V20.45A65.163,65.163,0,0,0,13.491,19.007Z" transform="translate(0 82.85)"/><path class="c" d="M112.541,15.158l-1.48.3-1.443.288-1.33.263-1.617.318-1.027.2-1.911.371-.592.114c-2.9.558-5.786,1.107-8.646,1.648l-2.261.428c-9.27,1.752-18.613,3.518-27.923,5.51l-.031.007q-.889.19-1.779.384l-.092.02q-.858.187-1.715.376l-.156.034q-.839.185-1.677.374l-.19.043-1.642.373-.225.051q-.8.183-1.6.37l-.271.063q-.784.183-1.568.37l-.293.069q-.769.183-1.536.37l-.327.079q-.757.184-1.513.372l-.344.085q-.739.184-1.478.371l-.382.1q-.728.185-1.456.373l-.4.1q-.719.186-1.437.377l-.414.109q-.713.189-1.425.382l-.421.113q-.7.19-1.4.384l-.45.124q-.686.191-1.371.385l-.472.133q-.675.192-1.348.388l-.491.142q-.665.194-1.328.392l-.507.15q-.658.2-1.315.4l-.514.156q-.654.2-1.306.4l-.519.162q-.643.2-1.284.408l-.542.173q-.631.2-1.261.411l-.556.182q-.625.207-1.249.417l-.563.189q-.62.21-1.237.424l-.571.2q-.611.213-1.221.429l-.582.206q-.605.216-1.208.436l-.59.215q-.6.218-1.189.44l-.605.226q-.588.221-1.175.447l-.611.234q-.581.224-1.16.453l-.623.245q-.573.228-1.144.459l-.63.255q-.567.231-1.132.466l-.638.265q-.558.234-1.114.472l-.65.278q-.551.237-1.1.479l-.654.287q-.545.241-1.087.486l-.665.3q-.535.243-1.069.49l-.674.313q-.528.247-1.055.5l-.68.324q-.521.25-1.041.5l-.688.337L0,45.457V36.982q1.147-.478,2.3-.952c7.361-3.037,14.812-5.964,22.421-8.953,11.175-4.39,22.725-8.928,34.392-14q1.5-.647,3.014-1.265c.337-.137.677-.266,1.015-.4.676-.27,1.351-.542,2.031-.8.405-.155.816-.3,1.223-.455.617-.231,1.233-.465,1.854-.688.443-.159.891-.31,1.337-.465.591-.207,1.18-.417,1.775-.617.465-.156.936-.3,1.4-.457.58-.189,1.158-.382,1.741-.565.483-.151.972-.294,1.457-.441.575-.175,1.148-.353,1.727-.522.494-.144.994-.279,1.491-.419.576-.162,1.15-.328,1.73-.484.507-.137,1.021-.265,1.531-.4.576-.15,1.15-.3,1.73-.447.517-.129,1.041-.248,1.561-.373.58-.138,1.157-.28,1.741-.413.529-.12,1.065-.233,1.6-.349.581-.127,1.16-.257,1.745-.378.542-.112,1.091-.217,1.637-.325.583-.115,1.163-.234,1.75-.345.553-.1,1.113-.2,1.669-.3.587-.1,1.171-.213,1.763-.313.564-.1,1.135-.183,1.7-.273.591-.094,1.18-.192,1.775-.281.576-.087,1.159-.166,1.739-.247.6-.084,1.188-.171,1.787-.251s1.181-.148,1.773-.22,1.2-.151,1.8-.22,1.2-.13,1.808-.194C110.548.11,111.073.052,111.6,0a79.633,79.633,0,0,1,3.05,12.161l.013.068q.237,1.2.479,2.4l-1.259.257Z" transform="translate(0 42.473)"/><path class="a" d="M107.906,6.5c-.628.072-1.25.151-1.873.229-.571.071-1.143.14-1.71.216-.63.084-1.254.174-1.879.263-.552.079-1.107.155-1.656.238-.633.1-1.26.2-1.888.3-.533.086-1.069.169-1.6.259-.637.108-1.267.223-1.9.337-.514.092-1.031.182-1.542.278-.638.12-1.27.249-1.9.375-.5.1-1,.2-1.495.3-.641.133-1.276.275-1.912.414-.481.106-.965.208-1.443.317-.643.147-1.279.3-1.918.455-.466.112-.934.22-1.4.335-.643.16-1.28.329-1.919.5-.452.118-.907.232-1.356.353-.645.174-1.283.358-1.923.539-.437.124-.878.243-1.313.37-.646.188-1.285.386-1.927.582-.424.129-.851.254-1.273.386-.649.2-1.292.418-1.937.629-.408.134-.819.263-1.226.4-.659.222-1.313.454-1.968.684-.386.136-.775.266-1.16.4-.68.245-1.353.5-2.028.753-.355.133-.713.261-1.066.4-.731.28-1.457.572-2.182.862-.293.117-.588.229-.88.348q-1.523.621-3.031,1.272c-11.646,5.067-23.186,9.6-34.346,13.985C16.014,36.51,7.959,39.677,0,42.987V26.635C10.877,22.744,21.958,18.7,33.115,14.32c8.863-3.424,18.239-6.864,27.8-9.514l.024-.007q.579-.161,1.158-.317l.04-.011q.554-.15,1.109-.3l.093-.025q.539-.141,1.078-.278l.125-.032q.52-.132,1.04-.259l.166-.042q.516-.127,1.032-.25l.171-.041q.5-.119,1.006-.234l.2-.047q.49-.112.98-.22l.228-.051q.479-.105.957-.206l.252-.054c.308-.065.617-.128.926-.191l.286-.058q.453-.091.907-.178l.3-.059c.3-.057.6-.112.9-.167l.313-.058q.442-.08.883-.156l.329-.058c.288-.05.576-.1.865-.144l.347-.057c.279-.045.558-.087.838-.13l.376-.058c.273-.041.546-.079.819-.119l.392-.056c.271-.037.542-.073.813-.108l.4-.052c.266-.034.533-.066.8-.1l.414-.05c.26-.03.52-.058.78-.086l.43-.047c.255-.027.511-.051.766-.076L83.9.389c.252-.023.5-.044.755-.065l.453-.038c.249-.02.5-.037.746-.055L86.315.2c.245-.016.49-.03.734-.044l.474-.028C87.764.113,88,.1,88.246.091c.161-.007.322-.016.482-.022.236-.01.472-.017.708-.024l.5-.016c.231-.006.462-.01.693-.014.17,0,.34-.007.51-.009.229,0,.459,0,.688,0,.171,0,.341,0,.512,0,.228,0,.457,0,.685.006l.514.006c.225,0,.45.01.675.016.174,0,.349.008.523.014.222.007.443.016.665.026.177.007.354.013.53.022.221.01.441.023.662.036.177.01.353.019.53.03.219.014.438.03.657.046.178.013.356.025.533.039.216.017.432.036.647.056.18.016.361.031.541.048.215.021.429.044.644.066.18.019.36.037.54.057.215.024.43.051.644.077l.538.066c.213.028.426.058.639.088l.541.076c.212.032.424.065.636.1l.539.086c.212.035.423.073.635.11.179.031.358.062.537.095.212.039.423.08.634.122.178.035.357.068.535.1.211.043.422.088.633.133.178.038.356.075.533.115.211.047.421.1.632.146l.429.1a21.973,21.973,0,0,1,2.327,4.265c-.483.049-.958.105-1.438.157C109.085,6.367,108.492,6.429,107.906,6.5Z" transform="translate(0 35.091)"/><path class="a" d="M18.959,21.394a.509.509,0,0,0-.062-.035l-.043-.02a.47.47,0,0,0-.066-.025l-5.152-1.521c-2.818-2.005-4.293-5.176-5.719-8.242C6.154,7.76,4.324,3.849,0,1.768V0Q.837.7,1.709,1.347c.071.052.143.1.214.154.2.143.395.287.595.426.173.12.349.236.524.352.1.067.2.136.3.2q1.245.811,2.544,1.5c.505.288,1.018.573,1.535.855C13.8,8.326,21,11.436,27.977,14.45q2.3.994,4.61,2l.313.137.478.21.511.224.346.153.647.286.236.1.748.333.218.1.766.343.187.084.794.359.161.074.818.374.137.063.835.386.144.067.829.387.117.056.85.4.11.052.851.409.118.057q.42.2.839.409l.115.057q.42.207.838.415l.108.054q.42.21.838.422l.1.053q.419.214.837.429l.1.054q.415.215.828.432l.108.058q.411.217.82.437l.1.055q.41.221.816.443l.111.062q.4.221.8.444l.114.064q.4.223.79.448l.119.069q.39.224.777.451l.118.07q.386.227.769.457l.12.072q.38.229.757.461l.125.078q.373.231.742.464l.132.084q.365.232.726.466l.136.089q.357.234.711.469l.142.1q.349.235.7.471l.143.1q.343.236.682.476l.149.107q.334.237.665.478l.155.114q.326.239.649.481l.154.117q.32.242.636.486l.159.125q.311.243.619.489l.163.132q.3.244.6.49l.17.142q.294.245.584.494l.168.146q.286.248.568.5l.176.158q.276.247.548.5l.178.166q.268.249.531.5l.181.175q.259.25.514.5l.183.184q.249.251.5.505l.187.2q.24.252.476.506l.189.207q.231.252.458.508l.191.217q.222.254.441.51l.192.228q.213.254.422.511c.065.08.129.161.193.241q.2.255.4.512c.065.084.129.168.193.252q.195.255.386.513c.065.088.129.177.194.266q.185.255.367.513c.066.093.13.187.195.281q.176.255.348.511c.066.1.131.2.2.3q.166.254.329.51c.066.1.13.209.2.313q.157.253.311.509c.065.109.129.218.193.328.1.169.2.338.293.509.064.114.128.229.191.344q.139.252.275.507c.064.12.127.241.189.362q.13.251.257.5c.063.126.125.252.186.38q.121.25.24.5.092.2.182.4.112.248.222.5c.061.139.12.279.179.419q.1.246.2.494.088.218.174.438.1.244.188.49.086.229.169.46c.058.161.116.322.172.485s.109.32.162.481.1.32.156.481.1.334.155.5.095.317.14.476q.075.262.147.526c.023.086.046.172.069.258a21.12,21.12,0,0,1-9.133,2.262C55.248,54.454,45.5,45.09,36.071,36.032,30.612,30.789,24.97,25.369,18.959,21.394Z" transform="translate(0 174.554)"/><path class="c" d="M21.934,52.305l-.432-.391-.4-.363-.429-.4L20.3,50.8q-.213-.2-.422-.4l-.364-.349-.422-.411-.344-.338q-.212-.21-.42-.421c-.11-.11-.219-.22-.327-.33-.14-.142-.277-.284-.415-.426-.1-.108-.209-.216-.312-.324-.139-.145-.275-.29-.412-.435-.1-.1-.2-.21-.3-.315-.138-.148-.273-.3-.408-.444l-.28-.306c-.137-.151-.271-.3-.405-.455-.088-.1-.177-.2-.263-.3-.135-.154-.268-.309-.4-.463-.083-.1-.168-.194-.25-.29-.135-.159-.267-.318-.4-.476-.077-.093-.155-.185-.232-.278-.137-.166-.27-.332-.4-.5-.069-.086-.14-.172-.209-.258-.144-.18-.284-.361-.425-.542-.056-.072-.114-.144-.169-.216q-.292-.379-.576-.76c-.41-.55-.8-1.111-1.175-1.676a55.731,55.731,0,0,1-5.2-10.128c-1.094-2.7-2.053-5.439-3-8.142C1.89,19.308,1,16.766,0,14.251V0C.087.141.174.282.254.431c.006.011.013.023.02.034A71.683,71.683,0,0,1,3.831,6.744a50.9,50.9,0,0,0,5.935,9.519c.009.011.019.022.03.032,3.452,3.439,7.695,5.161,11.8,6.826,4.443,1.8,8.639,3.505,11.4,7.208.721.864,1.431,1.728,2.152,2.606a129.079,129.079,0,0,0,8.749,9.931c-6.341,1.058-11.257,2.853-15.006,5.475a29.111,29.111,0,0,0-5.467,5.267l-.2-.173-.43-.376-.439-.387Z" transform="translate(0 194.469)"/><path class="d" d="M0,0C.537,1.469,1.053,2.94,1.563,4.4c1.963,5.617,3.98,11.387,7.158,16.7a42.806,42.806,0,0,0,2.4,3.595q.29.389.589.776c.048.062.1.125.146.187.152.2.3.391.46.587.063.079.127.157.19.235.144.179.288.357.434.536l.216.259c.141.17.283.34.427.51.078.092.158.184.237.275.141.164.282.328.425.492.084.1.169.191.253.286.142.16.284.32.428.481.088.1.178.195.267.292.144.158.288.316.435.474l.28.3c.146.155.291.31.44.465.1.1.2.207.3.31.146.151.292.3.44.453l.316.319c.148.148.3.3.445.445l.331.326c.148.145.3.291.448.436l.354.339q.222.212.447.424l.372.348.45.417.391.357.452.409.409.365.456.4.427.373.221.192c-.391.482-.776.964-1.155,1.44-4.371,5.485-7.823,9.818-14.259,4.754A27.919,27.919,0,0,1,0,34.113Z" transform="translate(0 212.305)"/><path class="a" d="M161.068,70.517q-1.424-.373-2.851-.739c-.842-.218-1.682-.438-2.525-.654-.749-.192-1.5-.381-2.25-.572q-1.579-.4-3.158-.8l-1.21-.3c-22.882-5.725-45.987-10.8-68.483-15.74C64.223,48.114,47.3,44.4,30.661,40.476l-.842-.2a.464.464,0,0,0-.125-.029c-1.735-.41-3.351-.794-4.877-1.159q-3.26-.782-6.513-1.574Q9.345,35.4,0,33.286V23.652A63.158,63.158,0,0,0,13.672,23q1.762-.266,3.576-.624C28.934,20.066,42.2,14.9,56.746,6.983a31.428,31.428,0,0,1,18.8-4.17q.784.016,1.566.021a208.814,208.814,0,0,0,23.009-1.542c1.65-.173,3.32-.347,5-.513l.46-.046,1.141-.109.728-.069,1.023-.092.848-.075c.32-.027.64-.053.96-.079.3-.025.607-.05.91-.073s.608-.045.912-.067c.32-.023.639-.047.958-.068.292-.02.583-.037.874-.055L114.681,0c1.177,3.546,2.5,6.962,4.036,10.431a28.786,28.786,0,0,0,2.417,4.337l-.065.012c-.129.023-.259.043-.388.065-.221.037-.442.075-.664.109l-.427.063c-.21.031-.42.062-.63.091l-.45.059c-.2.027-.406.053-.61.078l-.46.053c-.2.023-.4.046-.6.067l-.462.047q-.3.03-.589.058l-.459.042-.58.049-.453.036-.576.043-.435.03-.577.037-.411.025-.582.032-.379.019-.588.027-.342.015-.608.024-.287.011-.631.022-.229.007-.663.02-.154,0-.729.019h-.04l-.506.013-.226.005c-3.859.159-7.926.029-12.225-.113l-.269-.009c-7.816-.259-15.893-.528-23.162.936q-1.558.313-3.008.725a29.914,29.914,0,0,0-7.433,3.184,24.413,24.413,0,0,0-7.814,7.559l-.013.017q-.12.139-.223.279c-.022.029-.041.059-.062.088-.05.071-.1.141-.143.212-.02.032-.038.064-.057.1q-.061.1-.113.209c-.015.031-.031.063-.045.094-.033.072-.063.144-.09.216-.011.028-.022.056-.032.084-.028.083-.051.165-.071.247,0,.017-.01.034-.014.051a2.484,2.484,0,0,0-.046.295c0,.026,0,.051,0,.077,0,.059-.009.117-.008.176,0,.01,0,.02,0,.029a2.308,2.308,0,0,0,.033.351s0,.008,0,.013a2.347,2.347,0,0,0,.071.285c.017.052.038.1.058.152s.032.086.051.127c.029.063.062.123.1.183.015.026.028.054.044.08.04.066.084.13.129.193.013.018.026.037.04.055.05.066.1.13.159.193l.04.045c.057.062.118.124.18.183l.05.047c.061.055.122.109.187.162l.081.064c.056.043.112.086.171.128s.094.065.141.1l.121.079c.078.05.159.1.241.145l.029.017a13.244,13.244,0,0,0,4.926,1.4l.041,0,.2.018.24.021h.015a10.9,10.9,0,0,0,2.552-.063c2.541-.112,5.086-.329,7.566-.549l.766-.068,1.686-.149.233-.02.582-.05.324-.027.5-.041.361-.029.473-.038.354-.027.483-.036.346-.025.488-.033.337-.022.514-.031.3-.018.6-.032.21-.011q.828-.04,1.652-.064l.145,0q.335-.009.67-.015l.221,0q.3,0,.6-.006h.245l.571,0,.257,0q.281,0,.561.01l.256.006q.285.008.569.019l.241.01q.3.013.594.03l.215.012q.321.019.642.043l.164.012q.384.03.768.067l.036,0q.829.08,1.655.194l.052.008q.373.052.745.111l.177.03q.311.051.621.107l.229.043c.19.036.379.073.569.112l.256.054q.272.058.543.12l.269.063c.177.042.354.086.53.131l.276.071c.176.047.352.1.528.145l.274.078c.181.053.362.108.543.165l.255.079c.2.064.4.13.6.2l.2.067.041.015-.021.274a.478.478,0,0,0,.44.513c.636.049,1.3.114,2.081.206l.065.028c.067.028.13.055.193.084,1.955.81,3.909,1.68,5.857,2.582q1.167.541,2.331,1.1,2.239,1.068,4.457,2.171c1.726.857,3.441,1.719,5.139,2.574l.613.309c3.864,1.946,7.788,3.913,11.756,5.738l.246.114c.391.179.782.355,1.174.531l.43.194c.353.158.708.312,1.062.467.182.08.364.161.547.24.319.138.639.273.959.408.218.092.436.187.655.278.288.12.577.237.865.355.251.1.5.208.753.309.269.108.539.212.808.318s.541.215.812.319.518.194.778.292c.282.106.564.214.846.317.258.094.517.184.776.276.283.1.566.2.849.3.264.091.528.177.792.266s.535.182.8.269c.873.534,1.679,1.02,2.442,1.476l.363.216.353.21.14.146c.1.11.21.221.324.333,3.975,3.885,8.659,6.171,13.188,8.382a69.745,69.745,0,0,1,9.255,5.122l-.144.094c-.972-.26-1.946-.516-2.92-.773C162.589,70.92,161.83,70.716,161.068,70.517Z" transform="translate(0 95.406)"/><path class="c" d="M1.3.3c.151.037.3.076.452.114q.382.1.762.2l.475.13q.369.1.736.209l.475.139q.369.111.737.226l.457.144c.26.084.52.17.779.257.133.045.267.088.4.134q.5.17.991.349l.177.062q.58.211,1.157.432l.361.141c.264.1.528.206.792.312l.447.183c.233.1.465.191.7.289q.239.1.476.2.334.143.666.289l.478.212q.332.149.664.3c.156.071.311.142.467.215q.344.16.686.323c.145.069.29.137.434.206q.395.19.788.384l.323.158q.546.271,1.088.548c.119.06.237.122.355.184.247.128.495.256.741.385l.451.239q.323.171.644.344l.472.256.62.339.476.263.616.344.468.264.635.362.437.251.7.408.368.214q.522.305,1.042.614l.326.195.738.442.443.267.611.37.488.3.568.347.5.3.552.34.518.32.509.316.548.34.4.246,1.591.99-.238-.094q-1.1-.435-2.191-.892l-.24-.1q-1.024-.431-2.046-.881l-.45-.2q-1.1-.486-2.188-.987l-.357-.165q-1-.464-2-.938l-.338-.16q-1.1-.525-2.2-1.06l-.41-.2Q19.387,9.516,18.356,9L18.2,8.925q-1.128-.56-2.249-1.124l-.431-.216L13.4,6.518l-1.966-.989L10.984,5.3,9.354,4.489l-.521-.26q-2.032-1.011-4.085-2l-.527-.252q-.778-.373-1.557-.74L2.088.963Q1.12.51.149.068L.037.017,0,0,.082.017C.207.045.331.075.456.1.739.168,1.022.233,1.3.3Z" transform="translate(102.008 132.368)"/><path class="c" d="M103.826,17.184c-2.251-.275-4.368-.534-6.475-.682-8.5-.6-16.689-.193-27.138.657-8.465.689-15.658,2.889-23.274,5.218-2.085.638-4.228,1.294-6.426,1.927a69.262,69.262,0,0,1-14.3,2.07A71.994,71.994,0,0,0,12.2,28.344,83.659,83.659,0,0,0,0,33.388V31.008c.326-.165.651-.329.978-.491l.5-.244c.408-.2.816-.4,1.225-.6.16-.078.322-.153.482-.23q.622-.3,1.246-.592l.477-.221q.629-.292,1.259-.582c.157-.072.314-.141.47-.212q.636-.288,1.273-.573l.46-.2q.645-.285,1.291-.565l.436-.186q.661-.283,1.322-.563l.419-.174q.672-.281,1.344-.558l.406-.164q.681-.277,1.364-.55l.387-.153q.694-.274,1.389-.546l.378-.145c.467-.18.935-.36,1.4-.537l.364-.136q.712-.267,1.425-.531l.345-.125q.723-.264,1.447-.525l.355-.126q.722-.257,1.445-.511l.335-.115q.733-.255,1.468-.505l.342-.115q.733-.248,1.466-.492l.342-.112q.735-.242,1.472-.481l.341-.109q.738-.237,1.478-.471l.32-.1q.751-.235,1.5-.467l.31-.094q.758-.231,1.517-.46l.3-.088q.765-.229,1.531-.453l.318-.092q.757-.221,1.515-.438l.345-.1q.746-.212,1.492-.421l.37-.1q.735-.2,1.471-.4l.38-.1q.733-.2,1.467-.395l.355-.094q.744-.2,1.49-.392l.408-.105q.723-.187,1.446-.372l.364-.092q.744-.189,1.488-.374l.4-.1q.731-.181,1.462-.36l.359-.087q.748-.182,1.5-.361l.434-.1q.714-.17,1.428-.338l.419-.1q.72-.168,1.441-.334l.488-.111,1.378-.314.482-.108,1.381-.309.576-.126,1.293-.284.588-.127L64.427,10l.709-.151L66.292,9.6l.753-.158,1.124-.235.668-.138,1.2-.248.785-.16,1.09-.222.76-.153,1.109-.223,1.374-.274.486-.1L77,7.425l.517-.1,1.07-.209.807-.158,1.532-.3.329-.064L82.8,6.3l.33-.064q3.043-.583,6.08-1.157l3.258-.617.057-.01,1.724-.326c3.108-.588,6.251-1.184,9.4-1.792l.3-.058,2.036-.4.914-.178,1.718-.338,1.224-.242,1.526-.3,1.407-.282,1.408-.287L115.4,0c1.182,5.632,2.792,11.956,6.546,17.041C116.239,18.7,109.932,17.932,103.826,17.184Z" transform="translate(0 58.349)"/><path class="c" d="M86.861,38.066l-1.042-.644-.25-.155-.578-.359-1.9-1.18-.069-.043c-5.193-3.236-10.464-6.519-15.975-9.335l-.057-.029q-.561-.287-1.125-.566l-.135-.066q-.525-.259-1.053-.512l-.257-.121c-.313-.148-.626-.3-.94-.442-.111-.051-.223-.1-.334-.151-.29-.132-.58-.265-.872-.394-.134-.059-.269-.116-.4-.175-.27-.118-.54-.236-.811-.351-.156-.066-.312-.129-.468-.194-.252-.1-.5-.21-.756-.312-.175-.071-.35-.138-.525-.207-.236-.093-.47-.187-.707-.278-.19-.073-.382-.142-.572-.214-.224-.084-.447-.169-.672-.25-.2-.072-.4-.141-.6-.211-.218-.077-.435-.155-.655-.23s-.421-.139-.632-.209-.421-.14-.632-.208-.434-.133-.651-.2-.415-.13-.625-.191-.442-.126-.663-.188-.415-.119-.624-.176-.445-.116-.667-.173-.42-.111-.632-.163-.444-.1-.666-.157-.429-.1-.646-.151-.437-.092-.656-.138-.445-.1-.669-.14-.431-.079-.646-.119-.459-.087-.69-.127c-.212-.036-.427-.068-.64-.1-.237-.038-.473-.078-.711-.112-.206-.03-.415-.055-.623-.083-.23-.031-.459-.064-.69-.092-.143-.063-.287-.122-.43-.182s-.259-.112-.388-.165c-.148-.06-.3-.117-.444-.175s-.272-.108-.407-.159-.286-.1-.429-.156-.282-.1-.422-.152-.278-.093-.416-.139-.289-.1-.434-.144-.274-.083-.411-.125-.292-.09-.439-.133-.271-.075-.407-.112-.295-.083-.442-.121-.27-.067-.405-.1-.3-.075-.444-.11-.273-.061-.41-.091-.293-.067-.439-.1-.282-.056-.424-.084-.284-.058-.426-.084-.292-.051-.438-.076-.274-.049-.412-.071-.3-.045-.446-.067-.269-.042-.4-.061c-.154-.021-.309-.04-.463-.059-.129-.017-.258-.035-.387-.05-.161-.019-.323-.035-.485-.052-.122-.013-.245-.028-.367-.039-.165-.016-.331-.03-.5-.044-.119-.01-.238-.022-.356-.031-.177-.014-.354-.025-.53-.037l-.322-.022c-.187-.011-.375-.02-.562-.029l-.292-.015c-.193-.008-.387-.014-.58-.02l-.276-.01c-.21-.006-.42-.009-.63-.012l-.226,0c-.22,0-.44,0-.66,0h-.2c-.235,0-.471,0-.706.006h-.153q-.391.006-.783.017h-.077q-.421.012-.844.028h-.02c-2.886.11-5.8.37-8.772.634-2.049.183-4.142.369-6.236.5q-1.047.067-2.094.114a.471.471,0,0,0-.063.007l-.022,0a13.412,13.412,0,0,1-5.1-.431c-1.777-.486-3-1.244-3.271-2.007a1.091,1.091,0,0,1-.041-.155,1.885,1.885,0,0,1,.625-1.5.528.528,0,0,0,.04-.053,24.716,24.716,0,0,1,1.678-2.27C11.182.191,26.336.694,41.021,1.182c2.273.076,4.48.148,6.629.179,2.035.03,4.017.023,5.951-.057,1.185-.028,2.624-.063,4.216-.132l.059,0q.442-.019.9-.042l.163-.009.823-.045.256-.016c.251-.015.5-.031.758-.048L61.1.986l.715-.053L62.186.9l.681-.058L63.285.8c.218-.021.435-.042.655-.064l.445-.048c.212-.023.424-.047.637-.072l.466-.057c.207-.026.414-.052.622-.079l.479-.067c.2-.029.408-.058.612-.089l.481-.076c.2-.032.4-.065.607-.1l.478-.085c.128-.023.257-.044.385-.068,1.194,1.675,2.509,3.279,3.781,4.833,3.236,3.95,6.582,8.035,8.007,13.393.577,2.167,1.012,4.126,1.433,6.02,1.22,5.49,2.205,9.923,5.665,14.542l-1.025-.629Z" transform="translate(52.776 111.325)"/><path class="d" d="M59.444,56.091c-.166-.163-.333-.325-.5-.488-.25-.248-.5-.5-.745-.747l-.469-.471-.547-.555-.6-.606c-1.029-1.047-2.077-2.114-3.16-3.173-3.054-3-6.1-6.092-9.1-9.175-1.681-1.728-3.348-3.453-4.994-5.157q-1.848-1.913-3.709-3.833l-.076-.078-1.123-1.156-.22-.226-.983-1.008-.319-.326-.892-.911-.378-.385-.844-.857-.412-.417-.815-.823-.434-.438-.8-.807-.44-.44-.8-.8-.455-.452-.8-.792-.444-.437q-.417-.41-.836-.817l-.418-.407q-.446-.433-.893-.864l-.365-.353q-.557-.536-1.117-1.068l-.143-.137q-.636-.6-1.275-1.2l-.285-.266q-.489-.457-.979-.912c-.159-.148-.32-.295-.48-.442q-.4-.365-.792-.728l-.54-.49q-.369-.335-.739-.669l-.571-.511q-.357-.318-.714-.636l-.595-.524-.7-.609q-.307-.267-.615-.533-.341-.3-.684-.588l-.625-.532q-.341-.29-.684-.577l-.63-.527q-.343-.285-.687-.568l-.633-.519Q9.048,6.773,8.7,6.5q-.318-.257-.637-.512-.349-.279-.7-.554c-.212-.167-.423-.334-.635-.5q-.356-.278-.714-.552c-.21-.161-.419-.323-.629-.483-.246-.187-.493-.372-.741-.558-.2-.153-.407-.307-.611-.459-.267-.2-.536-.394-.8-.59-.185-.136-.37-.272-.555-.407Q2.1,1.47,1.53,1.066L.979.679Q.49.338,0,0C15.586,3.639,31.229,7.074,46.484,10.422v0l.037.008v0c17.58,3.859,35.534,7.8,53.456,12.07l.814.195q2.212.528,4.424,1.063l1.449.353q1.91.464,3.819.933l1.838.456q1.718.426,3.436.856,1.059.265,2.116.535,1.584.4,3.166.8,1.142.292,2.282.588,1.5.388,3,.779,1.19.311,2.377.626l2.081.552c-4.616,2.025-10.071.807-15.821-.477-7.864-1.756-15.995-3.572-23.332,2.311-2.928,2.347-5.688,4.878-8.357,7.326l-.908.832c-.206-.061-.412-.124-.618-.187-.249-.076-.5-.151-.745-.23s-.523-.172-.784-.26c-.244-.082-.489-.162-.733-.247-.263-.091-.526-.187-.789-.282-.241-.087-.483-.173-.724-.263-.264-.1-.527-.2-.79-.3-.239-.093-.478-.183-.716-.278-.264-.105-.527-.214-.791-.322-.237-.1-.474-.193-.712-.292-.265-.111-.53-.226-.794-.341-.235-.1-.469-.2-.7-.3-.266-.117-.532-.238-.8-.359-.233-.105-.466-.209-.7-.316-.266-.122-.532-.248-.8-.372-.233-.109-.466-.217-.7-.328-.268-.127-.535-.258-.8-.388-.231-.112-.462-.223-.694-.336-.267-.131-.535-.266-.8-.4-.233-.116-.465-.23-.7-.348-.265-.134-.53-.27-.8-.405-.235-.12-.47-.239-.706-.36-.269-.139-.538-.28-.807-.419l-.7-.363c-.284-.149-.57-.3-.855-.451l-.654-.346-.982-.524-.532-.284q-1.521-.816-3.061-1.649c-4.33-2.339-8.8-4.751-13.367-6.9a3.779,3.779,0,0,0-4.137-.086,3.737,3.737,0,0,0-1.437,3.062,3.955,3.955,0,0,0,.061.647,3.71,3.71,0,0,0,.086.367,2.9,2.9,0,0,0,1.562,1.889c1.282.843,2.628,1.709,3.93,2.548l.874.563q1.216.783,2.433,1.574l.173.113.662.433.209.137.646.425.225.148.6.4.275.183.571.384.293.2.555.377.307.209.527.362.332.229.512.357.337.236.5.356.341.243.486.351.352.256.469.346.358.265c.154.115.307.23.46.346l.359.271.446.343.363.281.432.34.367.291.418.338.368.3c.136.111.27.224.4.336s.246.205.369.309.264.225.4.338l.364.314.384.338c.122.108.243.216.364.324s.248.224.371.337l.361.332.358.337q.18.171.359.342t.345.336q.178.175.354.35t.334.338q.175.179.349.36t.321.338q.173.183.342.368t.31.341q.169.188.336.377.15.17.3.341.166.192.328.386.144.172.286.344.161.2.318.393.139.173.275.348.156.2.308.4.133.175.263.35.151.2.3.41.128.177.253.356l.116.168-.958.816-.249.212c-2.2,1.88-4.683,4-7.037,5.723q-.273-.254-.544-.509c-.176-.166-.352-.331-.527-.5C59.933,56.57,59.688,56.33,59.444,56.091Z" transform="translate(33.845 137.943)"/><path class="e" d="M76.007,93.7c-.059-.148-.119-.3-.179-.442-.068-.168-.137-.336-.207-.5-.062-.146-.126-.29-.19-.435-.072-.165-.144-.33-.219-.493-.066-.144-.133-.286-.2-.429-.076-.161-.151-.323-.229-.482-.069-.142-.14-.282-.21-.422-.079-.158-.159-.317-.24-.473-.072-.139-.146-.276-.219-.413-.083-.156-.166-.312-.252-.467-.075-.136-.152-.27-.228-.4-.087-.153-.174-.306-.262-.458-.078-.134-.158-.267-.238-.4-.09-.15-.18-.3-.272-.448-.081-.132-.164-.262-.247-.393-.093-.147-.187-.294-.282-.44-.085-.13-.171-.258-.257-.387-.1-.144-.193-.288-.291-.43s-.177-.255-.266-.381-.2-.282-.3-.422-.183-.25-.275-.374-.205-.277-.31-.414-.188-.246-.283-.368-.211-.272-.318-.406-.195-.243-.293-.364-.216-.265-.326-.4-.2-.239-.3-.358-.221-.26-.333-.389-.207-.236-.311-.353-.227-.255-.342-.382-.211-.231-.318-.346-.232-.25-.35-.374-.217-.228-.327-.342-.238-.246-.358-.367-.222-.224-.334-.335-.243-.241-.366-.361-.227-.22-.342-.33-.247-.236-.372-.353l-.351-.327q-.188-.174-.378-.346l-.358-.321q-.192-.171-.386-.34l-.363-.314-.394-.335-.371-.311q-.2-.164-.4-.328l-.378-.306-.406-.322-.384-.3-.412-.317-.39-.3q-.207-.156-.417-.311t-.4-.291q-.211-.154-.424-.307l-.4-.286-.432-.3-.4-.281-.438-.3q-.2-.138-.409-.275l-.443-.294-.416-.272q-.224-.146-.449-.289l-.418-.267c-.152-.1-.305-.192-.459-.288l-.418-.259L54,69.893l-.424-.257-.467-.278-.429-.254-.475-.277-.429-.248-.481-.274-.433-.245-.485-.27-.435-.241-.492-.268-.436-.236-.5-.266-.437-.232-.5-.263-.439-.229-.5-.259-.445-.228-.514-.259-.436-.219-.532-.264-.426-.21-.548-.268-.414-.2-.563-.271-.408-.2-.566-.269-.408-.193-.571-.267-.408-.191-.59-.273-.388-.179-.6-.275-.387-.177-.608-.275-.376-.17-.686-.308-.294-.132-.75-.333-.242-.108-.769-.34-.226-.1-.87-.382-.119-.052q-2.5-1.093-5-2.169l-1.529-.661A212.185,212.185,0,0,1,6.5,47.066a31.841,31.841,0,0,1-4.455-2.858c-.7-.534-1.38-1.1-2.043-1.693V.627C.105.577.21.527.316.481S.517.4.617.353s.226-.1.341-.14S1.167.135,1.271.1L1.535,0C6.9,1.214,12.441,2.5,18.006,3.813c2.018.494,4.148,1.009,6.491,1.569q2.88.69,5.765,1.368c.169.108.337.22.506.329.3.192.593.384.888.579.193.128.384.259.577.388.28.188.561.375.841.566.2.138.4.279.6.419.268.186.537.37.8.559.213.151.426.3.639.456.253.181.507.36.759.543.23.167.459.337.688.505s.468.342.7.515.484.365.726.547c.218.165.437.328.655.495.257.2.513.4.769.594.2.155.4.309.6.466.275.215.548.433.822.651.181.143.362.285.542.429.292.234.582.47.872.706.161.131.323.26.483.392.306.25.61.5.914.756.145.12.29.239.435.36q.49.41.978.826c.12.1.241.2.362.306q.511.436,1.02.878l.314.271q.527.457,1.05.921l.277.242q.564.5,1.126,1l.193.172q.579.52,1.155,1.046l.159.144q.608.555,1.212,1.115l.094.086q1.291,1.2,2.569,2.412l.027.026C60.663,32.192,66.506,38.239,72.264,44.2c4.59,4.751,9.335,9.661,14.117,14.358.679.663,1.344,1.332,2,2,.378.382.756.766,1.125,1.142q.58.59,1.17,1.188l.311.313q.435.438.874.875c.155.154.312.307.468.461q.371.365.747.728c.174.167.349.333.524.5.143.136.284.273.428.408a18.849,18.849,0,0,1-4.542,2.467C79.21,72.015,64.972,56.189,51.2,40.885,38.927,27.241,27.333,14.355,18.356,14.569a8.979,8.979,0,0,0-6.884,3.63,10.816,10.816,0,0,0-2.623,8.959c2.258,12.666,28.369,24.079,37.113,26.586,13.192,3.783,28.145,8.071,34.143,21.45a30.891,30.891,0,0,1,2.223,7.08,22.813,22.813,0,0,1,.364,3.754,14.578,14.578,0,0,1-2.867,9.348,11.769,11.769,0,0,1-2.469,2.367c-.008-.03-.018-.06-.026-.09-.044-.159-.091-.316-.137-.473-.053-.181-.1-.363-.16-.543-.048-.156-.1-.31-.148-.464-.057-.178-.113-.357-.172-.533-.052-.154-.106-.306-.159-.459-.061-.174-.121-.349-.184-.521-.055-.151-.113-.3-.17-.452C76.137,94.038,76.073,93.867,76.007,93.7Z" transform="translate(0 130.347)"/><path class="c" d="M28.25,25.235c-.11-.138-.221-.275-.333-.412-.1-.116-.192-.231-.289-.346-.112-.133-.224-.266-.338-.4-.1-.116-.2-.231-.3-.346s-.228-.259-.344-.387-.21-.231-.315-.346-.231-.251-.348-.375-.22-.232-.331-.348-.233-.242-.351-.363-.229-.232-.344-.348-.237-.236-.356-.354-.237-.232-.357-.347l-.357-.341q-.186-.176-.373-.351t-.357-.33q-.193-.176-.387-.352l-.357-.319-.4-.354-.356-.308q-.207-.178-.416-.355l-.356-.3-.427-.354-.36-.294q-.217-.176-.436-.352l-.359-.286-.45-.354-.354-.275-.464-.357-.353-.267c-.158-.119-.316-.239-.475-.357l-.348-.258-.489-.36-.343-.249-.5-.362-.339-.242-.515-.366-.328-.23-.53-.37-.32-.221-.546-.376-.31-.211-.557-.378-.3-.2-.575-.386-.263-.175-.614-.408L10.078,10l-.639-.42-.2-.133L8.555,9l-.108-.07q-1.7-1.1-3.394-2.194l-.118-.076L3.708,5.872C2.822,5.3,1.941,4.731,1.077,4.165a.473.473,0,0,0-.07-.038,1.591,1.591,0,0,1-.859-.946,2.333,2.333,0,0,1-.107-.4A2.639,2.639,0,0,1,0,2.343,2.479,2.479,0,0,1,.908.333a1.975,1.975,0,0,1,1.6-.277A4.424,4.424,0,0,1,3.724.522C7.294,2.2,10.79,4.036,14.2,5.866q1.435.77,2.851,1.536,1.551.838,3.082,1.66l.2.105q.65.348,1.3.692l.408.216q.549.291,1.1.579l.47.245q.514.268,1.027.534l.521.267q.486.249.972.5l.557.279q.467.234.934.464l.58.283q.456.222.912.44c.2.095.4.188.6.281q.447.211.894.418l.613.28q.438.2.876.393l.63.276q.431.187.864.37.321.136.643.268.426.176.853.347l.658.26q.421.164.844.323.335.126.671.25.417.153.836.3c.228.08.456.16.684.238.277.094.555.185.833.276.231.075.462.151.694.223.085.027.169.055.253.082-2.442,2.221-5.248,4.708-8.257,6.963-.835.626-1.787,1.409-2.536,2.037-.028-.04-.057-.079-.085-.119-.08-.114-.161-.227-.243-.339-.106-.147-.212-.295-.32-.441-.085-.115-.172-.228-.258-.342-.108-.142-.216-.285-.327-.426C28.433,25.463,28.341,25.349,28.25,25.235Z" transform="translate(74.565 160.934)"/><path class="c" d="M.14,11.095v0A9.571,9.571,0,0,1,2.5,3.164,7.66,7.66,0,0,1,8.423,0C16.813-.2,28.217,12.477,40.291,25.9c6.5,7.221,13.1,14.556,19.409,19.994-7.108-4.554-15.778-7.041-23.35-9.212C27.8,34.227,2.3,23.171.14,11.095Z" transform="translate(9.964 146.188)"/></g><path class="f" d="M1075.35,4049c-11.892-6.208-24.446-10.911-35.363-18.365-14.765-10.081-29.014-21.64-44.083-30.715-18.443-11.107-41.781-17.78-62.569-22.507-32.016-7.282-65.071-19.285-97.995-17.576-21.44,1.113-44.007,21.73-57.514,37.084-9.276,10.545-18.213,31.514-30.409,41.675-5.794,2.175-10.827,5.463-14.2,10.4Z" transform="translate(-179.96 -3338.792)"/><path class="g" d="M2138.556,3964.237a13.878,13.878,0,0,0-5.269,10.18c-.509,1.389-.1,3.087.829,4.817a10.54,10.54,0,0,0,4.626,5.717,18.974,18.974,0,0,0,4.572,3.283c7.819,3.472,16.2,4.878,24.134,8.107,6.278,2.553,13.553,3.561,19.578,6.638,3.785,1.933,13.716,12.886,18.334,9.739C2218.653,4003.658,2163.85,3945.787,2138.556,3964.237Z" transform="translate(-1367.185 -3339.606)"/><path class="h" d="M224.289,212.86l-77.608-13.006c-.335-.153-.669-.308-1-.47C130.83,192,119.43,183.018,111.094,172.555c-1.37-1.68-1.966-3.593-3.454-5.656-6.728-8.017-10.213-16.036-13.936-24.819-3.127-6.87-5.54-13.258-8.28-20.245-2.591-6.055-5.748-11.661-8.636-17.766-1.7-4.092-3.187-7.968-6.254-11.927C60.381,77.2,47.015,64.629,32.132,51.256,15.581,36.153,3.4,20.151.481,2.617A4.234,4.234,0,0,0,0,.989,34.186,34.186,0,0,0,4.586.4c.684-.067,1.7.465,2.38.4A13.706,13.706,0,0,1,13.632.469c.3.05,1.249-.516,1.547-.466a9.433,9.433,0,0,0,3.838.1c1.071-.183,2.38.4,3.66.432.982-.017,1.755-.25,2.737-.267,1.577.083,3.184.715,4.762.8,5.921.448,11.9.182,17.824.63,10.742.531,20.472.53,30.976.3,1.279.033,2.291.565,3.571.6,2.559.066,5.385-.367,7.766.032,3.065.332,5.832.615,8.689.731,2.559.066,4.762.8,7.231,1.03.982-.017,1.755-.25,2.738-.267,3.652.5,7.238,1.127,10.819,1.762,2.6-.24,5.174-.666,7.749-.1a6.49,6.49,0,0,0,1.547-.466c2.172.183,3.988,1.031,6.041.831s4.255.532,6.308.332a13.949,13.949,0,0,1,3.838.1c.3.05.862-.4,1.547-.466.982-.017,1.7.466,2.38.4a7.127,7.127,0,0,1,3.928-.067c.3.05.863-.4,1.547-.466a10.91,10.91,0,0,1,2.381.4c.982-.017,1.755-.25,2.738-.267a37.588,37.588,0,0,0,6.219.5c2.053-.2,3.869.648,6.041.831A6.443,6.443,0,0,1,173.6,6.97c1.577.083,3.184.715,4.85.632,15.184-.05,29.747-.041,44.925-.705l.912.389Z" transform="translate(1930 485.916) rotate(90)"/><path class="i" d="M4151.418,2883.6c-23.733,16.452-24.269,50.768-6.752,71.741,8.885,10.638,19.36,18.927,25.447,31.77,4.914,10.369,6.241,21.292,7.332,32.427,1.047,10.67,8.552,33.813,21.458,41.14V2871.637A69.836,69.836,0,0,0,4151.418,2883.6Z" transform="translate(4674.65 -3488.697) rotate(90)"/><path class="j" d="M159.518,219.475q-2.462.715-4.955,1.2c-33.151,5.025-59.287-23.988-87.014-40.931-9.668-6.325-19.929-11.505-29.653-17.223-8.761-5.578-14.67-15.662-18.542-26.679C11.869,116.307-1.3,100.248.1,79.541,2.013,51.552,9.6,23.025,23.18,0H29.2C21.753,10.276,17.273,23.454,13.241,36.7,11.314,43.532,8.958,50.3,7.887,57.263,5.318,71.119,1.891,84.85,5.9,98.02c8.062,25.8,20.177,50,39.856,62.706,24.195,15.555,48.208,28.347,71.826,45.459a47.325,47.325,0,0,0,41.938,7.951Z" transform="matrix(0.259, 0.966, -0.966, 0.259, 1915.352, 498.857)"/><path class="j" d="M159.518,219.475q-2.462.715-4.955,1.2c-33.151,5.025-59.287-23.988-87.014-40.931-9.668-6.325-19.929-11.505-29.653-17.223-8.761-5.578-14.67-15.662-18.542-26.679C11.869,116.307-1.3,100.248.1,79.541,2.013,51.552,9.6,23.025,23.18,0H29.2C21.753,10.276,17.273,23.454,13.241,36.7,11.314,43.532,8.958,50.3,7.887,57.263,5.318,71.119,1.891,84.85,5.9,98.02c8.062,25.8,20.177,50,39.856,62.706,24.195,15.555,48.208,28.347,71.826,45.459a47.325,47.325,0,0,0,41.938,7.951Z" transform="translate(1311.042 684.467) rotate(121)"/></g></svg>