<svg xmlns="http://www.w3.org/2000/svg" width="324.5" height="480.177" viewBox="0 0 324.5 480.177"><defs><style>.a{fill:#894933;}.b{fill:#181a29;}.c{fill:#cc7547;}.d{fill:#fff5e8;}.e{fill:#e6d4ba;}.f{fill:#1e0f00;}</style></defs><g transform="translate(0 340.669)"><path class="a" d="M1592.7,2965.821c1.625.594,3.271,1.169,4.955,1.7,1,.4,2.2,0,3.206.4,1.4.6,2.605.4,4.009.6.4.2.4.6.8.8a6.923,6.923,0,0,1,2.6.6c1,.6,2.605.2,3.807.8,1,.4,2.2,0,3.207.2.4.2.6.8.8.8q18.036.3,36.071,0c.2,0,.6-.6.8-.8,4.609-.6,9.219.4,13.627-.6,3.808-.8,7.415,0,11.222-.2.2-.2.4-.6.8-.8,2.2-.4,4.408.2,6.413-.6,2-.6,4.208,0,6.413-.2.6-.2,1-.6,1.6-.8,2.405-.4,5.01.4,7.214-.6,1.2-.6,2.6-.4,4.008-.8,2.605-.6,5.411.4,8.016-.4,1.8-.6,3.206-.4,4.809-.6.4-.2.4-.6.8-.8,1.6-.4,3.407.2,5.01-.4,1.8-.8,4.208-.8,6.212-1.8a3.515,3.515,0,0,1,1.631-.21,65.524,65.524,0,0,0-34.342-12.069C1661.8,2948.307,1622.654,2944.3,1592.7,2965.821Z" transform="translate(-1510.905 -2893.64)"/><path class="b" d="M1513.832,2896.054c.448,1.8,1.344,2.805,1.792,4.007.9,2.405,2.689,4.409,3.586,6.413,1.12,2.805,3.137,5.01,4.258,7.415.9,2,2.688,2.806,3.137,4.609,0,.6-.224,1.2,0,1.6h.9c-.448,1,1.345,1.4.9,2.4h.9a15.548,15.548,0,0,0,3.585,4.81c1.568,1,4.258.8,4.706,3.207,0,.6.672,1,1.568.8v.8c1.12-.4,1.568,1.2,2.689.8v.8c2.913,1,4.93,3.207,8.066,4.008v.8c1.569,1.6,3.809,2,5.6,3.006.672.2,1.345,1.4,2.465,1v.8c1.568.6,3.81,1.4,4.706,2.4.224.2,1.12-.2,1.568,0a8.5,8.5,0,0,0,4.481,1.6c.225,0,.448.6.9.8.673.2,1.345-.2,1.793,0,1.12,1.2,1.793.6,2.689.8v.8a15.076,15.076,0,0,1,2.913.6c2.77,1.114,5.635,2.143,8.576,3.1,33.5-21.518,77.273-17.514,115.961-15.784a78.973,78.973,0,0,1,38.4,12.069,1.882,1.882,0,0,0,.865-.191c1.12-.8,2.688-.2,3.585-1.4.448-.2,1.345.2,1.793,0,1.568-1.4,3.585-1.4,5.6-2.2a87.974,87.974,0,0,0,8.964-4.009,12.508,12.508,0,0,1,3.361-1.2c.672,0,1.12-1,1.793-1.4,2.913-1.4,5.378-2.4,8.291-3.808a23.251,23.251,0,0,0,2.465-1c1.345-1,2.913-2,4.258-2.8,13.445-7.215,23.3-16.633,33.164-27.855a17.329,17.329,0,0,0,1.344-2c2.689-4.608,6.5-8.216,8.739-13.025h.9c.448-.8,1.345-2.2,1.569-2.605a48.211,48.211,0,0,0,3.024-4.941,14.157,14.157,0,0,0-2.078.067c-.268.24-.537.72-.805.72-2.417.241-4.835-.24-7.253,0v.721c-1.88.48-4.029-.24-5.64.48-2.955,1.2-6.984-.241-9.669.72-5.372,1.442-11.818,0-16.922.481-18.8,1.441-37.6.72-56.4.48-.268,0-.538-.721-.806-.721-12.355-.24-24.711.241-37.066,0-.268,0-.538-.48-.806-.72-2.954-.481-6.177.24-8.863-.24a52.707,52.707,0,0,0-13.7-.241c-7.789,1.2-15.578-.24-23.368.721-4.835.721-9.132,0-13.7.48-.268,0-.538.721-.806.721-10.744.24-21.487-.24-32.231,0-.268,0-.537.721-.806.721-4.565.24-9.132-.24-13.7,0-.268,0-.538.48-.806.72a17.177,17.177,0,0,1-4.835.241c-19.338,1.44-38.677.24-58.016.479v.721c-.805.24-1.611-.24-2.417,0v.72c-1.075.241-2.417.241-3.223.481-1.518.247-3.038.413-4.556.514A65.049,65.049,0,0,1,1513.832,2896.054Z" transform="translate(-1511.201 -2881.285)"/></g><path class="c" d="M1703.078,2964.52c-1.457-.291-2.913-.437-4.515-.728a75.2,75.2,0,0,0-16.021-1.893c-1.893,0-4.078-.728-6.116-.437-13.4,2.185-26.217,2.768-39.47,3.2-2.768.146-5.389.437-8.3.875-1.165.291-2.185,0-3.35.291-.4.088-.794.172-1.191.255l-.367.074q-.411.086-.823.168l-.435.086c-.253.049-.505.1-.758.146l-.449.085-.75.139-.438.078-.776.136-.4.069-.85.141-.322.053q-.524.084-1.048.166l-.121.019q-1.224.188-2.443.354l-.037.005q-.578.078-1.156.153l-.153.02q-.526.067-1.05.131l-.177.021-1.047.122-.149.016q-.555.062-1.11.122l-.072.008q-.725.076-1.451.148l-.381.034q-.669.064-1.336.123c-.131.011-.26.024-.391.035h0l-.1.008c-.061.094-.12.19-.177.289a4.288,4.288,0,0,1-2.767,2.476v.583c-.146,1.02-1.02.437-1.457,1.02-1.6,2.767-4.515,4.223-7.282,5.971-.875.437-.437,2.039-1.748,1.748.292.728-.875,1.02-.583,1.748a.92.92,0,0,0-1.165.582c-.437,2.185-1.748,3.35-2.33,5.244a5.03,5.03,0,0,1-.438,1.893c-.291.291,0,1.02-.145,1.6h-.583c-.291.728.146,1.6-.437,2.476s0,2.331-.582,3.5c-.874,2.039-.291,4.661-.437,6.845q-.108,1.552-.193,3.1h.191c.145.582-.145,1.165,0,1.747h.583a7.037,7.037,0,0,1,0,1.748c.728-.145.874,1.165,1.165,1.748h.582c-.291.728.874,1.02.583,1.748h.583c1.6,3.058,4.078,5.243,6.408,7.574h.583c-.145.582.145.874.583,1.165a85.015,85.015,0,0,0,8.156,4.078v.583c1.311-.146,2.476,1.165,3.641,1.6a32.019,32.019,0,0,1,3.932,1.894c.292.145.728-.146,1.165,0,.292.145.292.437.583.582.437.146.728-.145,1.165,0,.292.146.292.437.583.583.728.145,1.6-.146,2.33,0,.292.145.292.437.583.582,1.747.291,3.35-.145,5.243.291,3.349.728,6.554-.145,9.9.583,2.331.437,4.661,0,6.991.292.437.145.728.582,1.165.582,15,.146,29.857.728,44.859-.292,2.33-.291,5.243.438,7.428-.437,1.6-.728,3.787.146,5.244-.582s3.35,0,4.806-.437c.291-.145.437-.437.583-.582,1.31-.146,2.767.145,4.078,0,.146-.146.292-.437.582-.583.728-.145,1.748.292,2.185-.145.874-.583,1.894-.146,2.331-.583.874-.582,1.6-.292,2.476-.437.292-.145.437-.583.582-.583,1.748.146,3.2-.874,4.661-1.747.292-.146.728.146,1.165,0,.291-.146.291-.437.583-.583.437-.146.874.145,1.165,0v-.583c.583.146,1.02-.145,1.748-.292a35.608,35.608,0,0,1,3.5-1.456v-.582c.292-.146.874.145,1.165,0,1.02-.728,1.893-1.311,3.058-2.185a4.509,4.509,0,0,1,2.768-1.311v-.582h.583c-.146-.583.145-.874.582-1.166h.583v-.582c1.02.146,1.165-.728,1.748-1.165v-.583h.582c-.291-1.165,1.457-1.165,1.166-2.33h.582c.576-2.017,2.292-3.608,1.764-5.756a4.808,4.808,0,0,1-.6-1.135c-.146-.874.145-1.748,0-2.622-.146-.292-.728-.583-.875-.874a16.955,16.955,0,0,1-.038-2.207c-.618-1.095-1.247-2.194-1.855-3.328-2.04-3.932-3.933-7.428-5.68-11.36-.047-.117-.092-.234-.138-.352a.893.893,0,0,1-.444-.522c-.874-3.933-4.224-5.389-5.826-8.74h-.583c-3.5-3.495-6.845-7.282-11.069-10.486-.291-.146-.874.146-1.165,0a25.476,25.476,0,0,0-2.515-1.71,3.581,3.581,0,0,1-1.006-.079,1.4,1.4,0,0,1-.154-.06,21.138,21.138,0,0,1-3.653-.267c-.371-.061-.744-.131-1.119-.214A27.235,27.235,0,0,0,1703.078,2964.52Zm-5.09,10.088h0a.92.92,0,0,0,.073-.086A.92.92,0,0,1,1697.989,2974.607Z" transform="translate(-1509.323 -2555.325)"/><path class="d" d="M1823.926,2716.857c.544-8.352-.368-16.466-.964-24.759-.025-.488-.531-.789-.719-1.269a28.305,28.305,0,0,0-.76-5.183c-.59-1.927-.2-3.906-.469-5.851-.188-.48-.531-.789-.718-1.269-.206-.8.069-1.8-.136-2.6-3.583-12.381-6.447-23.493-9.876-36.046-.4-1.448-1.6-2.528-1.831-3.822-.239-1.457-1.275-2.545-1.506-3.839a9.448,9.448,0,0,0-.949-2.562c-.18-.318.121-.823-.068-1.3-.565-1.44-1.6-2.528-1.7-4.482-.042-.813-1.062-1.576-1.113-2.553a14.95,14.95,0,0,0-1.7-4.482c-.181-.317-.042-.813-.069-1.3a22.637,22.637,0,0,0-2.19-4.456c-.18-.317-.042-.814-.068-1.3-.607-2.253-1.995-3.813-2.91-5.724-.18-.318.112-.985-.068-1.3-2.808-3.771-4.314-7.61-6.633-11.407-1.421-2.21-3.142-3.916-4.734-6.281-.343-.308-.994-.275-1.337-.584-1.66-2.513-4.14-4.267-5.629-6.565a49.411,49.411,0,0,1-4.623-2.411l3.759,1.026a47.462,47.462,0,0,0-4.3-4.377c-1-.572-2-1.305-3-1.807-1.106-.483-2.2-1-3.266-1.55-1.643-.42-3.276-.909-4.906-1.424-4.012-3.074-7.89-6.187-11.5-8.713a24.956,24.956,0,0,1-3.6-1.565v.416h0v-.416a8.232,8.232,0,0,1-.947-.656c-.841-.455-1.614-1.075-2.472-1.63a2.063,2.063,0,0,0-.9-.163l-.02-.375a25.58,25.58,0,0,1-2.835-1.324c-.327-.163-.816.163-1.3,0-.326-.163-.326-.489-.651-.652-.652-.162-1.3.163-1.956,0-.326-.162-.326-.489-.652-.651-.815-.163-1.793.162-2.608,0v-.652c-1.141-.162-2.119.163-3.26,0v-.651c-.816-.327-1.467.162-2.771-.489-.978-.489-2.445,0-3.749-.163v-.652c-.652-.163-1.3.163-1.956,0v-.652c-1.467-.489-2.771.326-4.727-.489-1.467-.652-3.423.326-4.89-.326-1.63-.652-3.586-.163-5.379-.489-.326-.163-.489-.488-.652-.652-1.956-.163-3.912.163-5.868,0-.162-.163-.489-.652-.651-.652-4.4-.163-8.639-.652-13.04.326a27.363,27.363,0,0,0-3.26.326v.652c-.652.163-1.467-.163-1.793.163a5.629,5.629,0,0,1-2.119.489c-1.63.652-2.933,1.793-4.564,2.608v.651c-.815-.326-1.14.978-1.956.652v.651h-.651c.162,1.63-2.119,1.63-1.956,3.261h-.652c.327,1.3-1.63,1.3-1.3,2.607h-.652c-.163.326,0,.815,0,1.3-1.141-.162-1.467,1.793-1.793,2.771-.163.815-.815,1.3-.815,2.445h-.652c-.162.652.327,1.141-.651,1.956-.163.326.162.815,0,1.3-.163.327-.489.327-.652.652-.163.489.163.815,0,1.3-.163.326-.489.326-.652.652-.162.489.163.815,0,1.3-.162.326-.489.326-.651.653-.163.651.162,1.3,0,1.955h-.652a1.7,1.7,0,0,0-.077.254,2.071,2.071,0,0,1-.018.552c-.01.02-.021.037-.031.055a3.554,3.554,0,0,1-.363,1.91,1.789,1.789,0,0,0-.091.224,1.267,1.267,0,0,1-.131.9,23.49,23.49,0,0,1,.06,2.63c-.163.162-.489.326-.652.651-.423,1.128.251,2.135-.193,3.441a6.476,6.476,0,0,1-.009.712c-.11.122-.3.25-.458.435-.111.782.24,1.762-.155,2.421-.029.05-.052.1-.076.149a23.724,23.724,0,0,1,.119,4.859c-.739,4.609-.013,9.141.388,13.69.008.164.5.3.685.617.2.806-.069,1.8.3,2.6.54.951.436,2.1.658,3.23.189.48.531.789.719,1.269.205.806-.224,1.97.29,2.433.7.943.265,1.946.787,2.571.7.943.265,1.945.787,2.571.7.942.265,1.945.8,2.732a2.838,2.838,0,0,1,.59,1.928c.008.163.677.454.685.617a5.583,5.583,0,0,0,.787,2.57c.2.643-.1,1.311.1,1.954.753,1.919,1.66,3.667,1.608,5.792.008.162.513.463.685.617a22.92,22.92,0,0,0,.726,4.532c.556,1.277.135,2.6.367,3.9.188.48.531.789.718,1.269.239,1.456,0,3.1.238,4.557.171.154.677.455.685.617.433,8.3,1.679,16.562-.664,24.844-.129.659.231,1.294.1,1.953-.137.5-.446.839-.584,1.336.026.488.042.814.069,1.3-.138.5-.447.839-.584,1.336.025.489.214.968.068,1.3a131.585,131.585,0,0,1-5.352,13.173,21.851,21.851,0,0,0-1.612,3.512c-.3.505-.934.865-1.234,1.37-.292.668-.249,1.482-.549,1.987-4.294,5.284-8.126,10.053-12.242,15.654-.446.839-.72,1.833-1.166,2.672-4.124,5.438-7.6,10.842-9.886,17-1,2.663-2.488,5.515-2.986,8.479a9.483,9.483,0,0,1-.678,2.647c-.146.335.042.814.068,1.3-.137.5-.446.84-.583,1.336l.068,1.3c-.137.5-.446.839-.583,1.336.025.488.042.814.068,1.3-.138.5-.447.839-.584,1.336.151,6.031.474,12.216.95,18.231.189.479.531.788.719,1.268.2.642-.1,1.311.1,1.953a6.144,6.144,0,0,1,.787,2.57c.009.163.677.455.685.617.085,1.628.975,3.051,1.54,4.49l.068,1.3a8.212,8.212,0,0,0,1.4,1.885c.18.318-.112.985.068,1.3a108.281,108.281,0,0,1,6.335,8.811c.343.309,1.157.266,1.173.592,1.087,2.064,2.758,2.794,4.145,4.354a6.554,6.554,0,0,0,2.226,2.006c.334.146.367.8.71,1.105,2.844,1.321,4.453,4.012,7.442,5,.5.137.856.771,1.361,1.071a136.5,136.5,0,0,0,14.408,6.675,156.2,156.2,0,0,0,34.417,5.988c6.105.358,12.187.215,18.282.207q.727-.062,1.456-.121c.642-.2,1.277-.557,1.919-.753a68.122,68.122,0,0,0,14.814-3.873,9.462,9.462,0,0,0,2.562-.949c.318-.179.814-.042,1.3-.068.479-.189.788-.531,1.268-.719.488-.025.985.112,1.3-.068,2.691-1.609,5.578-2.576,8.261-4.347,3.779-2.646,7.43-4.631,11.209-7.277,5.827-4.057,9.642-9.153,15.119-13.682.308-.343.266-1.157.592-1.174,2.228-1.095,2.589-3.562,4.311-4.958,4.4-3.33,6.952-7.543,10.158-11.791,1.981-2.715,3.789-5.583,5.752-8.624.292-.669.258-1.319.549-1.988,1.3-3.332,3.439-6.054,5.068-9.241,3.242-6.7,6.355-12.736,7.437-20.137.507-2.8,1.519-5.3,1.71-7.923a16.729,16.729,0,0,1,.61-3.95,7.819,7.819,0,0,0-.1-1.953c.129-.66.421-1.327.55-1.987C1824.172,2721.577,1823.89,2719.307,1823.926,2716.857Z" transform="translate(-1499.592 -2478.965)"/><g transform="translate(29.103)"><g transform="translate(27.261)"><path class="e" d="M1583.634,2465.333c-1.115-.388-2.219-.774-3.3-1.167A9.888,9.888,0,0,0,1583.634,2465.333Z" transform="translate(-1580.258 -2464.031)"/><path class="f" d="M1583.591,2465.446a10.008,10.008,0,0,1-3.35-1.184l.123-.262c1.087.394,2.181.776,3.3,1.166Z" transform="translate(-1580.241 -2464)"/></g><g transform="translate(96.093 68.34)"><path class="e" d="M1664.694,2547.832c8.2,10.642,18.316,19.547,30.769,25.191-.4-.329-.821-.65-1.256-.957A156.258,156.258,0,0,1,1664.694,2547.832Z" transform="translate(-1664.579 -2547.732)"/><path class="f" d="M1696.4,2573.6l-1.023-.464c-11.6-5.257-21.969-13.747-30.825-25.234l.221-.188a155.321,155.321,0,0,0,29.485,24.211c.421.3.834.611,1.27.967Zm-29.712-23.478a80.737,80.737,0,0,0,27.629,22.2c-.073-.054-.147-.106-.221-.158A157.279,157.279,0,0,1,1666.689,2550.118Z" transform="translate(-1664.553 -2547.71)"/></g><g transform="translate(126.014 93.035)"><path class="e" d="M1702.383,2578.688q.352.285.688.58c-.08-.124-.156-.249-.237-.373C1702.683,2578.828,1702.534,2578.757,1702.383,2578.688Z" transform="translate(-1701.42 -2578.093)"/><path class="f" d="M1703.542,2579.932l-.783-.687c-.218-.192-.448-.385-.684-.577l-.871-.708,1.221.554.252.115.04.018.024.036c.041.064.082.128.122.193s.076.121.115.181Z" transform="translate(-1701.204 -2577.959)"/></g><g transform="translate(174.795 1.988)"><path class="e" d="M1764.36,2582.154c-1.8-12.334,5.168-23,11.291-34.032,4.959-9.328,1.207-19.091,1.191-28.609-.094-2.065,1.878-4.223,2.611-6.326,1.748-7.114-3.093-13.517-1.759-20.613,1.81-8.178,3.164-16.1,5.828-23.674a10.083,10.083,0,0,0-.99-1.986c-1.307,7.3-5.286,14.154-7.217,21.68-1.038,4.045-.6,7.508-.394,11.636.226,4.623-2.075,6.807-3.657,10.883-3.333,8.588,1.664,18.014-.111,26.833-1.954,9.715-7.988,18.495-9.409,28.339a71.376,71.376,0,0,0,2.258,29.189,48.5,48.5,0,0,1,1.422,5.616A139.726,139.726,0,0,0,1764.36,2582.154Z" transform="translate(-1760.99 -2466.523)"/><path class="f" d="M1765.248,2601.029a48.068,48.068,0,0,0-1.417-5.6,71.024,71.024,0,0,1-2.264-29.254c.757-5.244,2.849-10.26,4.872-15.112a72.007,72.007,0,0,0,4.538-13.234c.792-3.934.217-8.065-.339-12.061-.686-4.929-1.394-10.026.456-14.8a33.775,33.775,0,0,1,1.585-3.382c1.189-2.3,2.217-4.288,2.063-7.441-.032-.642-.069-1.269-.105-1.883-.2-3.412-.378-6.359.5-9.8a83.861,83.861,0,0,1,3.412-9.835,62.685,62.685,0,0,0,3.8-11.835l.065-.365.2.313a10.29,10.29,0,0,1,1,2.015l.018.049-.017.049a142.314,142.314,0,0,0-4.649,18.166c-.377,1.793-.767,3.647-1.176,5.491-.639,3.4.172,6.71.955,9.911.842,3.441,1.714,7,.8,10.706a15.572,15.572,0,0,1-1.187,2.417,7.95,7.95,0,0,0-1.42,3.867,74.989,74.989,0,0,0,.685,8.6c.787,6.644,1.6,13.515-1.893,20.087-.6,1.086-1.212,2.165-1.82,3.243-5.694,10.092-11.072,19.625-9.456,30.7a139.966,139.966,0,0,1,1.067,18.958Zm17.326-133.806a65.072,65.072,0,0,1-3.75,11.519,83.773,83.773,0,0,0-3.4,9.8c-.87,3.394-.7,6.319-.495,9.707.037.615.073,1.243.105,1.887.158,3.231-.886,5.25-2.095,7.588a33.386,33.386,0,0,0-1.572,3.354c-1.824,4.7-1.12,9.758-.44,14.65.559,4.02,1.137,8.176.336,12.158a72.23,72.23,0,0,1-4.555,13.289c-2.016,4.835-4.1,9.834-4.853,15.042a70.71,70.71,0,0,0,2.253,29.125c.451,1.421.828,2.822,1.141,4.248a137.3,137.3,0,0,0-1.068-17.5c-1.629-11.171,3.772-20.745,9.491-30.882.608-1.078,1.217-2.157,1.818-3.239,3.449-6.49,2.641-13.315,1.86-19.915a75.246,75.246,0,0,1-.687-8.624,8.141,8.141,0,0,1,1.457-4.017,15.351,15.351,0,0,0,1.162-2.357c.889-3.623.027-7.147-.807-10.554-.791-3.231-1.609-6.572-.957-10.038.409-1.847.8-3.7,1.176-5.493a142.946,142.946,0,0,1,4.641-18.153A9.769,9.769,0,0,0,1782.573,2467.223Z" transform="translate(-1760.955 -2466.435)"/></g><g transform="translate(175.924 158.982)"><path class="e" d="M1764.486,2660.426q.056-.828.113-1.652a83.415,83.415,0,0,0-1.76,25.283c.773,7.619,1.575,15.088-.07,22.779C1770.5,2694.134,1763.742,2674.687,1764.486,2660.426Z" transform="translate(-1762.37 -2658.744)"/><path class="f" d="M1762.416,2707.636l.179-.837c1.612-7.537.882-14.728.108-22.341l-.04-.393a83.5,83.5,0,0,1,1.763-25.328l.287.04-.114,1.652a100.094,100.094,0,0,0,.953,15.61c1.218,11,2.477,22.377-2.69,30.865Zm1.87-46.712a81.091,81.091,0,0,0-1.334,23.111l.04.393c.746,7.345,1.453,14.3.063,21.564,4.6-8.319,3.384-19.3,2.208-29.922A104.708,104.708,0,0,1,1764.286,2660.924Z" transform="translate(-1762.338 -2658.737)"/></g><g transform="translate(196.428 3.935)"><path class="e" d="M1788.385,2469.347c-.268.762-.519,1.528-.763,2.3q.393-1.031.846-2.049C1788.441,2469.512,1788.415,2469.429,1788.385,2469.347Z" transform="translate(-1787.484 -2468.917)"/><path class="f" d="M1787.727,2471.6l-.273-.1c.272-.863.522-1.616.763-2.3l.135-.382.139.38c.023.061.042.123.063.183l.04.122-.023.052C1788.273,2470.22,1787.99,2470.907,1787.727,2471.6Z" transform="translate(-1787.453 -2468.82)"/></g><g transform="translate(172.331 14.368)"><path class="e" d="M1784.751,2535.078c2.18-6.719.642-13.272-1.309-19.806-3.106-11.14-5.217-22.729-3.324-33.632-1.054,4.453-1.934,9-2.959,13.638-1.335,7.1,3.506,13.5,1.759,20.612-.732,2.1-2.7,4.261-2.611,6.326.015,9.518,3.768,19.281-1.191,28.609-6.123,11.037-13.091,21.7-11.291,34.032a139.729,139.729,0,0,1,1.065,18.937,49.931,49.931,0,0,1-.731,20.859q-.178.8-.346,1.6-.056.825-.113,1.652c-.744,14.261,6.017,33.708-1.717,46.41-.059.274-.113.548-.178.823a23.232,23.232,0,0,1-3.026,6.787,4.617,4.617,0,0,1-.552-.329c.288,1.125.6,2.243.915,3.356,5.529-10.988,10.524-22.357,13.017-34.668C1779.9,2611.031,1773.214,2572.845,1784.751,2535.078Z" transform="translate(-1757.99 -2481.607)"/><path class="f" d="M1759.052,2685.341l-.1-.358c-.365-1.277-.656-2.345-.917-3.36l-.1-.371.318.216a4.754,4.754,0,0,0,.421.26,23.1,23.1,0,0,0,2.933-6.632c.046-.193.086-.385.126-.578l.069-.287c5.116-8.4,3.862-19.729,2.649-30.683a100.222,100.222,0,0,1-.954-15.66l.114-1.654c.115-.556.23-1.088.349-1.619a50,50,0,0,0,.729-20.8l0-.028a139.557,139.557,0,0,0-1.065-18.917c-1.629-11.171,3.772-20.745,9.491-30.882.608-1.078,1.217-2.157,1.818-3.239,3.449-6.49,2.641-13.315,1.86-19.915a75.274,75.274,0,0,1-.687-8.624,8.139,8.139,0,0,1,1.457-4.017,15.374,15.374,0,0,0,1.162-2.357c.889-3.623.027-7.147-.807-10.554-.791-3.231-1.609-6.572-.957-10.038.408-1.844.8-3.7,1.174-5.485.566-2.691,1.151-5.474,1.787-8.16l.284.058c-2.054,11.832.7,24.155,3.32,33.569,1.881,6.3,3.532,13.029,1.307,19.89-6.441,21.088-7.213,42.8-7.958,63.789-.594,16.752-1.21,34.073-4.629,51.4-2.631,12.99-8.063,24.834-13.03,34.706Zm-.645-3.434c.211.81.444,1.664.72,2.638,4.913-9.788,10.242-21.488,12.837-34.3,3.414-17.3,4.029-34.613,4.624-51.353.746-21.012,1.518-42.74,7.971-63.865,2.2-6.784.559-13.462-1.309-19.722-2.392-8.577-4.886-19.559-3.779-30.407-.354,1.61-.7,3.236-1.05,4.92-.376,1.79-.766,3.642-1.174,5.483-.639,3.4.172,6.71.955,9.911.843,3.441,1.714,7,.8,10.706a15.561,15.561,0,0,1-1.187,2.417,7.952,7.952,0,0,0-1.42,3.867,74.989,74.989,0,0,0,.685,8.6c.787,6.644,1.6,13.515-1.893,20.087-.6,1.086-1.211,2.165-1.82,3.243-5.694,10.092-11.072,19.625-9.456,30.7a139.885,139.885,0,0,1,1.067,18.944,50.293,50.293,0,0,1-.734,20.9q-.179.795-.346,1.6l-.035.53-.076,1.1a100.1,100.1,0,0,0,.953,15.61c1.217,10.992,2.474,22.359-2.677,30.844l-.046.217c-.041.2-.082.39-.128.585a23.4,23.4,0,0,1-3.046,6.834l-.071.105-.114-.056C1758.578,2682,1758.493,2681.958,1758.406,2681.907Z" transform="translate(-1757.937 -2481.599)"/></g><g transform="translate(173.474 6.435)"><path class="e" d="M1783,2485.087c.712,7.8,3.259,14.392,5.633,21.526l-6.89,137.622c-3.693,9.228-6.919,18.355-11.758,27.068-3.317,5.973-7.033,13.5-7.959,20.428-.038-.12-.072-.241-.11-.362-.857-2.493-1.652-4.991-2.381-7.511,8.019-12.359,12.965-29.943,16.551-45.274,3.421-15.88.234-31.463,2.4-47.7,1.2-9.987,3.667-19.617,4.044-29.566.152-5.8-2.174-11.489.061-16.971,2.63-5.912,4.434-11.788,4.567-18,.323-11.188-4.275-21.327-6.017-32.422-.874-7.3.77-14.171,2.688-20.991C1784.066,2476.727,1782.589,2480.632,1783,2485.087Z" transform="translate(-1759.372 -2472.075)"/><path class="f" d="M1762.043,2692.208l-.246-.792c-.02-.065-.039-.131-.06-.2-.864-2.511-1.666-5.041-2.383-7.515l-.018-.064.036-.056c8.25-12.716,13.168-30.851,16.531-45.227,1.886-8.752,1.757-17.6,1.632-26.165a145.834,145.834,0,0,1,.762-21.522c.46-3.811,1.112-7.626,1.743-11.314a140.672,140.672,0,0,0,2.3-18.238,40.53,40.53,0,0,0-.458-6.1c-.477-3.778-.927-7.346.53-10.918,2.99-6.724,4.438-12.426,4.556-17.95.2-6.983-1.483-13.416-3.265-20.227a124.42,124.42,0,0,1-2.75-12.17c-.89-7.432.842-14.475,2.692-21.052l.23-.819.055.849a26.333,26.333,0,0,1-.415,5.436,28.082,28.082,0,0,0-.412,6.713c.612,6.71,2.568,12.471,4.64,18.569q.493,1.452.987,2.925l.006.053-6.891,137.646-.009.023c-.717,1.79-1.426,3.6-2.112,5.359-2.957,7.557-5.749,14.7-9.653,21.726-2.951,5.313-6.984,13.207-7.942,20.377Zm-2.391-8.518c.689,2.372,1.456,4.795,2.281,7.206,1.1-7.049,5.008-14.675,7.885-19.856,3.9-7.013,6.685-14.143,9.637-21.691.684-1.747,1.39-3.554,2.1-5.338l6.888-137.571q-.486-1.461-.976-2.9c-2.078-6.115-4.039-11.892-4.654-18.636a28.288,28.288,0,0,1,.414-6.782,32.457,32.457,0,0,0,.439-4.423c-1.74,6.284-3.267,12.983-2.426,20.011a124.375,124.375,0,0,0,2.744,12.136c1.709,6.531,3.476,13.284,3.275,20.308-.119,5.562-1.575,11.3-4.58,18.057-1.426,3.5-.981,7.029-.509,10.769a40.8,40.8,0,0,1,.46,6.146,140.883,140.883,0,0,1-2.3,18.278c-.63,3.685-1.282,7.5-1.741,11.3a145.543,145.543,0,0,0-.76,21.48c.125,8.577.254,17.447-1.639,26.234C1772.824,2652.8,1767.905,2670.938,1759.652,2683.69Z" transform="translate(-1759.337 -2471.882)"/></g><g transform="translate(173.328 4.213)"><path class="e" d="M1778.445,2590.281c1.2-9.986,3.666-19.616,4.044-29.566.152-5.8-2.174-11.489.061-16.97,2.63-5.912,4.434-11.788,4.567-18,.323-11.188-4.275-21.327-6.017-32.422-.874-7.3.77-14.171,2.688-20.991a10.484,10.484,0,0,0-.512-2.681q-.454,1.019-.846,2.049c-.8,2.544-1.487,5.125-2.106,7.74-1.893,10.9.217,22.492,3.324,33.632,1.95,6.534,3.488,13.086,1.309,19.806-11.537,37.767-4.846,75.953-12.591,115.2-2.493,12.311-7.489,23.68-13.017,34.668.048.17.1.338.149.507,8.019-12.359,12.965-29.944,16.551-45.274C1779.469,2622.1,1776.282,2606.519,1778.445,2590.281Z" transform="translate(-1759.193 -2469.25)"/><path class="f" d="M1759.41,2683.512l-.152-.522c-.029-.1-.057-.194-.085-.291l-.016-.055.025-.051c4.959-9.855,10.38-21.676,13-34.631,3.414-17.3,4.029-34.613,4.624-51.353.746-21.012,1.518-42.74,7.971-63.865,2.2-6.784.559-13.462-1.309-19.722-2.635-9.446-5.392-21.81-3.328-33.7.688-2.906,1.377-5.442,2.111-7.759.267-.7.553-1.4.851-2.064l.152-.34.118.354a10.591,10.591,0,0,1,.519,2.718l0,.024-.007.024c-1.841,6.55-3.566,13.561-2.684,20.935a124.391,124.391,0,0,0,2.744,12.136c1.709,6.531,3.476,13.284,3.275,20.308-.119,5.562-1.575,11.3-4.58,18.056-1.426,3.5-.981,7.03-.509,10.769a40.8,40.8,0,0,1,.46,6.146,140.883,140.883,0,0,1-2.3,18.278c-.63,3.685-1.282,7.5-1.741,11.3a145.543,145.543,0,0,0-.76,21.48c.125,8.577.254,17.447-1.639,26.234-3.369,14.4-8.3,32.568-16.571,45.322Zm.058-.838c.015.049.029.1.043.147,8.147-12.7,13.02-30.684,16.36-44.961,1.886-8.752,1.757-17.6,1.632-26.165a145.831,145.831,0,0,1,.762-21.522c.46-3.811,1.112-7.626,1.743-11.314a140.672,140.672,0,0,0,2.3-18.238,40.53,40.53,0,0,0-.458-6.1,32.055,32.055,0,0,1-.375-7.213c-3.208,16.454-3.8,33.1-4.375,49.314-.594,16.752-1.21,34.073-4.629,51.4C1769.846,2660.986,1764.429,2672.812,1759.468,2682.674Zm23.75-212.7c-.24.553-.471,1.119-.687,1.687-.728,2.3-1.416,4.831-2.1,7.722-2.052,11.823.7,24.146,3.322,33.56,1.881,6.3,3.532,13.029,1.307,19.89-1.186,3.882-2.179,7.784-3.016,11.7q.148-.465.337-.93c2.99-6.724,4.438-12.426,4.556-17.95.2-6.983-1.483-13.416-3.265-20.227a124.425,124.425,0,0,1-2.75-12.17c-.888-7.423.838-14.458,2.685-21.029A10.443,10.443,0,0,0,1783.219,2469.972Z" transform="translate(-1759.158 -2469.16)"/></g><g transform="translate(40.658 98.341)"><path class="e" d="M1650.178,2628.37c9.742,4.94,13.568,16.355,21.394,24.692,8.73,9.113,19.56,14.338,30.841,19.382a25.314,25.314,0,0,0-3.035-3.606c-3.684-3.353-8.906-4.545-13.062-7.186a41.153,41.153,0,0,1-11.833-12.075c-3.571-5.337-5.5-11.745-9.411-16.854a54.828,54.828,0,0,0-13.387-11.911c-8.926-5.853-19.959-7.96-29.241-13.155-6.355-3.558-9.036-10.242-13.831-15.009-3.185-3.166-7.219-5.071-11.054-7.423a250.036,250.036,0,0,1,17.782,23.2C1623.317,2620.064,1637.884,2621.889,1650.178,2628.37Z" transform="translate(-1596.818 -2584.599)"/><path class="f" d="M1702.688,2672.659l-.5-.224c-11.326-5.063-22.211-10.358-30.886-19.414a76.942,76.942,0,0,1-7.591-10.1c-3.947-5.9-7.676-11.479-13.764-14.566a112.25,112.25,0,0,0-11.779-5.1c-9.039-3.506-17.577-6.817-23.112-14.9a248.183,248.183,0,0,0-17.771-23.185l-.633-.722.818.5c.929.57,1.886,1.123,2.81,1.656a39.045,39.045,0,0,1,8.27,5.787,48.654,48.654,0,0,1,4.774,5.857c2.485,3.395,5.056,6.905,9.025,9.127a97.748,97.748,0,0,0,13.292,5.778c5.436,2.05,11.056,4.169,15.957,7.383a54.816,54.816,0,0,1,13.423,11.944,53.186,53.186,0,0,1,5.245,9.184,64.149,64.149,0,0,0,4.172,7.677,40.975,40.975,0,0,0,11.79,12.034,42.086,42.086,0,0,0,5.361,2.716,28.44,28.44,0,0,1,7.72,4.484,24.833,24.833,0,0,1,3.055,3.628Zm-104.573-86.97a252.022,252.022,0,0,1,17.18,22.51c5.485,8.006,13.982,11.3,22.978,14.791a112.253,112.253,0,0,1,11.807,5.109c6.154,3.121,9.9,8.727,13.871,14.662a76.763,76.763,0,0,0,7.561,10.059c8.51,8.883,19.172,14.139,30.289,19.122a22.431,22.431,0,0,0-2.687-3.14,28.245,28.245,0,0,0-7.644-4.434,42.3,42.3,0,0,1-5.4-2.736,41.287,41.287,0,0,1-11.876-12.118A64.34,64.34,0,0,1,1670,2641.8a52.962,52.962,0,0,0-5.213-9.134,54.51,54.51,0,0,0-13.352-11.878c-4.876-3.2-10.48-5.311-15.9-7.355a98.008,98.008,0,0,1-13.332-5.8c-4.025-2.253-6.614-5.79-9.117-9.21a48.511,48.511,0,0,0-4.744-5.822,38.283,38.283,0,0,0-8.211-5.743C1599.47,2586.484,1598.79,2586.092,1598.114,2585.689Z" transform="translate(-1596.651 -2584.458)"/></g><g transform="translate(56.458 18.256)"><path class="e" d="M1683.789,2578.881c-2.121-1.146-6.251-.959-8.41-2.931-1.276-.77-2.2-2.8-3.509-4.394-2.646-3.605-6.081-6.347-8.745-10.365-4.429-6.422-8.407-12.035-12.422-18.476-7.975-11.641-18.3-20.279-24.658-32.822-2.72-5.258-2.193-11.9-5.758-17.535-1.28-1.967-2.632-4-4.125-5.885a24.642,24.642,0,0,1,1.7,4.16c2.723,8.878,2.557,16.964,8.052,24.78,6.229,8.86,11.843,17.712,17.665,26.65,3.3,5.069,8,9.381,11.913,14.052,4.253,5.071,7.421,10.772,11.468,15.921,5.106,6.5,13.932,9.318,19.22,15.778,5.06,6.179,8.184,13.677,13.818,19.562q1.886,1.971,3.612,4.014C1696.95,2599.854,1697.108,2584.052,1683.789,2578.881Z" transform="translate(-1616.033 -2486.382)"/><path class="f" d="M1703.469,2611.462c-1.105-1.314-2.319-2.662-3.605-4.007a65.119,65.119,0,0,1-7.907-10.921,81.733,81.733,0,0,0-5.918-8.65c-2.6-3.17-6.11-5.5-9.509-7.753-3.5-2.319-7.113-4.717-9.714-8.027-1.836-2.337-3.52-4.827-5.147-7.236a103.576,103.576,0,0,0-6.317-8.681c-1.354-1.615-2.829-3.216-4.254-4.765a73.344,73.344,0,0,1-7.669-9.3q-1.757-2.7-3.495-5.384c-4.52-6.974-9.193-14.186-14.168-21.261-3.739-5.318-4.863-10.735-6.054-16.468-.561-2.7-1.141-5.494-2.018-8.352a24.712,24.712,0,0,0-1.69-4.136l.243-.157c1.538,1.946,2.939,4.065,4.132,5.9,1.971,3.114,2.7,6.533,3.405,9.838a30.178,30.178,0,0,0,2.36,7.709c3.794,7.48,8.889,13.44,14.283,19.749a155.533,155.533,0,0,1,10.367,13.056c3.338,5.355,6.677,10.177,10.212,15.281q1.088,1.57,2.209,3.195a45.163,45.163,0,0,0,4.837,5.826,51.2,51.2,0,0,1,3.906,4.536c.477.579.9,1.217,1.315,1.834a8.365,8.365,0,0,0,2.152,2.521l.023.017c1.255,1.146,3.178,1.543,5.039,1.927a12.865,12.865,0,0,1,3.342.983c9.025,3.5,11.853,11.742,14.848,20.465a68.757,68.757,0,0,0,5.03,12.1Zm-86.587-123.792a25.042,25.042,0,0,1,1.089,2.9c.881,2.871,1.462,5.67,2.025,8.378,1.184,5.7,2.3,11.091,6.007,16.361,4.979,7.08,9.653,14.293,14.174,21.27q1.741,2.687,3.5,5.383a73.109,73.109,0,0,0,7.639,9.263c1.428,1.551,2.9,3.155,4.263,4.774a104.007,104.007,0,0,1,6.335,8.705c1.625,2.405,3.3,4.891,5.134,7.219,2.572,3.274,6.169,5.658,9.647,7.964,3.416,2.265,6.949,4.607,9.572,7.812a81.691,81.691,0,0,1,5.939,8.68,65,65,0,0,0,7.871,10.874c.945.986,1.848,1.975,2.7,2.95a77.721,77.721,0,0,1-4.373-10.913c-2.972-8.657-5.779-16.835-14.694-20.3a12.718,12.718,0,0,0-3.279-.962c-1.894-.391-3.852-.795-5.166-1.988a8.616,8.616,0,0,1-2.231-2.6c-.408-.611-.831-1.243-1.3-1.817a50.093,50.093,0,0,0-3.889-4.516,45.5,45.5,0,0,1-4.865-5.862q-1.119-1.624-2.207-3.192c-3.537-5.107-6.878-9.932-10.217-15.287a155.12,155.12,0,0,0-10.344-13.027c-5.406-6.322-10.512-12.295-14.321-19.8a30.412,30.412,0,0,1-2.385-7.782c-.7-3.281-1.423-6.673-3.366-9.742C1619.174,2490.939,1618.077,2489.276,1616.883,2487.67Z" transform="translate(-1616.004 -2486.362)"/></g><g transform="translate(10.371 1.16)"><path class="e" d="M1711.474,2651.741c-8.513-33.4-16.547-65.183-34.617-93.237q-.337-.3-.688-.58c-12.453-5.644-22.566-14.549-30.769-25.191a142.341,142.341,0,0,1-23.147-32.981c-4.99-9.707-11.972-17.668-21-25.124a49.752,49.752,0,0,0-16.97-8.75,23.565,23.565,0,0,1-4.453-.282c9.968,3.474,20.805,7.144,25.949,17.044,1.492,1.887,2.844,3.919,4.125,5.885,3.565,5.633,3.038,12.278,5.758,17.535,6.361,12.542,16.683,21.181,24.658,32.822,4.015,6.441,7.993,12.054,12.422,18.476,2.665,4.018,6.1,6.76,8.745,10.365,1.314,1.6,2.233,3.624,3.509,4.394,2.158,1.972,6.289,1.785,8.41,2.931,13.32,5.172,13.161,20.973,19.821,32.509a44.305,44.305,0,0,1,8.969,15.7c1.983,6.6,4.264,13.309,6.169,20,1.892,6.646,4.151,16.006,3.893,22.935-6.161.9-12.2-9.418-16.812-15.71-11.281-5.044-22.11-10.27-30.84-19.382-7.826-8.337-11.653-19.752-21.395-24.692-12.294-6.48-26.861-8.305-34.836-19.947a249.993,249.993,0,0,0-17.782-23.2,30.247,30.247,0,0,1-6.035-4.634c-4.83-4.968-9.451-7-16.129-8.707-2.8-.719-5.9-.836-8.819-1.358,25.488,8.628,40.269,34.5,56.231,56.6,8.838,12.43,21.471,17.239,34.967,22.837,6.326,2.612,13.478,5.185,18.264,10.349,13.394,14.085,28.8,24.83,43.733,36.731C1711.571,2667.575,1713.412,2659.574,1711.474,2651.741Z" transform="translate(-1559.563 -2465.453)"/><path class="f" d="M1713,2675.393l-.295-.235c-3.548-2.828-7.179-5.635-10.692-8.349-11.228-8.677-22.839-17.651-33.057-28.4-4.31-4.65-10.449-7.15-16.387-9.567q-.922-.376-1.826-.747l-1.811-.75c-12.73-5.262-24.753-10.232-33.22-22.138-2.292-3.173-4.6-6.487-6.839-9.692-13.538-19.408-27.538-39.478-49.32-46.851l.073-.281c1.164.208,2.38.354,3.555.5a41.477,41.477,0,0,1,5.275.864c6.49,1.665,11.221,3.63,16.2,8.748a30.6,30.6,0,0,0,6.007,4.611l.033.028a248.555,248.555,0,0,1,17.792,23.212c5.484,8.006,13.982,11.3,22.978,14.791a112.317,112.317,0,0,1,11.807,5.109c6.154,3.121,9.9,8.727,13.871,14.662a76.763,76.763,0,0,0,7.561,10.059c8.638,9.016,19.5,14.3,30.794,19.348l.035.016.023.031c.687.936,1.4,1.95,2.149,3.024,3.849,5.5,8.641,12.343,13.423,12.669a5.167,5.167,0,0,0,.982-.025c.176-5.413-1.132-13.072-3.893-22.768-1.111-3.9-2.368-7.869-3.584-11.7-.865-2.726-1.758-5.545-2.584-8.3a44.156,44.156,0,0,0-8.941-15.645l-.015-.02a69,69,0,0,1-5.053-12.15c-2.972-8.657-5.778-16.835-14.694-20.3a12.744,12.744,0,0,0-3.279-.962c-1.894-.391-3.852-.795-5.165-1.988a8.606,8.606,0,0,1-2.232-2.6c-.408-.611-.83-1.243-1.3-1.817a50.094,50.094,0,0,0-3.889-4.516,45.5,45.5,0,0,1-4.865-5.862q-1.119-1.624-2.208-3.192c-3.537-5.107-6.877-9.932-10.216-15.287a155.144,155.144,0,0,0-10.344-13.027c-5.406-6.322-10.512-12.295-14.321-19.8a30.412,30.412,0,0,1-2.385-7.782c-.7-3.281-1.423-6.673-3.366-9.742-1.188-1.826-2.584-3.937-4.115-5.873l-.015-.023c-5.052-9.722-15.441-13.342-25.489-16.841l-.38-.132.073-.28a16.817,16.817,0,0,0,1.856.223c.749.051,1.566.068,2.569.056h.021l.02.006a49.64,49.64,0,0,1,17.021,8.775c9.6,7.93,16.287,15.927,21.04,25.172A141.59,141.59,0,0,0,1645.5,2532.6c8.835,11.46,19.168,19.922,30.723,25.158l.031.02c.239.194.472.39.693.585l.026.03c17.973,27.9,25.992,59.365,34.48,92.672l.155.608c1.073,4.343.991,8.769.911,13.05a56.668,56.668,0,0,0,.421,10.3ZM1561.12,2548.914c21.033,7.792,34.733,27.431,47.991,46.438,2.235,3.2,4.546,6.516,6.837,9.688,8.418,11.84,20.4,16.794,33.094,22.04l1.811.75c.6.248,1.211.5,1.825.746,5.967,2.43,12.137,4.942,16.489,9.638,10.2,10.729,21.8,19.695,33.023,28.366,3.417,2.64,6.946,5.368,10.4,8.119a51.619,51.619,0,0,1-.394-8.388,5.43,5.43,0,0,1-1.094.034c-4.921-.336-9.757-7.243-13.642-12.792-.742-1.061-1.444-2.064-2.122-2.989-11.314-5.059-22.185-10.353-30.851-19.4a76.9,76.9,0,0,1-7.591-10.1c-3.947-5.9-7.676-11.478-13.764-14.565a112.239,112.239,0,0,0-11.779-5.1c-9.039-3.506-17.577-6.817-23.112-14.9a248.259,248.259,0,0,0-17.757-23.168,30.776,30.776,0,0,1-6.044-4.644c-4.928-5.069-9.62-7.017-16.062-8.669a41.351,41.351,0,0,0-5.236-.857C1562.477,2549.09,1561.8,2549.008,1561.12,2548.914Zm132.215,58.527a44.4,44.4,0,0,1,8.989,15.738c.825,2.748,1.719,5.566,2.582,8.291,1.217,3.837,2.474,7.8,3.586,11.712a100.665,100.665,0,0,1,3.774,18.553,40.608,40.608,0,0,0-.945-9.991l-.154-.607c-8.481-33.278-16.491-64.709-34.432-92.57-.209-.183-.429-.368-.654-.551-11.592-5.258-21.957-13.745-30.807-25.227a141.852,141.852,0,0,1-23.162-33c-4.734-9.209-11.4-17.177-20.963-25.078a49.346,49.346,0,0,0-16.9-8.717,28.929,28.929,0,0,1-3.039-.095c9.789,3.418,19.732,7.131,24.677,16.633,1.536,1.943,2.933,4.056,4.124,5.885,1.971,3.114,2.7,6.533,3.405,9.838a30.183,30.183,0,0,0,2.36,7.709c3.794,7.48,8.889,13.44,14.283,19.749a155.557,155.557,0,0,1,10.367,13.056c3.338,5.354,6.677,10.177,10.212,15.281q1.088,1.571,2.209,3.2a45.173,45.173,0,0,0,4.837,5.826,51.2,51.2,0,0,1,3.906,4.536c.477.579.9,1.217,1.315,1.834a8.367,8.367,0,0,0,2.152,2.521l.023.017c1.255,1.146,3.178,1.543,5.039,1.927a12.865,12.865,0,0,1,3.342.983c9.025,3.5,11.853,11.742,14.848,20.465A68.824,68.824,0,0,0,1693.334,2607.441Z" transform="translate(-1559.552 -2465.421)"/></g><g transform="translate(7.418 83.405)"><path class="e" d="M1583.577,2583.7c7.432,8.769,14.037,17.575,21.469,26.344,6.1,6.76,8.143,15.358,14.242,22.118a12.38,12.38,0,0,0,5.593,4.713c16.5,7.946,34.444,11.273,47.45,24.343,12.648,12.3,24.247,25.75,40.03,33.531-.011-.054-.024-.108-.034-.161-.069-.336-.128-.675-.184-1.014-14.93-11.9-30.34-22.646-43.733-36.731-4.786-5.164-11.937-7.738-18.264-10.349-13.5-5.6-26.129-10.407-34.967-22.837-15.962-22.1-30.743-47.969-56.231-56.6a20.462,20.462,0,0,1-2.938-.725c4.417,2.082,9.624,3.433,13.328,6.872.187.173.368.362.552.544A40.081,40.081,0,0,1,1583.577,2583.7Z" transform="translate(-1555.949 -2566.194)"/><path class="f" d="M1712.547,2694.976l-.265-.13c-12.926-6.373-23.243-16.735-33.22-26.756-2.232-2.242-4.54-4.56-6.845-6.8-8.985-9.028-20.138-13.323-31.947-17.87-5.1-1.966-10.384-4-15.465-6.445a12.477,12.477,0,0,1-5.651-4.764,52.9,52.9,0,0,1-7.129-11.071,52.754,52.754,0,0,0-7.1-11.03c-3.72-4.39-7.289-8.858-10.74-13.179s-7.017-8.785-10.731-13.168a39.97,39.97,0,0,0-13.633-9.909l-.045-.03-.167-.168c-.126-.127-.252-.254-.381-.373-2.647-2.457-6.1-3.853-9.434-5.2-1.286-.52-2.616-1.058-3.857-1.644l.108-.269a20.185,20.185,0,0,0,2.918.72c21.894,7.41,35.92,27.519,49.486,46.967,2.235,3.2,4.545,6.516,6.836,9.687,8.419,11.84,20.405,16.794,33.095,22.04l1.811.75c.6.248,1.211.5,1.825.746,5.967,2.43,12.136,4.942,16.489,9.638,10.2,10.729,21.8,19.695,33.023,28.366,3.513,2.715,7.145,5.522,10.694,8.351l.044.035.009.055c.065.394.123.714.183,1.008Zm-39.148-32.937c1.979,1.941,3.951,3.922,5.868,5.846,9.892,9.936,20.118,20.207,32.877,26.569-.049-.248-.1-.517-.15-.833-3.533-2.816-7.15-5.611-10.647-8.314C1691.952,2678.045,1682.29,2670.578,1673.4,2662.039Zm-64.33-46.789c1.167,1.894,2.2,3.839,3.212,5.751a52.7,52.7,0,0,0,7.1,11.03,12.216,12.216,0,0,0,5.533,4.674c5.086,2.449,10.359,4.479,15.458,6.443,11.389,4.386,22.171,8.537,31.009,16.921q-1.565-1.554-3.093-3.159c-4.31-4.65-10.45-7.15-16.386-9.567q-.922-.376-1.826-.747l-1.811-.75c-12.73-5.262-24.753-10.232-33.22-22.138C1613.048,2620.94,1611.034,2618.065,1609.069,2615.25Zm-39.109-41.655a40.282,40.282,0,0,1,13.711,9.974c3.72,4.389,7.289,8.858,10.74,13.178s7.018,8.786,10.731,13.169q.591.655,1.135,1.336c-12.954-18.52-26.64-37.064-47.39-44.088q-.557-.1-1.069-.212c.692.293,1.394.576,2.081.855,3.362,1.36,6.837,2.767,9.523,5.26.131.123.26.251.389.381Z" transform="translate(-1555.935 -2566.163)"/></g><g transform="translate(20.713 90.523)"><path class="e" d="M1675.453,2662.884c-13.006-13.07-30.952-16.4-47.45-24.343a12.38,12.38,0,0,1-5.593-4.713c-6.1-6.76-8.143-15.359-14.242-22.118-7.432-8.769-14.037-17.575-21.469-26.344a40.081,40.081,0,0,0-13.687-9.949c5.248,5.2,9.271,13.866,13.5,19.95,5.981,8.6,10.047,18.236,14.8,27.516,5.422,10.594,9.064,20.911,19.063,28.065,8.965,6.413,19.319,7.411,29.293,11.509,6.025,2.475,10.322,8.3,14.446,13.095a157.959,157.959,0,0,0,13.574,13.769c6.281,5.713,11.38,12.105,19.681,14.735,3.383,1.071,6.959,2.173,10.443,2.124,3.238-.044,6.227-1.3,8.85,1.236a8.368,8.368,0,0,1,1.221,1.519c-.126-4.429-1.594-8.572-2.4-12.518C1699.7,2688.634,1688.1,2675.184,1675.453,2662.884Z" transform="translate(-1572.365 -2574.979)"/><path class="f" d="M1717.9,2709.353l-.283-.441a8.144,8.144,0,0,0-1.2-1.492,5.274,5.274,0,0,0-3.488-1.525,16.571,16.571,0,0,0-2.884.149c-.769.083-1.565.17-2.376.18-.458.007-.936-.006-1.42-.04a40.249,40.249,0,0,1-9.068-2.092c-6.591-2.088-11.111-6.476-15.9-11.121-1.239-1.2-2.52-2.447-3.838-3.644a157.536,157.536,0,0,1-13.586-13.781c-.541-.629-1.085-1.277-1.635-1.932-3.714-4.418-7.554-8.987-12.756-11.123a110.38,110.38,0,0,0-10.683-3.571c-6.6-1.957-12.84-3.806-18.64-7.954-8.305-5.942-12.248-14.071-16.422-22.678-.861-1.777-1.752-3.613-2.686-5.437-1.242-2.427-2.457-4.919-3.631-7.329-3.315-6.8-6.744-13.832-11.155-20.171-1.473-2.116-2.894-4.5-4.4-7.025-2.791-4.681-5.676-9.522-9.088-12.9l-.544-.54.7.3a40.286,40.286,0,0,1,13.737,9.984c3.72,4.39,7.289,8.858,10.74,13.179s7.018,8.786,10.731,13.168a52.946,52.946,0,0,1,7.139,11.085,52.7,52.7,0,0,0,7.1,11.03,12.216,12.216,0,0,0,5.533,4.674c5.086,2.449,10.359,4.479,15.458,6.443,11.839,4.559,23.021,8.865,32.047,17.935,2.305,2.243,4.614,4.561,6.847,6.8,9.961,10,20.26,20.349,33.143,26.7l.063.032.015.069c.243,1.186.54,2.367.854,3.617a41.356,41.356,0,0,1,1.55,8.926Zm-4.951-3.748a5.556,5.556,0,0,1,3.671,1.606,8.01,8.01,0,0,1,.953,1.118,43.451,43.451,0,0,0-1.521-8.354c-.31-1.229-.6-2.391-.843-3.56-12.9-6.375-23.2-16.72-33.157-26.724-2.232-2.242-4.54-4.56-6.845-6.8-8.984-9.028-20.138-13.323-31.947-17.87-5.1-1.966-10.384-4-15.465-6.445a12.477,12.477,0,0,1-5.651-4.764,52.9,52.9,0,0,1-7.129-11.071,52.754,52.754,0,0,0-7.1-11.03c-3.72-4.39-7.289-8.857-10.74-13.178s-7.018-8.786-10.732-13.169a40.181,40.181,0,0,0-12.941-9.6c3.208,3.37,5.947,7.967,8.6,12.419,1.5,2.519,2.92,4.9,4.387,7.007,4.424,6.359,7.858,13.4,11.177,20.21,1.175,2.408,2.389,4.9,3.63,7.323.935,1.829,1.826,3.666,2.688,5.444,4.158,8.573,8.085,16.67,16.329,22.569,5.76,4.12,11.974,5.962,18.553,7.912a110.793,110.793,0,0,1,10.711,3.581c5.268,2.164,9.131,6.761,12.867,11.205.55.655,1.093,1.3,1.634,1.929a157.235,157.235,0,0,0,13.562,13.756c1.32,1.2,2.6,2.447,3.844,3.651,4.761,4.621,9.258,8.985,15.782,11.052a40.07,40.07,0,0,0,9,2.079c.476.032.946.046,1.4.04.8-.011,1.585-.1,2.348-.179A16.772,16.772,0,0,1,1712.948,2705.605Z" transform="translate(-1572.22 -2574.881)"/></g><g transform="translate(73.294 208.537)"><path class="e" d="M1685.754,2758.935c-14.341-5.974-27.912-13.224-38.365-24.754a96.6,96.6,0,0,1-10.6-14.648c1.149,2.39,2.21,4.794,3.227,7.119,4.578,9.726,11.916,16.429,21.263,21.8,12.332,7.306,24.157,12.566,34.517,22.03a122.309,122.309,0,0,1,8.879,9.057c-3.1-3.822-6.208-7.751-9.423-11.93C1692.6,2764,1689.546,2760.418,1685.754,2758.935Z" transform="translate(-1636.656 -2719.455)"/><path class="f" d="M1704.535,2779.618a121.382,121.382,0,0,0-8.868-9.047c-7.652-6.99-16.07-11.664-24.982-16.612-3.1-1.72-6.3-3.5-9.511-5.4-10.314-5.927-17.09-12.875-21.32-21.864-1-2.283-2.068-4.708-3.227-7.118l.254-.14c3.422,5.446,6.58,10.305,10.585,14.628,11.309,12.473,26.417,19.761,38.314,24.717,3.9,1.527,7.02,5.267,9.557,8.724,3.226,4.191,6.307,8.093,9.419,11.925Zm-66.652-58.05c.785,1.7,1.528,3.393,2.234,5.007,4.2,8.929,10.94,15.836,21.2,21.733,3.208,1.9,6.409,3.678,9.505,5.4,8.927,4.956,17.361,9.638,25.037,16.651,1.955,1.786,3.887,3.687,5.844,5.75-2.169-2.717-4.35-5.5-6.6-8.427-2.515-3.426-5.6-7.129-9.434-8.629-11.928-4.969-27.073-12.276-38.419-24.791A86.569,86.569,0,0,1,1637.884,2721.569Z" transform="translate(-1636.627 -2719.437)"/></g><g transform="translate(141.199 268.526)"><path class="e" d="M1727.557,2802.2c-2.448-3.112-4.964-6.179-7.616-9.162C1722.46,2796.137,1724.979,2799.169,1727.557,2802.2Z" transform="translate(-1719.828 -2792.939)"/><path class="f" d="M1727.421,2802.269c-2.579-3.03-5.072-6.027-7.618-9.164l.221-.188c2.394,2.692,4.887,5.691,7.622,9.168Z" transform="translate(-1719.803 -2792.917)"/></g><g transform="translate(70.359 200.618)"><path class="e" d="M1731.943,2808.809c-4.442-4.664-9.141-8.874-12.825-14.669-8.022-12.558-18.585-21.035-25.871-34.259a20.622,20.622,0,0,0-13.3-9.783c-21.287-5.961-37.3-19.92-46.163-39.16,12.947,15.891,26.75,30.5,48.609,28.877,10.006,6.429,14.7,17.848,24.118,25.286,1.092,1.763,2.23,3.493,3.463,5.155,6.8,9.161,10.685,19.642,17.467,28.685,3.819,5.093,10.34,10.5,13.741,16.019-.14,1.464-.216,2.915-.249,4.358C1737.555,2816.055,1734.982,2812.368,1731.943,2808.809Z" transform="translate(-1633.17 -2709.958)"/><path class="f" d="M1740.93,2819.431l-.238-.23a72.2,72.2,0,0,1-6.075-6.948c-.94-1.174-1.912-2.387-2.921-3.569-.949-1-1.929-1.991-2.879-2.955a71.479,71.479,0,0,1-9.958-11.731,137.27,137.27,0,0,0-11.865-15.3c-4.919-5.749-10-11.694-14.01-18.963-2.773-4.88-7.219-8.149-13.213-9.714a72.469,72.469,0,0,1-27.8-14.631,71.261,71.261,0,0,1-18.46-24.609l-.479-1.042.724.889c11.331,13.907,23.935,27.59,42.35,28.85a43.326,43.326,0,0,0,6.135-.027l.048,0,.041.026c5.427,3.487,9.37,8.531,13.183,13.408,3.259,4.168,6.628,8.478,10.946,11.887l.033.037c1.249,2.016,2.347,3.65,3.457,5.144a119.815,119.815,0,0,1,8.705,14.317,116.508,116.508,0,0,0,8.761,14.367,78.981,78.981,0,0,0,5.9,6.663,61.954,61.954,0,0,1,7.846,9.367l.026.041,0,.049c-.131,1.372-.212,2.793-.248,4.347ZM1634.275,2711.72a70.907,70.907,0,0,0,45.57,38.018c6.071,1.585,10.576,4.9,13.39,9.852,3.992,7.245,9.069,13.178,13.978,18.917a137.459,137.459,0,0,1,11.89,15.336,71.27,71.27,0,0,0,9.921,11.683c.949.964,1.932,1.962,2.887,2.964,1.017,1.191,1.99,2.407,2.932,3.582a74.523,74.523,0,0,0,5.812,6.689c.038-1.414.116-2.723.236-3.987a62.083,62.083,0,0,0-7.784-9.277,79.488,79.488,0,0,1-5.924-6.689,116.928,116.928,0,0,1-8.784-14.4,119.391,119.391,0,0,0-8.683-14.283c-1.109-1.495-2.208-3.13-3.457-5.143-4.336-3.428-7.711-7.744-10.975-11.92-3.79-4.846-7.707-9.856-13.07-13.315a43.544,43.544,0,0,1-6.128.023c-8.4-.575-16.191-3.707-23.814-9.573C1645.628,2725.079,1639.7,2718.338,1634.275,2711.72Z" transform="translate(-1633.032 -2709.737)"/></g><g transform="translate(2.679 170.629)"><path class="e" d="M1591.109,2680.083c5.875,1.8,11.807,4.846,15.747,9.634,3.952,4.622,7.785,9.537,11.7,14.337,8.862,19.24,24.876,33.2,46.163,39.16a20.622,20.622,0,0,1,13.3,9.783c7.286,13.223,17.85,21.7,25.871,34.259,3.684,5.8,8.383,10,12.825,14.669,3.039,3.559,5.612,7.246,8.986,10.508-.008.353-.016.705-.019,1.057-4.346-4.694-9.314-8.542-13.746-13.6-2.177-2.385-3.134-5.239-4.9-7.642-3.7-4.109-7.164-8.06-10.529-12.012-2.448-3.112-4.964-6.179-7.616-9.162-3.1-3.822-6.208-7.751-9.423-11.93-2.646-3.605-5.7-7.192-9.5-8.676-14.341-5.973-27.912-13.223-38.365-24.753a96.6,96.6,0,0,1-10.6-14.648c-4.065-8.461-9.237-16.771-17.49-20.914,8.254,4.144,13.426,12.453,17.49,20.914-4.155-6.613-8.217-13.235-14.075-18.586,5.858,5.351,9.92,11.973,14.075,18.586,1.149,2.39,2.21,4.794,3.227,7.119,4.578,9.726,11.916,16.429,21.263,21.8,12.332,7.306,24.157,12.566,34.517,22.03a122.309,122.309,0,0,1,8.879,9.057c2.519,3.1,5.038,6.134,7.616,9.162,9.34,11.875,17.7,24.382,28.957,35.183.066.061.143.13.229.2.062,3.042.3,6.044.614,9.018a15.134,15.134,0,0,0-1.708-2.9c-2.807-3.735-6.776-5.44-10.433-7.921-14.57-20.788-25-45.1-48.853-57.631-12.707-6.462-24.156-12.566-36.507-20.285-6.012-3.627-10.49-8.457-14.581-13.548-2.357-6.057-4.739-12.293-9.358-15.648-3.234-2.349-7.539-3.3-10.9-5.395a35.058,35.058,0,0,1-5.849-4.81c-3.909-4.821-7.44-10.076-12.519-13.975-4.692-3.1-10-1.617-14.228-3.495-3.376-1.5-7.843-2.957-10.539-5.589C1563.471,2677.951,1578.285,2675.8,1591.109,2680.083Z" transform="translate(-1550.259 -2673.085)"/><path class="f" d="M1726.42,2825.451l-.374-.83a14.929,14.929,0,0,0-1.692-2.873c-2.057-2.737-4.7-4.346-7.49-6.049-.959-.584-1.95-1.189-2.909-1.839l-.037-.037c-3.408-4.862-6.641-10-9.767-14.966-10.222-16.24-20.792-33.032-39.034-42.62-13.047-6.634-24.251-12.624-36.516-20.29-6.337-3.824-10.945-9.011-14.617-13.581l-.022-.039-.094-.24c-2.306-5.927-4.691-12.057-9.215-15.342a28.744,28.744,0,0,0-5.889-2.991,34.42,34.42,0,0,1-5-2.4,35.4,35.4,0,0,1-5.874-4.83c-.855-1.053-1.7-2.133-2.509-3.177-2.964-3.805-6.028-7.74-10-10.787-2.647-1.748-5.508-2.018-8.275-2.278a18.665,18.665,0,0,1-5.925-1.2c-.7-.309-1.429-.613-2.2-.935-2.914-1.208-6.218-2.576-8.376-4.683l-.474-.464.625.223c6.414,2.287,13.525,2.866,20.4,3.426,6.664.543,13.555,1.1,19.868,3.211,4.788,1.469,11.421,4.343,15.813,9.68,2.667,3.119,5.328,6.432,7.9,9.635,1.241,1.545,2.524,3.142,3.8,4.7l.019.031a70.93,70.93,0,0,0,46.071,39.081c6.071,1.585,10.576,4.9,13.39,9.852,3.992,7.245,9.069,13.178,13.978,18.917a137.459,137.459,0,0,1,11.89,15.336,71.27,71.27,0,0,0,9.921,11.683c.949.964,1.932,1.962,2.887,2.964,1.017,1.191,1.99,2.407,2.932,3.582a72.066,72.066,0,0,0,6.049,6.921l.046.044,0,.064c-.008.352-.015.7-.019,1.056l0,.366-.248-.269c-1.975-2.132-4.125-4.134-6.2-6.069-2.466-2.3-5.015-4.667-7.391-7.355a153.015,153.015,0,0,0,13.586,15.153c.062.056.137.125.221.2l.05.042,0,.065c.055,2.725.255,5.671.613,9.006Zm-12.279-11.817c.945.641,1.926,1.239,2.875,1.817,2.694,1.643,5.48,3.341,7.571,6.123a14.964,14.964,0,0,1,1.361,2.173c-.3-2.979-.474-5.648-.527-8.135-.067-.058-.128-.114-.182-.163-8.36-8.02-15.225-17.115-21.864-25.91-2.309-3.059-4.7-6.223-7.109-9.29-2.576-3.026-5.067-6.022-7.615-9.16a121.59,121.59,0,0,0-8.864-9.042c-7.651-6.99-16.069-11.664-24.982-16.612-3.1-1.719-6.3-3.5-9.511-5.4-10.314-5.927-17.09-12.875-21.321-21.864-1-2.28-2.066-4.7-3.223-7.112l-.449-.715c-3.917-6.239-7.966-12.69-13.6-17.833l.143-.156a25.683,25.683,0,0,0-3.21-1.989c-.1-.054-.21-.108-.316-.161l.131-.26c8.732,4.385,13.969,13.516,17.557,20.981,3.413,5.431,6.572,10.291,10.578,14.614,11.309,12.473,26.415,19.761,38.313,24.717,3.9,1.527,7.02,5.267,9.557,8.724,3.233,4.2,6.314,8.1,9.419,11.925,2.391,2.689,4.885,5.688,7.618,9.163,3.329,3.91,6.773,7.839,10.522,12.005a28.81,28.81,0,0,1,1.95,3.2,22.22,22.22,0,0,0,2.947,4.444,104.155,104.155,0,0,0,7.527,7.512c2,1.858,4.059,3.777,5.972,5.818,0-.211.008-.422.013-.633a72.721,72.721,0,0,1-6.029-6.9c-.94-1.174-1.912-2.387-2.921-3.569-.949-1-1.929-1.991-2.879-2.955a71.479,71.479,0,0,1-9.958-11.731,137.27,137.27,0,0,0-11.865-15.3c-4.919-5.749-10-11.694-14.01-18.963-2.773-4.88-7.219-8.149-13.213-9.714a72.469,72.469,0,0,1-27.8-14.631,71.241,71.241,0,0,1-18.452-24.592c-1.268-1.556-2.548-3.149-3.786-4.69-2.571-3.2-5.23-6.512-7.9-9.63-4.348-5.283-10.927-8.131-15.68-9.59-6.282-2.1-13.155-2.656-19.8-3.2s-13.537-1.1-19.81-3.212c2.11,1.807,5.1,3.047,7.768,4.15.777.323,1.512.627,2.212.938a18.449,18.449,0,0,0,5.834,1.176c2.8.264,5.7.537,8.416,2.332,4.005,3.075,7.081,7.025,10.056,10.844.812,1.043,1.652,2.122,2.494,3.16a35.116,35.116,0,0,0,5.813,4.778,34.289,34.289,0,0,0,4.959,2.377,28.945,28.945,0,0,1,5.949,3.024c4.593,3.336,6.993,9.505,9.315,15.473l.085.219c3.653,4.546,8.237,9.7,14.528,13.5,12.259,7.663,23.457,13.648,36.5,20.28,18.313,9.625,28.9,26.451,39.147,42.723C1707.517,2803.659,1710.743,2808.784,1714.141,2813.634Zm-14.235-29.153c1.25,1.637,2.485,3.274,3.7,4.882,2.213,2.931,4.45,5.9,6.76,8.842-.62-.917-1.143-1.865-1.655-2.794a28.239,28.239,0,0,0-1.92-3.156C1704.39,2789.59,1702.111,2787.017,1699.906,2784.481ZM1622,2713.04c.788,1.71,1.53,3.4,2.236,5.01,4.2,8.929,10.941,15.836,21.2,21.733,3.209,1.9,6.41,3.679,9.506,5.4,8.927,4.957,17.36,9.638,25.036,16.651,1.955,1.787,3.888,3.688,5.846,5.751-2.167-2.714-4.348-5.5-6.6-8.428-2.515-3.426-5.6-7.129-9.434-8.629-11.928-4.969-27.073-12.276-38.42-24.791A86.546,86.546,0,0,1,1622,2713.04Zm-14.57-20.25c4.878,4.606,8.561,10.175,12.038,15.686-.384-.748-.785-1.5-1.2-2.265C1615.57,2701.345,1612.1,2696.365,1607.43,2692.789Z" transform="translate(-1550.13 -2673.004)"/></g><g transform="translate(66.169 219.075)"><path class="e" d="M1679.571,2767.19c-12.707-6.462-24.156-12.566-36.507-20.285-6.012-3.627-10.49-8.457-14.581-13.548a54.3,54.3,0,0,0,4.728,10.1c9.692,14.62,24.491,25.538,39.873,33.168,8.517,4.227,14.014,8.577,20.577,15.512a158.693,158.693,0,0,0,20.625,18.642c4.754,3.581,7.473,8.563,11.8,12.273a25.9,25.9,0,0,0,2.339,1.769C1713.853,2804.033,1703.424,2779.726,1679.571,2767.19Z" transform="translate(-1628.006 -2732.531)"/><path class="f" d="M1728.889,2825.2l-.654-.444a26.191,26.191,0,0,1-2.353-1.778,46.907,46.907,0,0,1-5.26-5.612,40.557,40.557,0,0,0-6.532-6.656,158.626,158.626,0,0,1-20.642-18.658c-6.882-7.273-12.448-11.469-20.536-15.481-17.456-8.661-31.264-20.148-39.929-33.219a54.26,54.26,0,0,1-4.742-10.127l-.342-.878.59.736c3.656,4.55,8.242,9.713,14.542,13.514,12.26,7.663,23.458,13.648,36.5,20.28,18.313,9.625,28.9,26.451,39.147,42.723,3.124,4.965,6.355,10.1,9.759,14.954Zm-100.039-91.211a49.666,49.666,0,0,0,4.374,9.2c8.637,13.028,22.406,24.481,39.816,33.119,8.121,4.029,13.71,8.241,20.619,15.542a158.252,158.252,0,0,0,20.606,18.627,40.8,40.8,0,0,1,6.58,6.7,46.657,46.657,0,0,0,5.226,5.577c.5.429,1.048.856,1.661,1.295-3.238-4.663-6.318-9.557-9.3-14.3-10.222-16.24-20.792-33.032-39.034-42.62-13.047-6.634-24.251-12.624-36.517-20.29C1636.876,2743.22,1632.424,2738.374,1628.85,2733.989Z" transform="translate(-1627.899 -2732.345)"/></g><g transform="translate(2.427 170.345)"><path class="e" d="M1606.792,2689.654c17.04,19.923,31.844,45.326,60.3,43.214,10.006,6.429,14.7,17.848,24.118,25.286-3.659-5.906-6.787-12.2-11.123-17.653-3.225-4.057-7.5-8.076-12.226-10.318-4.928-2.338-10.714-1.634-15.44-4.137-4.23-2.24-8.133-6.979-11.517-10.353-4.1-4.084-8.36-7.918-12.226-12.093-6.037-6.521-11.3-15.34-18.285-20.7-15.92-12.218-32.234-9-50.9-8.139a20.642,20.642,0,0,1-9.01-1.656c.091.1.189.187.284.28,12.636,4.506,27.45,2.359,40.274,6.638C1596.919,2681.823,1602.851,2684.866,1606.792,2689.654Z" transform="translate(-1549.944 -2672.738)"/><path class="f" d="M1691.651,2758.7l-.649-.512c-4.345-3.431-7.725-7.755-11-11.937-3.789-4.846-7.706-9.856-13.07-13.315a43.534,43.534,0,0,1-6.127.023h0c-20.442-1.4-33.614-17.8-46.352-33.66-2.572-3.2-5.231-6.512-7.9-9.63-4.348-5.283-10.927-8.131-15.68-9.59-6.282-2.1-13.155-2.657-19.8-3.2-6.9-.562-14.026-1.142-20.476-3.443l-.03-.011-.1-.1c-.07-.068-.14-.135-.207-.205l-.438-.463.6.229a21.859,21.859,0,0,0,6.636,1.625,20.027,20.027,0,0,0,2.316.021c2.6-.121,5.186-.289,7.683-.451a139.7,139.7,0,0,1,18.5-.408c9.775.669,17.659,3.538,24.814,9.028,4.435,3.4,8.2,8.229,11.844,12.894,2.087,2.671,4.244,5.434,6.458,7.826,2.46,2.657,5.135,5.227,7.721,7.711,1.482,1.423,3.013,2.895,4.5,4.377.758.756,1.531,1.568,2.349,2.428,2.751,2.893,5.871,6.171,9.134,7.9a25.079,25.079,0,0,0,7.84,2.154,27.753,27.753,0,0,1,7.6,1.979,36.693,36.693,0,0,1,12.277,10.36,99.544,99.544,0,0,1,7.852,12.135c1.059,1.825,2.155,3.713,3.281,5.532Zm-24.639-26.061.041.026c5.427,3.487,9.37,8.53,13.183,13.408,3.092,3.955,6.283,8.036,10.289,11.356-.973-1.6-1.921-3.23-2.841-4.818a99.439,99.439,0,0,0-7.829-12.1,36.392,36.392,0,0,0-12.174-10.278,27.554,27.554,0,0,0-7.517-1.956,25.306,25.306,0,0,1-7.929-2.183c-3.306-1.751-6.442-5.048-9.209-7.957-.816-.859-1.588-1.669-2.343-2.422-1.485-1.481-3.016-2.951-4.5-4.374-2.59-2.488-5.268-5.061-7.734-7.724-2.223-2.4-4.383-5.169-6.473-7.845-3.632-4.651-7.388-9.461-11.793-12.842-7.107-5.455-14.942-8.3-24.657-8.968a139.572,139.572,0,0,0-18.459.407c-2.5.163-5.081.331-7.689.452a20.264,20.264,0,0,1-2.349-.021q-.377-.026-.742-.066a114.486,114.486,0,0,0,14.809,1.857c6.664.542,13.555,1.1,19.868,3.21,4.788,1.47,11.421,4.343,15.813,9.68,2.668,3.119,5.329,6.432,7.9,9.635,12.7,15.812,25.832,32.162,46.146,33.552h0a43.278,43.278,0,0,0,6.134-.027Z" transform="translate(-1549.822 -2672.656)"/></g><g transform="translate(0 169.362)"><path class="e" d="M1574.94,2682.227c-4.692-3.1-10-1.617-14.228-3.495-3.495-1.554-8.166-3.056-10.823-5.869-.849-.326-1.724-.683-2.659-1.064,3.32,6.383,9.856,7.54,16.515,9.2,8.026,2.006,14.054,5.717,19.957,11.456,1.238,1.2,2.474,2.489,3.757,3.744C1583.55,2691.381,1580.019,2686.126,1574.94,2682.227Z" transform="translate(-1546.919 -2671.515)"/><path class="f" d="M1587.287,2696.241c-.616-.6-1.228-1.219-1.82-1.815-.635-.641-1.293-1.3-1.937-1.929-6.174-6-12.309-9.524-19.891-11.419-.49-.122-.979-.241-1.465-.361-6.191-1.514-12.037-2.945-15.143-8.917l-.182-.35.6.244c.847.345,1.646.67,2.423.968l.031.012.023.024c2.1,2.226,5.526,3.642,8.548,4.892.783.324,1.523.63,2.227.944a18.449,18.449,0,0,0,5.834,1.176c2.8.264,5.7.537,8.416,2.332,4.006,3.075,7.081,7.025,10.056,10.845.812,1.043,1.652,2.121,2.494,3.159Zm-39.807-24.22c3.092,5.559,8.765,6.947,14.764,8.414.487.12.977.239,1.467.361,7.635,1.908,13.81,5.453,20.023,11.493.646.628,1.3,1.292,1.941,1.932l.034.034c-.314-.4-.623-.8-.929-1.19-2.964-3.805-6.028-7.741-10-10.788-2.648-1.748-5.508-2.018-8.275-2.278a18.665,18.665,0,0,1-5.925-1.2c-.7-.312-1.438-.617-2.22-.94-3.039-1.256-6.481-2.681-8.626-4.937C1549.01,2672.644,1548.265,2672.341,1547.479,2672.021Z" transform="translate(-1546.849 -2671.451)"/></g><g transform="translate(148.813 277.689)"><path class="e" d="M1739.8,2816.27c-3.7-4.109-7.164-8.061-10.529-12.012,9.339,11.875,17.7,24.382,28.957,35.183.066.061.143.13.229.2q-.022-1.064-.012-2.135c-4.346-4.694-9.315-8.542-13.746-13.6C1742.519,2821.527,1741.563,2818.673,1739.8,2816.27Z" transform="translate(-1729.156 -2804.163)"/><path class="f" d="M1758.581,2839.94l-.246-.208c-.087-.073-.166-.144-.233-.206-8.36-8.02-15.226-17.115-21.865-25.911-2.309-3.059-4.7-6.222-7.108-9.289l.224-.184c3.333,3.914,6.775,7.843,10.526,12.011a28.765,28.765,0,0,1,1.95,3.2,22.236,22.236,0,0,0,2.947,4.443,103.837,103.837,0,0,0,7.526,7.511c2.083,1.939,4.238,3.944,6.22,6.084l.039.042v.058c-.007.717,0,1.433.012,2.13Zm-13.865-15.778a153.042,153.042,0,0,0,13.561,15.129c-.008-.575-.011-1.162-.006-1.749-1.964-2.117-4.1-4.1-6.165-6.027C1749.64,2829.221,1747.092,2826.849,1744.717,2824.162Zm-11.945-15.6c1.249,1.637,2.484,3.274,3.7,4.881,2.213,2.933,4.451,5.9,6.761,8.844-.62-.916-1.143-1.865-1.655-2.794a28.27,28.27,0,0,0-1.92-3.155C1737.255,2813.667,1734.976,2811.094,1732.772,2808.558Z" transform="translate(-1729.13 -2804.141)"/></g><g transform="translate(127.665 94.211)"><path class="b" d="M1763.086,2829.845l1.476-29.474c-2.585-4.423-2.379-15.1-3.012-19.489-.971-6.738-1.172-13.5-1.741-20.2a210.889,210.889,0,0,0-4.011-24.651c-1.588-7.6-4.644-15.018-4.32-22.555.031-.723.109-1.457.207-2.2-.037-.12-.072-.241-.11-.362-1.294-3.762-2.459-7.532-3.445-11.374-3.556-2.417-4.009-9.724-4.541-13.458-.819-5.748-1.779-11.371-2.409-17.171q-.207-1.9-.42-3.791c-3.683-12.386-7.329-24.716-12.778-36.736-1.388-3.249-1.969-6.947-3.357-10.2-4.6-10.138-9.193-20.277-15.029-30.359a27.416,27.416,0,0,0-6.369-8.433c18.07,28.054,26.1,59.836,34.617,93.237,2.025,8.186-.08,16.558,1.514,24.349.8,3.995,2.307,8.189,2.435,12.679,3.068,4.792,3.035,13.582,4.948,18.5a82.209,82.209,0,0,1,5.183,22.859c.654,6.9,1.9,13.145,2.872,19.817,1.111,7.631.386,15.49.725,23.2a17.127,17.127,0,0,0-1.591-3.237,81.477,81.477,0,0,0,.358,16.568c1.558,3.458,1.712,7.176,1.827,11,.14,4.615,1.291,8.712,1.478,13.209l.228-.055C1759.56,2831.038,1761.308,2830.423,1763.086,2829.845Z" transform="translate(-1703.226 -2579.399)"/></g><g transform="translate(87.02 289.385)"><path class="e" d="M1731.845,2860.147c-9.486-7.231-20.9-5.907-30.746-11.844-8.641-5.211-13.179-14.676-21.608-20.048-7.427-4.733-16.609-6.971-25.068-9.328q1.346.923,2.648,1.9c9.735,6.7,19.137,13.44,25.876,24.087a36.516,36.516,0,0,0,18.036,14.5c15.174,4.428,34.339,4.488,45.159,16.662q.492-.086.984-.183C1741.828,2871.274,1737.679,2864.594,1731.845,2860.147Z" transform="translate(-1653.62 -2818.552)"/><path class="f" d="M1740.372,2868.652a59.667,59.667,0,0,0-8.62-8.7c-5.16-3.934-10.977-5.369-16.6-6.758-4.75-1.172-9.66-2.385-14.156-5.1-4.4-2.653-7.794-6.485-11.075-10.189-3.144-3.551-6.4-7.221-10.531-9.856-6.729-4.288-14.82-6.513-22.643-8.665q-1.239-.341-2.463-.68l-.841-.235.719.495c.888.609,1.777,1.247,2.648,1.9,10.656,7.332,19.324,13.758,25.837,24.047a36.689,36.689,0,0,0,18.117,14.558c4.143,1.209,8.677,2.111,13.063,2.985,11.872,2.362,24.122,4.8,31.967,13.567l.335-.057c-7.9-8.946-20.265-11.412-32.244-13.8-4.38-.872-8.909-1.773-13.031-2.976a36.4,36.4,0,0,1-17.963-14.439c-6.541-10.334-15.233-16.779-25.912-24.126-.64-.48-1.294-.954-1.95-1.415l1.64.452c7.8,2.146,15.871,4.365,22.564,8.63,4.1,2.613,7.339,6.268,10.469,9.8,3.3,3.721,6.7,7.569,11.143,10.246,4.533,2.734,9.466,3.951,14.237,5.129,5.6,1.381,11.385,2.81,16.5,6.707a59.578,59.578,0,0,1,8.575,8.664,70.84,70.84,0,0,0,6.62,7c.119-.023.238-.047.358-.072A67.855,67.855,0,0,1,1740.372,2868.652Z" transform="translate(-1653.44 -2818.468)"/></g><g transform="translate(83.899 288.48)"><path class="e" d="M1686.178,2851.129c-9.827-11.06-18.722-22.161-29.892-30.528q-1.419-.976-2.844-1.955c-1.111-.31-2.211-.622-3.291-.944,5.624,6.487,7.172,13.036,11.1,20.442,5.271,9.928,13.515,17.3,22.582,23.59,8.811,6.107,17.339,9.572,27.693,12.739,7.71,2.358,13.284,2.222,21.313,2.978,3.7-.637,7.464-.831,11.223-1.394-10.574-11.4-28.634-11.073-43.342-14.412C1694.867,2860.255,1690.532,2855.9,1686.178,2851.129Z" transform="translate(-1649.715 -2817.422)"/><path class="f" d="M1700.66,2861.442c-5.792-1.376-10.15-5.739-14.471-10.472-1.69-1.9-3.373-3.829-5-5.694-8.048-9.214-15.65-17.917-24.916-24.857l-2.844-1.955-.043-.02c-1.33-.372-2.345-.662-3.289-.943l-.477-.142.326.376c3.764,4.341,5.7,8.723,7.752,13.362,1,2.271,2.041,4.617,3.334,7.053,4.559,8.588,11.749,16.1,22.628,23.64,9.7,6.723,19.061,10.105,27.733,12.759,5.924,1.813,10.621,2.157,16.06,2.557,1.519.112,3.08.227,4.756.379q.547-.1,1.1-.188c-2.083-.205-3.987-.345-5.83-.481-5.421-.4-10.1-.742-16-2.545-8.65-2.646-17.986-6.019-27.652-12.719-10.839-7.514-18-14.993-22.537-23.538-1.288-2.426-2.323-4.769-3.325-7.033-2-4.528-3.895-8.811-7.479-13.062.811.239,1.7.491,2.8.8l2.819,1.937c9.238,6.919,16.83,15.611,24.867,24.813,1.629,1.865,3.314,3.793,5,5.7,4.354,4.769,8.748,9.166,14.621,10.561,3.613.82,7.511,1.432,11.28,2.023,11.8,1.853,23.973,3.767,31.92,12.273.116-.017.232-.033.347-.052-8.009-8.7-20.3-10.636-32.221-12.508C1708.154,2862.871,1704.262,2862.259,1700.66,2861.442Z" transform="translate(-1649.617 -2817.359)"/></g><g transform="translate(86.823 289.328)"><path class="e" d="M1654.378,2818.915l-.2-.055q1.424.981,2.844,1.955Q1655.723,2819.839,1654.378,2818.915Z" transform="translate(-1653.379 -2818.483)"/><path class="f" d="M1656.763,2820.849l-3.565-2.451,1.081.312c.891.612,1.784,1.252,2.653,1.9Z" transform="translate(-1653.198 -2818.398)"/></g><g transform="translate(90.383 291.54)"><path class="e" d="M1683.542,2845.341c-6.739-10.647-16.142-17.389-25.876-24.087,11.17,8.366,20.065,19.468,29.892,30.528,4.354,4.769,8.689,9.125,14.546,10.517,14.708,3.339,32.768,3.011,43.342,14.412q.645-.1,1.292-.209c-10.82-12.174-29.984-12.234-45.159-16.662A36.516,36.516,0,0,1,1683.542,2845.341Z" transform="translate(-1657.579 -2821.134)"/><path class="f" d="M1714.639,2862.651c-4.379-.872-8.908-1.773-13.031-2.976a36.4,36.4,0,0,1-17.963-14.439c-6.541-10.334-15.233-16.779-25.916-24.129l-.17.236c9.238,6.919,16.83,15.611,24.867,24.813,1.629,1.865,3.314,3.793,5,5.7,4.354,4.769,8.748,9.166,14.621,10.561,3.613.82,7.511,1.432,11.28,2.023,11.8,1.853,23.968,3.77,31.916,12.274l.353-.052c-8.01-8.7-20.3-10.636-32.223-12.508-3.765-.591-7.658-1.2-11.26-2.02-5.792-1.376-10.15-5.739-14.471-10.472-1.69-1.9-3.373-3.829-5-5.694-6.958-7.966-13.583-15.551-21.236-21.942,8.913,6.3,16.281,12.348,21.992,21.371a36.693,36.693,0,0,0,18.117,14.558c4.143,1.209,8.678,2.112,13.064,2.985,11.871,2.363,24.12,4.8,31.965,13.567l.336-.057C1738.982,2867.5,1726.619,2865.035,1714.639,2862.651Z" transform="translate(-1657.559 -2821.107)"/></g><g transform="translate(34.076 1.306)"><path class="e" d="M1654.937,2531.379c-.637-4.937-.035-9.931-3.094-13.517-8.459-10.682-17.035-20.4-25.086-30.375a67.394,67.394,0,0,1-8.025-7.014c-5.25-5.5-9-10.4-16.223-13.511-3.87-1.666-8.457-1.105-12.677-1.051a49.751,49.751,0,0,1,16.97,8.75c9.028,7.456,16.009,15.417,21,25.124a142.3,142.3,0,0,0,23.147,32.981,116.658,116.658,0,0,1-7.685-11.333,116.658,116.658,0,0,0,7.685,11.333,146.8,146.8,0,0,0,15.244,14.01c-2.987-3.46-5.964-6.707-8.967-10.534A25.3,25.3,0,0,1,1654.937,2531.379Z" transform="translate(-1588.817 -2465.632)"/><path class="f" d="M1665.874,2546.857a147.776,147.776,0,0,1-15.258-14.024,141.886,141.886,0,0,1-23.172-33.015c-4.734-9.208-11.4-17.177-20.963-25.078a49.334,49.334,0,0,0-16.917-8.722l-.975-.272,1.011-.013c.771-.01,1.572-.037,2.346-.063a51.826,51.826,0,0,1,5.255,0,15.574,15.574,0,0,1,5.136,1.129c6.132,2.639,9.744,6.532,13.925,11.04.754.813,1.534,1.654,2.345,2.5a66.426,66.426,0,0,0,8.008,7l.025.024c3.575,4.429,7.171,8.71,10.979,13.242,4.623,5.5,9.4,11.194,14.109,17.135,2.326,2.727,2.558,6.224,2.8,9.927.079,1.2.162,2.438.319,3.662a25.484,25.484,0,0,0,2.271,4.809c2.182,2.778,4.4,5.307,6.544,7.753.8.914,1.6,1.829,2.406,2.759Zm-15.038-14.213a146.968,146.968,0,0,0,13.94,12.952q-.664-.759-1.327-1.514c-2.147-2.449-4.367-4.981-6.566-7.783l-.013-.021a25.539,25.539,0,0,1-2.3-4.89c-.163-1.255-.247-2.5-.326-3.7-.243-3.653-.472-7.1-2.739-9.762-4.7-5.942-9.484-11.63-14.106-17.133-3.805-4.529-7.4-8.807-10.972-13.233a66.733,66.733,0,0,1-8.028-7.018c-.812-.852-1.593-1.693-2.347-2.507-4.16-4.484-7.753-8.357-13.828-10.971a15.264,15.264,0,0,0-5.041-1.106,51.586,51.586,0,0,0-5.225,0c-.462.016-.932.032-1.4.045a50.075,50.075,0,0,1,16.108,8.509c9.6,7.929,16.287,15.927,21.04,25.172a142.038,142.038,0,0,0,21.2,30.867c-2.08-2.852-4.089-5.894-5.993-9.076l.25-.149A116.856,116.856,0,0,0,1650.836,2532.645Z" transform="translate(-1588.589 -2465.599)"/></g><g transform="translate(71.151 22.319)"><path class="e" d="M1723.01,2626.29c-7.017-16.211-6.505-33.187-12.279-49.634-2.795-7.958-8.9-16.121-14.261-22.5-5.177-6.161-10.121-10.621-13.639-18.016-2.375-4.991-4.781-10.351-8.991-13.975-6.494-5.591-13.516-10.187-19.994-15.846-5.776-5.048-12.606-9.249-18.786-13.949,8.051,9.975,16.627,19.693,25.086,30.375,3.059,3.587,2.457,8.58,3.094,13.517a25.288,25.288,0,0,0,2.288,4.863c3,3.826,5.98,7.074,8.967,10.534a170.79,170.79,0,0,0,14.269,10.224c.435.308.852.628,1.256.957.151.068.3.139.451.207.081.124.157.249.237.373a27.416,27.416,0,0,1,6.369,8.433q.518.893,1.021,1.788c.122.115.241.23.367.345-.126-.115-.245-.23-.367-.345,5.357,9.493,9.682,19.032,14.008,28.572,1.388,3.248,1.969,6.947,3.357,10.2,5.45,12.021,9.1,24.35,12.778,36.736C1727.353,2641.341,1726.2,2633.652,1723.01,2626.29Z" transform="translate(-1634.196 -2491.528)"/><path class="f" d="M1727.909,2649l-.116-.392c-3.573-12.016-7.267-24.441-12.655-36.326a42.711,42.711,0,0,1-1.686-5.117,42.486,42.486,0,0,0-1.673-5.08c-4.249-9.371-8.643-19.064-14-28.557l-.037-.065q-.486-.861-.984-1.721a27.251,27.251,0,0,0-6.339-8.4l-.027-.031-.109-.173c-.034-.055-.069-.109-.1-.163l-.215-.1-.229-.111c-.429-.349-.837-.66-1.249-.951a171.6,171.6,0,0,1-14.276-10.229l-.02-.018c-.8-.929-1.6-1.844-2.405-2.757-2.146-2.449-4.367-4.981-6.566-7.783l-.013-.02a25.574,25.574,0,0,1-2.3-4.891c-.163-1.255-.247-2.5-.326-3.7-.243-3.653-.472-7.1-2.739-9.762-4.7-5.942-9.485-11.63-14.106-17.133-3.809-4.534-7.406-8.816-10.983-13.247l-.751-.931.953.725c2.322,1.767,4.778,3.492,7.153,5.16a139.841,139.841,0,0,1,11.64,8.8c3.328,2.909,6.859,5.58,10.274,8.164,3.226,2.441,6.561,4.964,9.719,7.682,4.016,3.458,6.377,8.435,8.66,13.249l.367.773c2.661,5.6,6.195,9.565,9.935,13.765,1.2,1.345,2.436,2.736,3.684,4.221,7.363,8.761,12.036,16.136,14.287,22.545,2.627,7.483,3.975,15.19,5.279,22.644,1.56,8.923,3.174,18.15,7,26.981,3.3,7.616,4.4,15.486,5.244,22.9Zm-29.64-75.2c5.256,9.37,9.587,18.922,13.777,28.163a42.7,42.7,0,0,1,1.686,5.117,42.369,42.369,0,0,0,1.673,5.08c5.214,11.5,8.841,23.5,12.305,35.145-.825-6.894-1.992-14.135-5.027-21.148-3.836-8.862-5.453-18.106-7.016-27.045-1.3-7.442-2.648-15.138-5.267-22.6-2.239-6.375-6.894-13.72-14.235-22.455-1.245-1.482-2.482-2.871-3.679-4.214-3.755-4.217-7.3-8.2-9.98-13.834l-.367-.774c-2.27-4.787-4.618-9.736-8.587-13.153-3.15-2.712-6.483-5.233-9.705-7.671-3.418-2.587-6.953-5.262-10.289-8.177a139.491,139.491,0,0,0-11.616-8.775c-2.058-1.447-4.177-2.935-6.219-4.458,3.331,4.106,6.693,8.107,10.237,12.326,4.623,5.5,9.4,11.194,14.109,17.135,2.326,2.727,2.558,6.224,2.8,9.927.079,1.2.162,2.438.319,3.662a25.484,25.484,0,0,0,2.271,4.809c2.182,2.778,4.4,5.307,6.544,7.753.8.911,1.6,1.822,2.4,2.749a171.565,171.565,0,0,0,14.246,10.206c.418.3.827.606,1.256.955l.183.084c.083.039.167.078.25.115l.04.018.024.036.128.2.1.154a27.545,27.545,0,0,1,6.387,8.463c.338.582.674,1.172,1.007,1.763l.081.077c.088.084.176.168.268.251Z" transform="translate(-1634.002 -2491.339)"/></g></g></svg>