<svg xmlns="http://www.w3.org/2000/svg" width="38.243" height="34.641" viewBox="0 0 38.243 34.641"><defs><style>.a{fill:#3b1e12;}</style></defs><path class="a" d="M1821.979,56.029H1788.54a2.4,2.4,0,1,0,0,4.8h33.439a2.4,2.4,0,0,0,0-4.8Z" transform="translate(-1786.138 -56.029)"/><path class="a" d="M1821.979,68.82H1788.54a2.4,2.4,0,1,0,0,4.8h33.439a2.4,2.4,0,0,0,0-4.8Z" transform="translate(-1786.138 -53.871)"/><path class="a" d="M1821.979,81.56H1788.54a2.4,2.4,0,1,0,0,4.8h33.439a2.4,2.4,0,0,0,0-4.8Z" transform="translate(-1786.138 -51.722)"/></svg>