<svg xmlns="http://www.w3.org/2000/svg" width="35.06" height="38.791" viewBox="0 0 35.06 38.791"><defs><style>.a{fill:#46241a;}</style></defs><path class="a" d="M1613.145,49.029h-6.069a1,1,0,0,0-.938.751l-1.877,7.946h-24.276a.891.891,0,0,0-.75.375.946.946,0,0,0-.188.813l3,12.326a.94.94,0,0,0,.938.688h17.957l-.814,3.5h-17.643a3.364,3.364,0,0,0-3.379,3.378,3.423,3.423,0,0,0,1.94,3.066,2.681,2.681,0,0,0-.375,1.376,2.941,2.941,0,1,0,5.693-1.063h11.762l.688.688a3.715,3.715,0,0,0-.437,1.627,3.315,3.315,0,1,0,3.315-3.316,2.973,2.973,0,0,0-1.5.375l-.939-.938a.939.939,0,0,0-.688-.251h-16.079a1.482,1.482,0,0,1-1.5-1.5,1.523,1.523,0,0,1,1.5-1.5h18.394a1,1,0,0,0,.939-.751l6.006-25.714h5.318a.938.938,0,0,0,0-1.877Zm-10.073,35.412a1.439,1.439,0,0,1-2.878,0v-.188A1.414,1.414,0,0,1,1601.57,83h0A1.432,1.432,0,0,1,1603.072,84.441Zm-18.394-1.251a1.063,1.063,0,1,1-1.064-1.064A1.1,1.1,0,0,1,1584.678,83.19Zm16.705-13.2h-17.644l-2.565-10.448h22.649l-.5,2.065h-15.328a.938.938,0,1,0,0,1.877h14.89l-.563,2.252H1592.5a.938.938,0,0,0,0,1.877h9.385Z" transform="translate(-1579.023 -49.029)"/></svg>