<svg xmlns="http://www.w3.org/2000/svg" width="268.067" height="42.667" viewBox="0 0 268.067 42.667"><defs><style>.a{fill:none;stroke:#fff;stroke-miterlimit:10;stroke-width:4px;}</style></defs><g transform="translate(-116.439 -51.332)"><line class="a" x2="26.012" transform="translate(166.601 89.651)"/><path class="a" d="M158.445,52.731,148.383,71.27,138.322,89.807,128.259,71.27,118.2,52.731"/><path class="a" d="M383,52.84,366.067,72.228,351.2,53.086"/><path class="a" d="M283.457,53.086,273.129,71.419,262.8,89.752,252.476,71.419,242.148,53.086"/><path class="a" d="M300.151,53.086,289.823,71.419,279.5,89.752,269.17,71.419,258.842,53.086"/><line class="a" x2="26.012" transform="translate(166.111 53.332)"/><path class="a" d="M303.5,90.465l21.252-33.7L346,90.465"/><line class="a" x2="35.338" transform="translate(308.065 53.39)"/><line class="a" x2="26.012" transform="translate(166.357 71.492)"/><path class="a" d="M202.787,90.632H217.95a18.65,18.65,0,1,0,0-37.3H202.787Z"/><line class="a" y1="19.142" transform="translate(366.313 71.982)"/></g></svg>